<?xml version="1.0" encoding="utf-8"?>
<!-- Generator: Adobe Illustrator 20.1.0, SVG Export Plug-In . SVG Version: 6.00 Build 0)  -->
<svg version="1.1" id="Capa_1" xmlns="http://www.w3.org/2000/svg" xmlns:xlink="http://www.w3.org/1999/xlink" x="0px" y="0px"
	 viewBox="0 0 214.8 218.9" style="enable-background:new 0 0 214.8 218.9;" xml:space="preserve">
<style type="text/css">
	.st0{fill:#030104;}
	.st1{fill:none;}
	.st2{fill:#171717;}
</style>
<g>
	<g>
		<path class="st0" d="M119.3,120.9c-3.3-1.9-8-1.9-11.8-1.9H95.1v25.5h11.4c4.2,0,9.6,0.3,13.2-2.2c3.3-2.2,5.2-6.6,5.2-10.8
			C124.9,127.5,122.6,122.9,119.3,120.9z M114.6,99.1c2.8-2.1,4.2-5.8,4.2-9.3c0-3.7-1.7-7.3-4.9-9.3c-3.3-1.9-9.4-1.5-13.3-1.5
			h-5.4v22.5h7.1C106.3,101.5,111.1,101.8,114.6,99.1z M175.6,6.1H40.5C20.3,6.1,3.9,22.5,3.9,42.7v135.1
			c0,20.2,16.4,36.6,36.6,36.6h135.1c20.2,0,36.6-16.4,36.6-36.6V42.7C212.2,22.5,195.8,6.1,175.6,6.1z M113.7,163.5H71.1V60.8h46.5
			c13.5,0,25.9,8.6,25.9,23.7c0,11.7-6.5,19.7-14.8,22.2v0.3c12.3,2.5,21.1,9.2,21.1,25.4C149.8,147.3,139.6,163.5,113.7,163.5z"/>
		<g>
			<path class="st1" d="M119.3,120.9c-3.3-1.9-8-1.9-11.8-1.9H95.1v25.5h11.4c4.2,0,9.6,0.3,13.2-2.2c3.3-2.2,5.2-6.6,5.2-10.8
				C124.9,127.5,122.6,122.9,119.3,120.9z M114.6,99.1c2.8-2.1,4.2-5.8,4.2-9.3c0-3.7-1.7-7.3-4.9-9.3c-3.3-1.9-9.4-1.5-13.3-1.5
				h-5.4v22.5h7.1C106.3,101.5,111.1,101.8,114.6,99.1z M175.6,6.1H40.5C20.3,6.1,3.9,22.5,3.9,42.7v135.1
				c0,20.2,16.4,36.6,36.6,36.6h135.1c20.2,0,36.6-16.4,36.6-36.6V42.7C212.2,22.5,195.8,6.1,175.6,6.1z M113.7,163.5H71.1V60.8
				h46.5c13.5,0,25.9,8.6,25.9,23.7c0,11.7-6.5,19.7-14.8,22.2v0.3c12.3,2.5,21.1,9.2,21.1,25.4
				C149.8,147.3,139.6,163.5,113.7,163.5z"/>
			<g>
				<g>
					<g>
						<path class="st2" d="M122.5,162.9c-0.2,0-0.5,0-0.7,0C122.4,162.7,122.7,162.7,122.5,162.9z"/>
						<path class="st2" d="M113.7,163.1c1.1-0.1,2.6-0.1,4.1-0.1s2.9-0.2,4.1-0.1c-0.5,0.1-1.2,0.2-2,0.4c-0.4,0.1-0.8,0.2-1.2,0.2
							c-0.4,0.1-0.9,0.1-1.3,0.1C115.6,163.7,114,163.6,113.7,163.1z"/>
						<path class="st2" d="M123.2,164.5c0,0-0.2,0-0.5,0c-0.3,0-0.6,0-1,0c-0.7,0-1.5,0-1.5,0C121.9,164.1,121.6,164.6,123.2,164.5z
							"/>
						<path class="st2" d="M122,163.7l0.1-0.4c0,0,0.4,0,0.8,0.1c0.4,0,0.8,0,0.8,0s-0.4,0.1-0.8,0.2
							C122.4,163.6,122,163.7,122,163.7z"/>
						<path class="st2" d="M122.3,64.4c0.2,0.2,0.4,0.4,0.2,0.7L122.3,64.4z"/>
						<path class="st2" d="M116.3,62.1c-0.6-0.1-1-0.1-1.4-0.1C115.4,62,115.7,62.1,116.3,62.1z"/>
						<path class="st2" d="M127.5,65.6l-1-0.3C126.8,65.4,127.2,65.5,127.5,65.6z"/>
						<path class="st2" d="M141.9,114.7c0.3,0.5,0.5,0.9,0.7,1.3s0.4,0.8,0.5,1.1C141.7,115.8,142,115.4,141.9,114.7z"/>
						<path class="st2" d="M86.2,56.4l-0.3,0.3C85.6,56.5,85.4,56.4,86.2,56.4z"/>
						<path class="st2" d="M114.8,56.8c0,0.2,0,0.3-0.2,0.4c-0.1,0-0.2,0-0.3-0.1L114.8,56.8z"/>
						<path class="st2" d="M131.5,66.9L131.5,66.9l0.7,0.6C131.8,67.3,131.6,67.1,131.5,66.9z"/>
						<path class="st2" d="M76.8,55.9c-0.7-0.2-1.5-0.4-2.2-0.7C76.4,55.4,77.1,55.7,76.8,55.9z"/>
						<path class="st2" d="M114.8,62L114.8,62c0,0,0.1,0,0.2,0C114.9,62,114.9,62,114.8,62z"/>
						<path class="st2" d="M125,58c-0.5-0.2-1-0.3-1.6-0.5C124.1,57.6,124.6,57.8,125,58z"/>
						<path class="st2" d="M141.9,114.7c-0.2-0.2-0.3-0.5-0.5-0.8C141.7,114.2,141.8,114.4,141.9,114.7z"/>
						<path class="st2" d="M129.6,160.3c0.9-0.3,1.1-0.2,1.4-0.1C130.5,160.3,130,160.4,129.6,160.3z"/>
						<path class="st2" d="M111.4,161.4h0.4C111.7,161.5,111.5,161.5,111.4,161.4z"/>
						<path class="st2" d="M76.7,160.6c-0.1-0.1-0.1-0.2-0.2-0.3C76.6,160.3,76.7,160.4,76.7,160.6z"/>
						<path class="st2" d="M66.3,136.4c0.5,2.3-0.5,4.7-0.5,6.7l0.4-0.8l-0.3,2h0.6c-0.3,3.3,0.3,7.5-0.6,8.7l0.9-0.4l-0.7,3.5
							l0.6-2c0,0.7,0,1.6,0,2.4c0,1.2-0.1,2.5-0.1,3.7c-0.1,3.1-0.2,6.1-0.3,8.1c1.3,0.1,2.2,0.1,2.6,0.1l-0.4-0.3
							c1.3-0.2,2,0,3.2,0.2c0,0-0.2-0.1-0.3-0.3c-0.2-0.1-0.3-0.3-0.3-0.3c1.3,0,2.5,0,3.6,0c0.5,0,1.1,0,1.6,0s1.1,0,1.2-0.1
							c1.1-0.1,2.1-0.2,3.1-0.3c2-0.2,4.1-0.4,7.4-0.1c1.8-0.1-1-0.2-1-0.4c1-0.4,3.3,0,3.8,0.2c-0.5-0.8-3.3-0.5-1.2-1.2
							c1.5,0.4-1-0.7,1.6-0.6l1,1c1.5-0.2,0.3-0.8,2.6-0.7c2.7,0.4-3.3,1.1,1,1.3c2.2-0.1,4.5-2.3,8.7-1.8c3.6-0.5-1.9-1.6,3.1-1.3
							l-3.2-0.7c0.8-0.3,0.3-0.8,2.5-0.6c0.7,0.4,2,0.9,3.2,0.9c-4.7-0.8,4.1-1.2-0.3-2.1h1.6c-0.2,0-0.3-0.1-0.1-0.2l2.2-0.1
							c-1.3-0.2-4.5-0.3-3-1.1l3.1-0.2c-0.8-0.6,0.3-0.8,0.1-1.2l-9.2-1.1c0.4,0.3,1.7,0.6,1.2,0.9c-2.5,0.3-2-0.6-4.3-0.1l1,0.4
							c-0.2-0.2-0.5-0.2,0-0.3c0.8-0.3,1.2,0,1.2,0.3c-0.8,0.6-3.1,0.2-3.8-0.2c-3,0.1-0.6,1-1.3,1.2c-1.5-1-5,0-6.8-0.4l1.2,0.6
							c-2.3,0.7-4.3,0.1-5.6-0.1l0.5,0.5c-3.2-0.1-4.7,1.6-7.1-0.2l0.3,0.3c-0.6,0.1-1.5,0.2-2.3,0.3c-0.8,0-1.7,0-1.9-0.3
							c0,0.2-0.2,0.5-0.5,0.5c-0.1-0.3-0.4-0.4-0.7-0.3c-0.4,0.1-1,0.2-1.6,0.3c0.6,0.2-0.4,1.1,0.6,1.3c-1.4,0.4-2,0.2-2.1-0.1
							c0.4-0.9,0.9-1.7,0.9-2.5c-0.2-0.4-0.4-0.1-0.5,0.4s-0.2,1.1-0.4,1.4c0.2-1.7-0.3-2.8-0.6-4.6c-0.4-1.8-0.5-3.4,0.4-4.6
							l0.6,1.6c0.4-1.5,0.4-2.3,0.2-2.2c0.1,0.5-0.1,0.7-0.3,0.8c-0.9-4.6,1.3-7.2,1-11.8c-0.3,0.3-0.4,1-0.7,1
							c-0.4-2.1,1.7-2.1,1-5.5l-0.4,0.7c-0.2-1.2,0.3-2,0.4-1.8c-1.5-0.1,0.1-7.3-1.9-9.7c0.8-1.7,1.5-6.5,1-8
							c-0.9-2.1-1,1.9-1.9,1.1c0-1.7,0.8-2.5,0.5-5c0.8,0,1.7,4.9,2.2,0.2l-0.5-0.3c0.1,0.5,0.2,1.1,0.1,1.8
							c-0.5,1.3-0.6-0.8-0.8-1.1l0.3-5c0.9-0.4,0.7,2.6,0.9,2.9c-0.2-4-1.5-8.7-0.9-12.4l-0.3,0.3c0.8-4.7-1.7-2.7-0.2-6.5
							c-0.2-2-1,0.7-1-2.3c0-0.8,0.3-0.3,0.5-0.2c0.3-3.7-0.9-1.6,0-5l-1,0.7c0.7-4,2.3-8.2,1.9-11.7c-0.8,0.3-0.8,2.5-1.3,3.4
							c0.7-2.4,0.7-5.2,0.7-8c0-0.7,0-1.4,0-2.1c0-0.6,0-1.2,0-1.8c0-1,0.1-2,0.3-2.7c0.3,0.7,0.7,0.6,1,0.7c0.4,0.1,0.7,0.4,1,1.1
							c-0.5-0.1-0.6,0.1-0.5,0.4c0,0.3,0.2,0.7,0.1,1.1c1-0.5,0.8-1.1,0.5-2.3c0.6-0.3,1.9-0.7,2.1,0.3l0.2-0.7c0,0,0.3,0.1,0.5,0.2
							c0.1-0.1,0.4-0.1,0.5,0c0.4,0.2,0.5,0.4-0.1,0.5l4.8-0.5c-0.8-0.3-2.2-0.7-3.4-1c-0.6-0.1-1.2-0.2-1.7-0.2c-0.3,0-0.5,0-0.7,0
							c-0.1,0-0.2,0.1-0.3,0.2c-0.5-0.4-0.2-0.5,0.2-0.7c0.1-0.1,0.5-0.1,0.6-0.3c0.1-0.1,0.1-0.3-0.2-0.5c3.2,1.2,2-0.5,5.3-0.3
							c-1.5,1.1,3.3,1.4,3.2,2c1-0.1,3.4,0.4,4.4,0.8c1.9,0.1,6.3-0.8,9.4-0.4c-1.2-0.3-3-0.8-2.9-1.5c1.5,0.4,3.2,0.4,3.5-0.4
							c-5.4-1.4-1.7,1.8-6.6,0.9c-1.2-0.9-2.5-1.1-5-1.4c1.1-0.5,0.6-0.7,1.1-1.4c3.1,1.9,8,0.2,12,1.1c1.7,0.6,0.4,1.8,4.3,2
							l-3.3,0.6c3.6-0.5,0.9,0.6,3.8,0.8l-1.2-0.6c1.8-0.1,2.5,0,3.5,0.4l-1.5-1c1-0.1,2.8-0.2,2.8,0.3c0.3-0.2,0.3-0.4,0.3-0.6
							c0.2,0.2,0.7,0.3,1.8,0.2c-0.7-0.1-1.2,0-1.2-0.3c4.4,0.2,1-1,3.8-0.9c-0.4-0.2,0.3-0.5,1.3-0.6c-0.1,0.8,1.4,1.1,2.7,1.6
							c0.4,0.1,0.8,0.2,1.1,0.3c0.3,0.1,0.7,0.2,1,0.4c0.6,0.2,1.1,0.4,1.4,0.7l0,0c0,0,0.8,0.3,1.5,0.6c0.4,0.1,0.7,0.4,1,0.5
							s0.5,0.2,0.5,0.2c-0.6-0.3,0.2-0.5,1.2-0.4h-0.1c1.1,0.2-0.7-2,2.2-0.4c0,0,0.1,0.1,0.2,0.2c0.1,0.1,0.3,0.3,0.5,0.4
							c0.3,0.3,0.7,0.6,0.7,0.6c-0.2-0.2,0.1-0.3,0.3-0.3c0,0,0.1,0.1,0.2,0.2c0.1,0.1,0.3,0.2,0.5,0.4c0.3,0.3,0.6,0.6,0.6,0.6
							c0.4,0,0.7,0.1,1,0.2c0.3,0.1,0.6,0.3,0.8,0.5c0.5,0.4,1,0.9,1.3,1.4c0.8,1.1,1.4,2.3,2.6,3.3c-0.2-0.2-0.3-0.4-0.4-0.6
							c-0.2-0.2-0.3-0.4-0.4-0.5c-0.2-0.3-0.2-0.6,0.1-0.5c0.3,0.2,0.5,0.5,0.7,0.8c0.2,0.3,0.3,0.7,0.3,0.9v-0.2
							c0,0,0.7,1.3,1.1,2.7c0.1,0.2,0.1,0.3,0.2,0.5c0,0.2,0.1,0.3,0.1,0.5c0.1,0.3,0.1,0.6,0.2,0.9c0.1,0.3,0.1,0.5,0.1,0.6
							s0,0.2,0,0.2c0.2-0.3-0.1-1.2-0.2-1.9c-0.1-0.7-0.2-1.2,0.4-0.6c0.5,0.3,0.7,0.9,0.9,1.6c0.2,0.7,0.1,1.4,0.2,1.9
							c-0.4-0.1-1.3-1.8-1,0.1c0.1,0.1,0.4,0.5,0.7,0.9c0.2,0.3,0.4,0.6,0.5,0.1c0,2.1-0.1,5-1,6.8c0.1,0.6,0.4-0.3,0.4-0.6
							l-0.1-0.2c0.1-0.6,0.4-0.6,0.6-0.8c0.2-0.2,0.3-0.5,0-1.7c0.3-0.1,0.5,0.1,0.6,0.5c0.1,0.4,0.2,0.9,0.1,1.5
							c-0.1,1.2-0.4,2.7-0.5,3.7c0,0,0.1-0.2,0.2-0.5c0.1-0.3,0.3-0.7,0.4-1.2c0.2-0.4,0.3-0.9,0.4-1.2c0.1-0.3,0.2-0.5,0.2-0.5
							c0.4,1.5,0.4,3.2,0.1,4.9c-0.3,1.7-0.9,3.4-1.8,5c-0.9,1.6-2,3-3.2,4.2c-0.3,0.3-0.6,0.6-0.9,0.8c-0.3,0.3-0.8,0.7-1.2,1
							c-0.2,0.2-0.4,0.3-0.6,0.5s-0.4,0.3-0.7,0.4c-0.5,0.3-1,0.6-1.4,0.8c0.4-0.4,0.8-0.7,1.3-1c0.4-0.3,0.7-0.6,1-0.9
							c0.5-0.5,0.7-0.9,0.2-1.1c-0.7,0.5-1.3,0.8-1.8,1.2c-0.2,0.2-0.5,0.3-0.8,0.4s-0.6,0.3-0.8,0.4c-0.5,0.2-1,0.4-1.4,0.6
							c-0.5,0.2-0.9,0.4-1.4,0.6c-0.4,0.7-0.8,1.5-1.7,2.4l0.2-0.2c-0.1,0.2-0.3,0.6-0.6,0.8l-0.5,0.3l0.1,0.1c0,0-0.1,0-0.1,0.1
							v0.2c0,0.2,0.1,0.1,0.2,0.2l0.2,0.2c0.1,0.1,0.3,0.2,0.4,0.3c0.3,0.2,0.6,0.3,1.2,0.4c0.1-0.6-2.4-0.8-1-1.3c0,0,0,0.1,0,0.2
							c0.1,0,0.2,0.1,0.4,0.2c0.3,0.2,0.7,0.4,1.1,0.6c0.5,0.3,0.9,0.5,1.3,0.8c0.4,0.2,0.6,0.4,0.6,0.4c-0.1-0.3-0.3-0.5-0.7-0.8
							c-0.2-0.1-0.4-0.3-0.7-0.4c-0.2-0.1-0.5-0.2-0.7-0.3l-0.7-0.3l-0.4-0.2v-0.2v-0.1h0.1c0.4-0.2,0.8-0.4,1.1-0.6
							c0.4-0.3-0.1,0.1-0.8,0.3c-0.2,0.1-0.3,0.1-0.5,0.2c-0.1,0-0.2,0.1-0.2,0.1c-0.1,0-0.2,0-0.2,0.1c-0.1,0.4-0.1,0.3-0.4,0.3
							c0-0.1,0-0.2,0-0.3c0,0,0.1-0.1,0.2-0.1c0.1-0.1,0.2-0.1,0.3-0.2c0.2-0.1,0.4-0.2,0.6-0.4c0.4-0.3,0.8-0.5,1.2-0.8
							c0.4-0.3,0.8-0.6,1.3-0.8c0.5-0.2,0.9-0.5,1.4-0.7c0.5-0.1,1.1-0.3,1.6-0.4s0.9-0.3,1.5-0.4c0.8-0.2,0.9,0,0.7,0.2
							c-0.2,0.3-0.6,0.7-1,1c-0.4,0.3-0.7,0.5-0.9,0.6c-1,0.3-2.2,0.7-3.2,1.1c-0.5,0.2-1,0.4-1.5,0.5c-0.2,0.1-0.5,0.2-0.7,0.2
							l-0.2,0.1c0,0,0,0.1,0,0.2c0,0.1,0.1,0.1,0.2,0.1c1.4,0.5,2.8,1.5,5.9,2.2l3.4,0.4c0.7,0.8,0.7,1.5,1,2.2
							c0.1,0.3,0.3,0.7,0.6,1c0.3,0.4,0.8,0.7,1.5,1.3c0,0-0.1-0.3-0.2-0.6c-0.1-0.3-0.2-0.6-0.2-0.6c0.8,0.3,1.3,0.6,1.6,0.8
							c-0.5-0.7-1-1.4-1.6-2.1c-0.3-0.3-0.6-0.7-0.9-1c-0.3-0.3-0.6-0.6-0.8-0.9c0.7,0,1.3,0.1,2,0.6c0.3,0.2,0.7,0.5,1,0.8
							s0.6,0.6,0.9,1c0.6,0.7,1.1,1.5,1.6,2.3c0.4,0.8,0.9,1.6,1.3,2.3c0.1-0.3-0.6-1.1-0.6-1.6c1.7,1.8,2.8,4.2,3.2,6.5
							c0.4,2.3,0.4,4.5,0.5,6.4c0.4,0.7,0.4,0,0.4-0.9c0-0.9-0.1-1.9,0.5-1.6c0.1,1,0.3,2,0.4,2.9c0.2,0.9,0.2,1.6-0.2,1.9
							c1.1-0.9,0.2,4.6,1.2,0.7c0.4,3.7-0.3,7.6-1.7,11.2c-1.5,3.6-3.8,6.8-6.3,9.3c0.5,0,0.7,0.1,0.7,0.5c0.9-0.9,1.7-2.2,2.7-3.2
							c0.8-1.1,1.8-2.1,2.4-2.6c-0.1,0.9-0.8,1.7-1.4,2.3c-0.6,0.6-1.2,1.1-1.2,1.3c0.8-0.5,1.6-2.1,2.1-1.8c-0.1,0.6-0.3,1-0.6,1.4
							c-0.2,0.4-0.5,0.7-0.8,1c-0.6,0.6-1.2,1-1.7,1.6l0.3-0.8c-3.7,3.2-3,0.8-6.5,4.2c-1,1.6,0.3,0.4,0.9,1.1
							c-0.6,0.2-1.5,1.1-2.5,1.8c-1.1,0.7-2.2,1.4-2.9,1.2c0,0,0.2-0.1,0.4-0.2c0.2-0.1,0.6-0.3,0.9-0.5c0.6-0.4,1.3-0.8,1.3-0.8
							c-1,0.4-1.9,0.9-2.8,1.3c-0.9,0.3-1.7,0.6-2.4,0.8c0.2,0.1,0.4,0.2,0.8,0.1c-0.4,0.1-0.8,0.2-1.3,0.4
							c-0.4,0.1-0.9,0.2-1.3,0.3c-0.8,0.2-1.6,0.3-2.1,0.2l-0.2,1c0.8-0.7,3.7-1.6,4.3-1.5c0.1,0.9-3.1,1.4-4.3,1.9
							c1.4-0.4,2.5-0.6,3.5-0.8c0.9-0.2,1.7-0.3,2.4-0.5c1.5-0.2,2.7-0.7,4.8-2.3l-0.9,0.2c0.6-0.5,1.2-1.1,1.9-1.5
							c0.6-0.5,1.4-0.8,2-1.3c0.7-0.5,1.3-0.9,1.9-1.4c0.6-0.5,1.1-1,1.6-1.6c-0.4,0.7-0.3,1.1,0.1,0.9c1.9-2.6,3.6-5.4,4.9-8.4
							c0.7-1.5,1.2-3.1,1.7-4.7c0.2-0.8,0.3-1.7,0.5-2.5c0.2-0.9,0.2-1.8,0.3-2.7c0,0,0.1-0.1,0.2-0.3c0.1-0.2,0.3-0.5,0.4-0.7
							c0.2-0.5,0.5-1.1,0.5-1.1l-0.7-0.2c-0.1-1.8,0.1-2,0.4-2s0.6,0.1,0.5-1.1c0,0.9-0.1,0.7-0.2,0.9c0.3-2.1,0.1-2.7-0.1-3
							c-0.3-0.3-0.6-0.4-0.6-1.6c-0.3,0.6-0.2,1.7-0.3,2.5s-0.2,1.4-0.7,0.9c0.4-2,0.1-4.6-0.2-6.7c-0.2-1.1-0.4-2.1-0.4-2.9
							c-0.1-0.8,0-1.4,0.3-1.7c-1.8-3.7-4.7-7.4-8.2-10.1c-0.4-0.3-0.9-0.6-1.3-1l-0.5-0.4l-0.8,0.1c-0.2-0.1-0.4-0.3-0.6-0.4
							c-0.2-0.1-0.3-0.2-0.4-0.3c-0.6-0.4-1-0.6-1.5-0.7c-0.8,0-0.2,0.1-0.7,0.2c0.2-0.2,0-0.2-0.3-0.3h-0.1V106l0.2-0.1
							c0.1-0.1,0.2-0.1,0.3-0.2c0.3-0.2,0.7-0.7,1.3-0.6c0-0.1,0-0.1,0-0.2c-0.1-0.2-0.4-0.5-0.5-0.6c0.6-0.2,1.1-0.4,1.5-0.7
							c0.1,0,0.2-0.2,0.3-0.2c0.2-0.2,0.4-0.4,0.6-0.5c0.4-0.4,0.8-0.8,1.1-1.2c0,0-0.3,0.3-0.6,0.6c-0.3,0.3-0.6,0.5-0.6,0.5v-0.2
							c0,0,0.5-0.4,0.9-0.8c0.4-0.4,0.8-0.8,0.8-0.8v0.1c1.7-2.2,3.1-4.9,4-7.6c0.9-2.7,1.5-5.5,2-7.9c-0.7,2.8-1-0.7-1.4,0.6
							c0.7-1.2,1.1-3.3,0.9-5.8c-0.1-0.6-0.1-1.3-0.2-1.9c-0.1-0.6-0.3-1.3-0.5-1.9l-0.3-1c-0.1-0.3-0.2-0.6-0.4-0.9
							c-0.3-0.6-0.5-1.2-0.8-1.8c-0.3,0.1-0.6-0.1-0.6,0.5c0,0,0-0.2-0.1-0.4c-0.1-0.3-0.2-0.6-0.3-1c-0.2-0.7-0.5-1.4-0.5-1.4
							l-0.1,0.5c-1.5-2.1-2.9-4.5-4.6-6.3c-0.2-0.2-0.4-0.5-0.6-0.7c-0.2-0.2-0.4-0.4-0.7-0.6c-0.7-0.6-1.1-1-1.5-1.4
							c-0.9-0.6-1.8-1.1-2.6-1.4c1.7,1.2,1.6,1.5,1.5,2c-3-2-6.1-3.4-10.1-4.7c0.2,0.1,0.3,0.2,0.3,0.3c-1.1-0.1-2.3-0.7-3.4-1
							l-0.2,0.7c-1-0.3-2.2-0.3-3.5-0.4c-1.2-0.1-2.4-0.1-3.5-0.4c-0.9,0.7-5.5-0.7-8.2-0.4c-1-0.2,2.2,0.8-0.6,0.7
							c-0.4-1.5-3.7,0-3.9-1.6l-2.5,0.6L99,55.7c-2.1,1.5-3.2-0.7-6.3-0.2c0.2,0.2,0.5,0.2,0.3,0.3c-1-0.2-3.3-0.3-1.5-0.7
							c-1.7,0-7.3-0.4-4.8,0.5c-0.2-0.5,2.1-0.1,3.1,0.1c-0.1,0.7-2.6,0.4-3.3,1.1c-0.1-0.1-0.4-0.2-0.6-0.3l-0.4,0.6
							c-1.6-0.4-3.1-0.4-4.6-0.5c-0.7,0-1.4-0.1-2.1-0.2c-0.3,0-0.7-0.1-1-0.2c-0.2,0-0.3-0.1-0.5-0.1L77.2,56h-0.1h-0.2
							c-0.2,0.2-1.2,0.4-3.1,0.3l-0.4-0.8h-6.3c0,0,1,0.3,1.9,0.6s1.8,0.6,1.8,0.6c-1.3,0.1-2.6,0-3.9,0c-0.1,1.9-0.4,3.7-0.7,5.7
							c-0.1,1-0.3,2-0.4,3c0,0.8-0.1,1.6-0.2,2.3c1.4,0.8-0.5,5.8,0.7,8.4l0.4-2.3c-0.3,5,0.6,5.8,0.1,10.5c-0.5-4-0.2-4-1.4-9.7
							c0.6,5.8-0.8,10,0,15.3c0.3-0.4,0.6-1.7,0.9-0.4c-0.7,1,0,5-0.8,4.2c0.3,1.6,1.1,1.9,1.2,2.9l-1,5.5l0.2-0.2
							c2,9.4-1.3,17.5-0.5,26.9l0.5-0.2l-0.7,2.5c0.4-1.8,0.6,0.8,1,0.9l-1,6C65.6,138.2,66.5,137.9,66.3,136.4z M73.5,56.4l2.5,0.1
							c0.5,0,1.1-0.1,1.4,0H76C74.7,56.5,73.9,56.9,73.5,56.4z M148.4,115.9c0.1,0.9-0.7-0.9-1.1-1.3c0,0,0.3,0.6,0.7,1.1
							c0.2,0.3,0.3,0.6,0.5,0.8c0.1,0.2,0.2,0.4,0.2,0.4C149.1,117.1,148.6,116.3,148.4,115.9z M75.4,61.9L75,62.5l-1-0.4L75.4,61.9
							z M72.2,77.1l0.3-2l0.1,0.2l-0.3,2L72.2,77.1z M67.7,99.6c0-0.1,0.1-0.2,0.1-0.4C67.7,99.4,67.7,99.5,67.7,99.6
							c-0.5,1.6,0.6,2.2-0.4,3.5C66.4,101.5,67.3,100.5,67.7,99.6z M67.6,62.4c0.1-1,0.2-1.5,0.1-2.3c-0.3,0.3-0.8,2.3-1,0.6
							c0.4-0.7,0.5-2.7,0.7-3.6c0.7,0.1,1.2,0.2,1.4,0.4c-0.4,0-0.7-0.1-1.1-0.1c-0.1,1.2,0.2,2.6,0.3,3.5
							C68.1,61.8,68.2,62.4,67.6,62.4z M115.6,57.7l-0.5,0.1l1.9,0.4L115.6,57.7z M124.8,59.1c0.9,0.9,3.7,1.6,5.4,2.5
							c0.4-0.2,0.2-0.6-0.4-1.1c-0.6-0.6-1.6-1.1-2.8-1.4c-1.3-0.7-1.6-0.5-1.7-0.2C125.2,59.1,125.3,59.4,124.8,59.1z M68.7,79.6
							l0.5-0.5l0.1,0.5l0.3-2c0.7,2.6-0.6,4.5-0.8,5.9C68.9,82.2,70.1,79,68.7,79.6z M141.2,69.9c0.2,0.5,0.5,1,0.7,1.6
							c0.2,0.6,0.4,1.2,0.5,1.8c0.3,1.1,0.3,1.9,0,1.9c0.5-0.1,0.6-0.9,0.4-1.7c-0.2-0.8-0.5-1.7-0.8-2.1
							C141.8,70.9,141.6,70.6,141.2,69.9z M139.7,70.9c-0.1-0.3-0.3-0.6-0.4-0.9c-0.1-0.2-0.2-0.5-0.3-0.7c-0.2-0.4-0.3-0.8-0.4-1.1
							c-0.2-0.7-0.4-1.3-0.9-2.4c0.6,0.4,1,0.8,1.3,1.2c0.2,0.5,0.3,0.8,0.4,1.1c0.1,0.6-0.2,1-0.5,1c0.5,0.9,0.7,1.1,1,1.3
							c0.2,0.2,0.5,0.2,0.8,0.6L139.7,70.9z M139.9,66.9c0,0-0.2-0.2-0.5-0.4c-0.2-0.2-0.4-0.4-0.4-0.4c-1.4-0.7-2.2-0.1-3.1-2.1
							c0,0,0.8,0.5,1.6,1c0.7,0.5,1.5,1.1,1.5,1.1C139.3,66.2,139.6,66.5,139.9,66.9z M145.9,90.6l0.5-1.2
							C146.2,90.6,146.1,90.7,145.9,90.6l-0.5,0.9C145.6,88.8,145.7,90.2,145.9,90.6z M143.2,72c0,0-0.1-0.2-0.3-0.5
							c-0.2-0.3-0.3-0.7-0.6-1.1c-0.5-0.7-1-1.5-1-1.5C141.1,69.4,142.6,71,143.2,72z M145.2,89.6c0.1-0.7,0.2-2,0.2-3s0-1.8,0-1.6
							c0.2,0.2,0.3,1.1,0.3,2.1S145.5,89.2,145.2,89.6z M149.3,141.7c0,0,0-0.1,0.1-0.3c0.1-0.2,0.2-0.4,0.2-0.7
							c0.1-0.5,0.2-1,0.2-1l0.4,1.1c0,0-0.2,0.2-0.5,0.4C149.5,141.5,149.3,141.7,149.3,141.7z M147.1,118.5l0.5,0.3
							c0,0,0.1,0.3,0.3,0.5c0.1,0.1,0.1,0.3,0.2,0.4c0,0.1,0.1,0.2,0.1,0.2C148.1,119.9,147.1,118.5,147.1,118.5z M129.9,107
							c0.4,0,0.7-0.1,0.9-0.2c-0.1,0-0.1-0.1-0.1-0.1s0,0,0-0.1c0.1-0.1,0.1-0.1,0.2-0.1c0,0.2,0.1,0.1,0.1,0.2c0,0-0.1,0.1-0.2,0.1
							c0.4,0.2,1.7,0.5,2.5,0.5c0.1-0.1-0.1-0.2-0.3-0.3c-0.2-0.1-0.5-0.2-0.5-0.3c0.8,0,1.2,0.1,1.6,0.3c0.3,0.2,0.6,0.4,0.9,0.6
							c0.3,0.2,0.6,0.4,1,0.4c0.3,0,0.7-0.2,1.1-0.5c0.1,0.2,0.4,0.5,0.7,0.9s0.5,0.8-0.1,0.7c-0.4-0.2-1-0.5-1.6-0.7
							c-0.6-0.2-1.3-0.4-2-0.6s-1.5-0.3-2.2-0.5C131.3,107.2,130.6,107.1,129.9,107c-0.3,0-0.7,0-1.1-0.1
							C129.1,107,129.5,107,129.9,107z M143.3,85.1c0.1-0.8,0.1-1.2,0.2-1.3c0.1-0.7,0.4-1.3,0.7-1.1c-0.2,1.8-0.5,0.6-0.7,1.1
							C143.4,84.2,143.3,84.6,143.3,85.1z M142.7,80c0,0,0,0.7,0,1.3c0,0.3,0,0.7-0.1,0.9c0,0.2,0,0.4,0,0.4s0.1-0.3,0.2-0.7
							c0.1-0.2,0.1-0.3,0.1-0.5c0-0.1,0-0.2,0-0.2s0,0.3-0.1,0.6c-0.1,0.4-0.2,0.9-0.3,1.4c-0.1,0.5-0.2,1-0.3,1.3
							c-0.1,0.4-0.2,0.6-0.2,0.6c-0.1-0.6-0.1-1.1-0.2-1.7c0-0.6,0-1.1,0.1-1.6C142.2,81,142.4,80.3,142.7,80z M142.1,79.2l0.4-0.6
							c0,0-0.3,0.9-0.4,0.9C142.2,79.5,142.1,79.2,142.1,79.2L142.1,79.2c-0.1,0.1-0.3-1-0.5-2c-0.1-0.5-0.3-1-0.4-1.4
							c-0.1-0.4-0.2-0.7-0.2-0.7s0.1,0.3,0.2,0.6c0.1,0.4,0.3,0.9,0.5,1.4C141.9,78.2,142.1,79.2,142.1,79.2z M105.5,60.5
							c-1.7,1.9,4,1.4,4.9,2.3c0.1-0.7,1.8-1.6-2.6-1.6c3.8-0.6,2.4,1.2,4.6-0.4c-1.8,0.1-4-0.4-4.3-0.4l2.1-0.1
							C109,59.1,107,60.9,105.5,60.5z M82.4,60.8h-2.8l2.6,0.1L82.4,60.8z M71.7,119.2c0.4-0.2,1.3,3.4,0.4,4.3
							C72,121.6,72,119.6,71.7,119.2z M71.5,149.1l0.4-3.2c1,0.6,0,2.8,0.1,4.3C71.5,150.8,71.9,149.6,71.5,149.1z M77.3,163.1
							l1,0.2l-1.1-1L77.3,163.1z M76.3,161.8c0.3-0.2,0-0.4-0.3-0.5c-0.3-0.1-0.7-0.1-0.8-0.1c0,0,0.2,0.2,0.5,0.3
							C75.9,161.6,76.3,161.8,76.3,161.8z M94.5,160.9h-1.3l1.2,0.9L94.5,160.9z M92.4,161.9c-0.3-0.6-0.2-1.5-3.2-1.1
							c-0.1,0.7,0.7,0.7-0.4,1.5c1,0.2,1.8-0.1,2.3-0.2c-0.7-0.1-1.5,0.2-1.7-0.3C90.5,161.6,91.7,161.7,92.4,161.9
							c0.1,0.2,0.3,0.4,0.7,0.5C93.1,162.2,92.8,162.1,92.4,161.9z M81.4,162.6c-0.4,0.1-0.7,0.2-0.9,0.3l-0.2-0.2
							C80.7,162.5,81.1,162.5,81.4,162.6c0.4-0.1,1-0.2,1.5-0.2c0.3-0.6-1.7-1-2.3-1.3c1,0.2,1.8,0.7,3.2,0.4
							c-0.2-0.2,0-0.3-0.8-0.3l1.8-0.1c2.1,0.8,0.1,1-1.8,1.3c-0.1,0.1-0.2,0.3-0.6,0.4C82,162.9,81.7,162.7,81.4,162.6z M96,163.9
							l-1-0.2c-0.5-0.2-0.2-0.5-0.4-0.6C95.8,163.2,97.3,163.6,96,163.9z M70.5,128.7c0.2,0.7,0.8-0.9,0.7-2.3l0.9,0.8
							c-0.6,0-0.5,3-0.5,3.4C70.7,131,71,129.8,70.5,128.7z M72.1,60.2c0.7,0.5,1.8,0.6,3,0.7c1.1,0,2.3-0.1,2.7,0.1
							c-1.1,0-2.6,0.1-3.8,0.1C72.9,61,71.9,60.8,72.1,60.2z M79.1,59.7c1,0,1.3-0.1,1.2,0.5c0.5,0.2,1.4-0.1,1.9,0.1
							C80.2,60.8,80.3,60,79.1,59.7c-0.3,0-0.6,0-1,0C78.6,59.7,78.9,59.7,79.1,59.7z M70,93.3l-0.8,1.4l0.1,2.2L70,93.3z
							 M68.6,116.5c0.5-0.2,0.5,2.3,0.2,2.8c0.6-0.2,0.5-1.8,0.6-3.1c0-0.2,0.1-0.4,0.1-0.9c0,0.3-0.1,0.5-0.1,0.9
							c-0.1,0.5-0.4,0.2-0.7,0.2l-0.2-0.7l-0.2,1.8L68.6,116.5z M68,157.2c0.1,0.3,0.2,0.8,0.2,1.2s0.1,0.6,0.1,0.9
							c0,0.5-0.1,1-0.2,1.8c-0.1-0.2-0.2-0.8-0.2-1.6c0-0.4,0-0.8,0-1.2c0-0.2,0-0.4,0-0.6S67.9,157.4,68,157.2z M68.1,104.2
							c0.3,2.5,0.9-1.2,1.2,0.4l-0.1-1.3c0.6,2.1-0.7,1.5-0.5,3l-0.1-1c-0.6-0.8-0.4,1.5-0.8,1.7C67.5,105.9,68,103.2,68.1,104.2z
							 M67.6,160.7c0.3,1.8,0.1,2.7-0.1,3.5c-0.2,0.8-0.6,1.5-0.6,2.8C66.3,164.1,67.4,163.7,67.6,160.7z M66.3,119.9l-0.1-0.2
							l-0.3,2l0.1,0.2L66.3,119.9z"/>
						<path class="st2" d="M73.5,160.6c0,0.2,0.1,0.3,0.1,0.5c0.1,0,0.2,0,0.2,0c-0.1,0-0.2,0-0.3,0C73.5,161,73.5,160.8,73.5,160.6
							z"/>
						<path class="st2" d="M85.2,63.8c0.1-0.2,0.3-0.2,0.6-0.3C85.7,63.6,85.5,63.7,85.2,63.8z"/>
						<path class="st2" d="M90,64.2c0.1,0,0.1,0,0.2,0c0,0,0.1,0,0.2,0.1L90,64.2z"/>
						<path class="st2" d="M130.6,159c-1.2-0.3,0.8-0.5,1.6-0.8C131.5,158.5,131.4,159.1,130.6,159z"/>
						<path class="st2" d="M136.8,157.1c-0.5,0.1-1.2,0.3-1.9,0.7C135.3,157.5,135.9,157.4,136.8,157.1z"/>
						<path class="st2" d="M132.1,159.4c1.1-0.6,2-1.2,2.8-1.6C134.2,158.2,133.7,158.9,132.1,159.4z"/>
						<path class="st2" d="M147.4,143.6c-0.8,0.8-1.3,2.6-1.4,2.6c0.7-2,0.4-1.9-0.1-1.3c-0.4,0.6-1.3,1.7-1.5,1.7
							c0.3-0.5,0.6-0.9,0.9-1.2c0.2-0.3,0.4-0.5,0.6-0.7C146.3,144.4,146.7,144.2,147.4,143.6z"/>
						<path class="st2" d="M149.1,138.2c-0.1,0.4-0.2,0.8-0.2,1.2C148.9,139,149,138.6,149.1,138.2z"/>
						<path class="st2" d="M148.9,136.6c0.1-0.7,0.4-1.2,0.6-1.6c0.2-0.4,0.4-0.7,0.7-1c0.1,0.5,0.1,0.9,0,1.3
							c-0.1,0.4-0.2,0.7-0.3,1.1c-0.3,0.7-0.5,1.2-0.7,1.9C149.3,137.2,149.4,136.2,148.9,136.6z"/>
						<path class="st2" d="M127.8,104.3c-0.2,0.3-0.6,0.9-1,0.9l0.4-0.9c0.1-0.3,0.3-0.8,0.4-1.2l0.7-0.3c1.4-0.5,0.7-0.1-0.2,0.3
							C127.9,103.6,127.8,104.1,127.8,104.3z"/>
						<path class="st2" d="M138.2,97.4c0.5-0.8,0.5-1,0.4-1.2c-0.1-0.2-0.2-0.2,0.1-0.6l0.8,0.5c0,0-0.3,0.3-0.6,0.7
							C138.6,97.1,138.2,97.4,138.2,97.4z"/>
						<path class="st2" d="M141.6,101.2l-0.5,0.5c0.2-0.2,0.3-0.4,0.5-0.6V101.2z"/>
						<path class="st2" d="M140.5,89c0,0-0.3,0.3-0.6,0.5c-0.3,0.2-0.6,0.5-0.6,0.5C139.7,88.7,140.6,88.7,140.5,89z"/>
						<path class="st2" d="M140,82.2l-0.3,1c0,0,0-0.2,0-0.5c0-0.3,0.1-0.7,0-1.1c0-0.8-0.1-1.6-0.1-1.6s0.1,0.5,0.2,1.1
							C140,81.7,140.1,82.2,140,82.2z"/>
						<path class="st2" d="M138.2,74.6l-0.3-0.1c0,0,0-0.1-0.1-0.3c-0.1-0.2-0.2-0.4-0.3-0.7c-0.3-0.5-0.5-1-0.5-1s0.3,0.5,0.7,1
							c0.2,0.2,0.3,0.5,0.4,0.7C138.2,74.4,138.2,74.6,138.2,74.6z"/>
						<path class="st2" d="M73.1,86.5c-0.9,0.4-0.5-3.6-0.8-4.8C73.5,82.5,71.9,84.9,73.1,86.5z"/>
						<path class="st2" d="M73.1,158.6c0,0,0.1-0.7,0.1-1.4c0.1-1,0.1-1.9,0.1-1.9c0.2,1.5,0.2,1.7,0.1,1.9c0,0.1-0.1,0.3-0.1,0.4
							C73.2,157.8,73.2,158.1,73.1,158.6z"/>
					</g>
				</g>
			</g>
			<g>
				<g>
					<g>
						<path class="st2" d="M194.1,11.2c-0.3-0.2-0.8-0.6-1.2-0.8C194.1,11,194.6,11.4,194.1,11.2z"/>
						<path class="st2" d="M175.6,5.7c1.3,0.1,2.7,0.1,4.3,0.3c1.5,0.3,3.2,0.4,4.7,0.9c3.2,0.7,6.1,2.2,8.3,3.5
							c-2-1-5.8-2.5-9.5-3.2c-0.9-0.2-1.8-0.3-2.6-0.5c-0.4-0.1-0.8-0.1-1.2-0.2c-0.4-0.1-0.8-0.1-1.1-0.1C177,6.2,176,6,175.6,5.7z
							"/>
						<path class="st2" d="M193.9,13.1c0,0-0.3-0.2-0.8-0.5c-0.2-0.2-0.5-0.3-0.8-0.5s-0.6-0.4-1-0.5c-0.7-0.4-1.3-0.7-1.8-1
							c-0.2-0.1-0.5-0.2-0.6-0.3c-0.2-0.1-0.2-0.1-0.2-0.1c1.7,0.5,2.3,1,2.8,1.3C192.1,11.8,192.6,12.3,193.9,13.1z"/>
						<path class="st2" d="M192.5,11.1c0,0,0.1-0.1,0.2-0.1c0.1,0,0.2-0.1,0.2-0.1l2.6,2c0,0-0.8-0.5-1.5-0.9
							c-0.4-0.2-0.8-0.5-1.1-0.6C192.7,11.2,192.5,11.1,192.5,11.1z"/>
						<path class="st2" d="M88.8,217.6c0.6,0.2,1,0.4,0.7,0.6L88.8,217.6z"/>
						<path class="st2" d="M74.4,215.8c-1.3-0.1-2.2-0.1-3-0.1C72.3,215.7,73.1,215.7,74.4,215.8z"/>
						<path class="st2" d="M102,217.4l-2.6,0.1C100.2,217.4,101.1,217.4,102,217.4z"/>
						<path class="st2" d="M213.7,148.6c0.3-2.4,0.5-4.7,0.7-6.4C214.7,146.9,214.1,147.3,213.7,148.6z"/>
						<path class="st2" d="M15.5,198.1l-0.6-0.2C14.7,197.3,14.6,197,15.5,198.1z"/>
						<path class="st2" d="M70.9,210.5c0.1,0.2-0.1,0.3-0.3,0.4c-0.2,0-0.5-0.1-0.7-0.1L70.9,210.5z"/>
						<path class="st2" d="M112.1,216.8L112.1,216.8l2.2,0.2C113.2,217,112.5,216.9,112.1,216.8z"/>
						<path class="st2" d="M9,181.9c0-0.8,0.2-1.6,0.5-2.2C9.4,181.4,9.3,182.2,9,181.9z"/>
						<path class="st2" d="M71.1,215.7C71,215.7,71.1,215.7,71.1,215.7c0.1,0,0.3,0,0.4,0C71.3,215.7,71.2,215.7,71.1,215.7z"/>
						<path class="st2" d="M91.8,210.8c-1.1-0.1-2.1-0.1-3.3-0.2C89.9,210.6,91.1,210.7,91.8,210.8z"/>
						<path class="st2" d="M213.7,148.6c-0.1,0.7-0.2,1.3-0.2,2C213.4,149.7,213.5,149.1,213.7,148.6z"/>
						<path class="st2" d="M206.7,22.2c1.1,1.8,1.1,2.3,1.1,2.7C207.3,23.9,206.9,23,206.7,22.2z"/>
						<path class="st2" d="M170.6,4h0.8C171.1,4.1,170.8,4.1,170.6,4z"/>
						<path class="st2" d="M93.4,3.2c-0.4-0.1-0.7-0.2-1-0.3C93,2.8,93.4,3,93.4,3.2z"/>
						<path class="st2" d="M25.3,14.8c0.9-0.6,1.9-1.1,2.9-1.5c1.1-0.3,2.1-0.7,3.1-0.9c1.1-0.2,2.1-0.4,3.1-0.5s2-0.2,2.9-0.3
							L36,11.4c0,0,0.2,0,0.6,0c0.2,0,0.4,0,0.6,0s0.5,0,0.7,0c1,0,1.9,0.1,1.9,0.1l-0.1-0.6c1.8,0,3.7,0,5.6,0c1.9,0,3.8,0,5.6,0
							c3.5,0,6.5,0.1,7.8,0.5l-0.9-0.9l7.8,0.7l-4.4-0.6c8.7-0.2,22,0.5,23.8,0.5l-0.8-0.3c1.4-0.2,2.6,0,4,0.2l-1-0.6
							c13.1,0.1,16.7-1,31.4-0.5c4-0.1-2.2-0.2-2.3-0.4c2.2-0.4,7.3,0,8.4,0.2c-1.2-0.8-7.3-0.5-2.7-1.2c3.3,0.4-2.3-0.7,3.6-0.6
							l2.3,1c3.3-0.2,0.7-0.8,5.8-0.7c5.9,0.4-7.2,1.1,2.3,1.3c4.8-0.1,10-2.3,19.2-1.8c8-0.5-4.2-1.6,6.8-1.3l-7-0.7
							c1.8-0.3,0.7-0.8,5.4-0.6c1.5,0.4,4.5,0.9,7,0.9c-10.3-0.8,9-1.2-0.6-2.1h3.6c-0.4,0-0.6-0.1-0.3-0.2l4.8-0.1
							c-2.9-0.2-9.9-0.3-6.7-1.1l6.9-0.2c-1.8-0.6,0.7-0.8,0.3-1.2L155.1,0c0.8,0.3,3.7,0.6,2.6,0.9c-5.4,0.3-4.4-0.6-9.5-0.1
							l2.2,0.4c-0.4-0.2-1.1-0.2,0-0.3c1.8-0.3,2.6,0,2.6,0.3c-1.8,0.6-6.9,0.2-8.4-0.2c-6.6,0.1-1.4,1-2.8,1.2
							c-3.4-1-11,0-15.1-0.4l2.6,0.6c-5,0.7-9.5,0.1-12.4-0.1l1.1,0.5c-7-0.1-10.4,1.6-15.7-0.2l0.7,0.3c-2.9,0.2-7.2,0.5-9.9,0
							c-0.1,0.2-0.5,0.5-1.7,0.5c-1.5-0.7-4.5-0.2-8.7,0c2.8,0.2,1.9,1.1,4.8,1.3c-6.5,0.9-6-1-11.4-1c-3.3,0.5,2.9,0.5,3.7,0.8
							c-8.1-0.2-17,2.4-22.3,0.6l3.6-0.6c-3.4-0.4-5.2-0.4-4.8-0.2c1.1-0.1,1.4,0.1,1.8,0.3c-5.1,0.5-9,0.1-13-0.3
							c-1-0.1-2-0.2-3-0.3c-0.5,0-1-0.1-1.5-0.1s-1.1,0-1.7,0c-2.3-0.1-4.7,0.2-7.4,0.9c0.9,0.1,2.4,0,2.5,0.2
							c-1.2,0.2-2.1,0.4-2.9,0.5s-1.6,0-2.4,0.1S27,5.8,25.8,6.2c-0.6,0.1-1.2,0.4-1.9,0.8c-0.7,0.4-1.5,0.8-2.4,1.3
							c0,0,0.1,0,0.2-0.1c0.2,0,0.4-0.1,0.6-0.1c0.4-0.1,0.8-0.2,0.8-0.2c-1.2,0.7-2.2,1.2-2.9,1.5S19,9.8,19.1,9.6
							c0.1,0.2-0.1,0.4-0.5,0.8c-0.3,0.4-0.9,0.9-1.5,1.4s-1.5,1.1-2.2,1.9c-0.4,0.4-0.8,0.8-1.2,1.2c-0.2,0.2-0.4,0.4-0.7,0.6
							c-0.2,0.2-0.4,0.5-0.6,0.7c-1.7,1.8-3.3,3.9-4.4,6c-0.5,1.1-1.1,2-1.4,3c-0.3,1-0.5,1.8-0.6,2.5c-0.6,0.8-1.2,2-2,3.5
							c-0.3,0.7-0.6,1.6-0.9,2.4C3,34,2.8,34.5,2.7,34.9c-0.1,0.4-0.2,0.9-0.3,1.4C2.2,37.2,2,38.1,1.9,39c-0.1,0.9-0.1,1.8-0.2,2.6
							c-0.1,1.6,0,2.8,0.1,3.7c0.9,4.7,1-4.1,1.9-2.4c0,3.7-0.8,5.6-0.5,11C2.4,54,1.5,43.1,1,53.4l0.5,1.4c-0.1-1.1-0.2-2.5-0.1-4
							c0.5-3,0.6,1.8,0.8,2.5l-0.3,11C1,65.1,1.2,58.5,1,57.8C1.2,66.5,2.5,77,1.9,85.1l0.3-0.8c-0.8,10.3,1.7,6,0.2,14.3
							c0.2,4.3,1-1.6,1,5c0,1.9-0.3,0.8-0.5,0.4c-0.3,8.1,0.9,3.5,0,11l1-1.6c-0.7,8.9-2.3,18.1-1.9,25.8c0.7-0.5,0.7-5.2,1.2-7.1
							C1.9,142.5,3,157,2.3,166.6c-0.6-2.9-1.5,4.5-2-1.6c1-1.6,0.3-4.5,0.4-7.8c-1,2.7-0.8,8.2-0.5,13.3c0.1,2.5,0.3,5,0.3,6.9
							c0,2,0,3.5-0.4,4c0,0,0.2,0.4,0.4,0.7c0.2,0.4,0.5,0.7,0.5,0.7c0.1,0.8,0.1,2.2,0.1,3.1c0,0.9-0.1,1.2-0.5-0.1
							c0,0,0,0.2,0.1,0.5s0.2,0.7,0.4,1.3c0.3,1.1,0.7,2.5,1.3,3.8c0.3,0.7,0.6,1.3,0.8,2c0.3,0.6,0.6,1.2,0.9,1.7
							c0.5,1,0.9,1.6,0.9,1.6c-0.3-1-0.7-2.2-1.1-3.6c-0.2-0.7-0.3-1.4-0.5-2.1c-0.2-0.7-0.4-1.4-0.4-2.2c-0.6-2.9-0.7-5.6-1.3-6.8
							c0.2-0.8,0.3-0.9,0.4-0.7c0.1,0.2,0.2,0.8,0.4,1.4c0.3,1.2,0.7,2.3,0.9,0.9c0,0.9,0,1.7,0,2.3c0.1,0.6,0.2,1.1,0.3,1.6
							c0.2,0.9,0.4,1.4,0.7,1.9s0.7,1,1.1,1.8c0.2,0.4,0.4,0.9,0.7,1.5s0.6,1.3,1,2.1c-0.6-0.6-0.8-0.5-0.7,0.1s0.4,1.6,0.9,2.7
							c0.9,2.2,2.4,4.5,2.1,4.5c0.2,0.2,0.4,0.5,0.7,0.9c0.3,0.3,0.6,0.6,0.9,1c0.6,0.7,1.2,1.5,1.9,2.3c0.7,0.7,1.4,1.5,2,2.2
							s1.2,1.2,1.6,1.6c0.5,0.4,1,0.8,1.6,1.2s1.4,0.8,2.1,1.2c0.4,0.2,0.8,0.4,1.2,0.7c0.4,0.2,0.9,0.4,1.3,0.6
							c0.9,0.4,1.8,0.8,2.8,1.2c3.9,1.5,8.3,2.2,11.9,2.7c-0.7-0.1-1.5-0.3-2.2-0.5c-0.8-0.2-1.5-0.4-2.2-0.7
							c-1.3-0.5-2.2-1.1-2-1.4c1.6,0.7,3.4,1,4.9,1.2c0.7,0.1,1.4,0,1.9,0c0.5-0.1,0.9-0.2,1-0.4c-0.8-0.1-1.4-0.2-2-0.3
							c-0.6-0.1-1.1-0.2-1.6-0.3c-0.9-0.2-1.6-0.3-2.2-0.3c-1.1-0.2-1.6-0.1-2.1,0.1c-0.5,0.1-0.9,0.3-1.9,0.2
							c-0.5-0.1-1.1-0.3-1.9-0.6c-0.4-0.2-0.9-0.3-1.4-0.6c-0.5-0.2-1.1-0.6-1.7-0.9c-0.5-0.5-1.1-1-1.7-1.4
							c-0.6-0.5-1.2-1.1-1.9-1.6s-1.5-1.2-2.3-1.9c-0.4-0.4-0.9-0.7-1.4-1.1c-0.4-0.4-0.9-0.9-1.4-1.4c2.2,1.3,1.5,0.4,2.7,0.6
							c2,2.8,5.8,5.3,10.3,6.7c1.1,0.4,2.3,0.7,3.4,0.9c0.6,0.1,1.1,0.3,1.7,0.4l1.8,0.3c0.6,0.1,1.2,0.2,1.7,0.3
							c0.6,0,1.2,0.1,1.7,0.1c0.6,0.1,1.2,0.1,1.7,0.2c0.6,0.1,1.1,0.1,1.7,0.2c3.7,0.6,0.9,1.8,9.4,2l-7.2,0.6
							c8-0.5,1.9,0.6,8.5,0.8l-2.6-0.6c4-0.1,5.5,0,7.7,0.4l-3.4-1c2.2-0.1,6.2-0.2,6.2,0.3c0.6-0.2,0.8-0.4,0.8-0.6
							c0.4,0.2,1.4,0.3,4,0.2c-1.5-0.1-2.6,0-2.6-0.3c9.7,0.2,2.3-1,8.3-0.9c-1-0.2,0.8-0.5,2.9-0.6c-0.1,1.5,11.8,1.7,14.9,2.5l0,0
							l8.1,0.6c-1.6-0.1,0.1-0.5,2.5-0.7h-0.4c2.6-0.2-3.1-1.6,4.7-1.2l4.1,0.4c-0.7-0.1,0-0.3,0.4-0.4l4.2,0.4
							c6.4-1.4,12.1,0.8,19.6,0.1c-2.2,0.1-5.5,0-4.1-0.4c1.5-0.2,3.7,0,4.8,0.2l-0.4-0.2l14.3,0.9c-1.2-0.5-9.2-0.5-5.6-1.1
							c2.1-0.7,6.2,0,8.8,0.1c-0.3,0.4-5.1,0.7-0.3,1c0.6-0.2,5.1-0.6,3-0.9c4.9,0.4,12,0.6,16.4,1.4c1.4-0.2-0.8-0.3-1.5-0.4
							l-0.4,0.1c-3-0.2-0.5-1-6.3-0.6c-0.5-1.3,8.4-0.4,13.5-0.5l-8.1-0.9c1.7-0.2,3.5-0.4,5.3-0.5s3.7-0.1,5.7-0.3
							c0.5,0,1-0.1,1.5-0.1h0.7l0.7-0.1c1-0.1,2-0.3,3-0.4c1-0.2,2-0.5,2.9-0.7c1-0.2,1.9-0.6,2.9-0.9c3.8-1.3,7.5-3.3,10.6-5.7
							s5.7-5.3,7.7-8.2c-1.9,3.7-4.8,5.9-3.7,6.2c0.8-0.8,1.5-1.5,2.1-2.1c0.5-0.6,1-1.2,1.4-1.7s0.8-0.9,1.1-1.4
							c0.3-0.4,0.5-0.9,0.8-1.3c0.5-0.8,1.1-1.6,1.6-2.8c0.3-0.6,0.6-1.2,1-2s0.7-1.7,1.1-2.7l-0.3,0.7c0.1-0.6,0.3-1.2,0.5-1.7
							c0.2-0.6,0.3-1.2,0.5-1.9c0.2-0.6,0.3-1.3,0.5-1.9c0.2-0.6,0.3-1.3,0.4-1.9c0.6-2.5,0.5-4.9,0.2-6.4c-0.3,1-0.3,2.6-0.3,4
							c-0.1,1.4-0.3,2.5-0.9,2.5c0,0,0.1-0.7,0.3-1.7c0-0.3,0.1-0.5,0.1-0.8s0-0.6,0.1-0.9c0-0.6,0.1-1.3,0.1-2
							c0.1-1.4,0-2.7,0.1-3.7c0-1,0-1.7,0-1.7c-0.4,1.7-0.3,4.3-0.5,7.2v1.1c0,0.4-0.1,0.7-0.1,1.1c-0.1,0.7-0.2,1.4-0.3,2.1
							s-0.2,1.3-0.4,1.9c-0.2,0.6-0.3,1.2-0.5,1.7c-0.3,1.5,0.1,0,0.6-1.6c0.1-0.4,0.3-0.8,0.4-1.2c0.1-0.4,0.2-0.8,0.3-1.1
							c0.2-0.6,0.4-0.9,0.5-0.5c-0.1,0.6-0.2,1.3-0.3,1.9c-0.2,0.6-0.3,1.1-0.5,1.6c-0.3,1-0.5,2-0.9,2.8c-0.3,0.8-0.7,1.6-1,2.2
							c-0.3,0.7-0.7,1.2-1,1.8c-0.3,0.5-0.7,1-1,1.5s-0.7,0.9-1.1,1.3c-0.8,0.8-1.5,1.6-2.5,2.5c-1.2,1-0.7,0,0.2-1.4
							c0.4-0.7,0.9-1.6,1.3-2.4c0.5-0.8,0.7-1.5,1-1.9c0.5-0.6,1-1.3,1.4-2.1s0.8-1.6,1.3-2.5c0.7-1.8,1.5-3.8,1.8-6
							c0.1-0.5,0.2-1.1,0.3-1.7c0-0.6,0.1-1.1,0.1-1.7c0.1-1.2,0.2-2.3,0.1-3.5c0-2.3-0.1-4.8-0.2-7.2l-0.9-5.4
							c0.8-4.9,2.3-2.8,2.1-11.6l-0.6,2.6c-0.2-1.9-0.3-3.2-0.3-4.1c-0.5,3.8-1,7.8-1.5,11.3c-1.3-5,0.6-14.3,0.9-21.7
							c-0.2,0.4-0.2,2.9-0.6,3.7c-0.3-11,1.2-22.4,1.5-30.9c-0.6-3.6-0.4,7-1.2,5.3c0.3-4.4-0.4-9.5,0.4-10.7
							c-1.1,1.9-0.1-10.2-1.1-1.7c-0.5-16,0.5-33.7,1.2-49.9c-0.3,0.8-0.6,0.8-0.8,0.1c0,5.5-0.3,13.5-1.1,16.6
							c-0.6-3.6,0.8-8.5,0.4-9.6c-0.2,1.1-0.2,4.7-0.8,4.8c-0.6-4.7,0.3-7.3,0.4-10.6l0.3,1.8c0.8-10.3,2-5.7,1.7-16.6
							c-0.8-4-0.5,0-1.4,0.1c0.1-0.7,0-1.6,0-2.8c-0.1-0.6-0.1-1.2-0.2-1.8c-0.1-0.6-0.2-1.3-0.4-2c-0.2-1.3-0.6-2.6-0.8-3.8
							c-0.2-1.2-0.5-2.1-0.5-2.8c0,0,0.1,0.4,0.4,1c0.2,0.6,0.4,1.4,0.7,2.2c0.2,0.8,0.4,1.6,0.6,2.2c0.1,0.6,0.2,1,0.2,1
							c-0.5-4.6-2.2-8.7-3.5-11.6c0,0.4,0,0.7,0.3,1.6c-1.4-3.4-4.2-7.2-5.2-8.9l-1.4-0.1c0.4,0.3,1,0.9,1.7,1.5
							c0.4,0.3,0.7,0.7,1,1.1c0.3,0.4,0.6,0.8,0.9,1.2c0.6,0.8,1.1,1.7,1.5,2.4s0.6,1.3,0.6,1.6c-0.3,0-0.6-0.4-1.1-1
							s-0.9-1.4-1.5-2.2s-1.2-1.8-1.9-2.5c-0.7-0.8-1.3-1.5-1.8-2c2.1,2.3,3.4,4.3,4.3,6c0.4,0.9,0.8,1.6,1.1,2.4
							c0.3,0.8,0.5,1.5,0.8,2.1c0.1,0.3,0.2,0.7,0.4,1c0.1,0.3,0.2,0.7,0.3,1c0.2,0.7,0.4,1.4,0.7,2.2c0.4,1.6,0.9,3.4,1.4,6v-1.8
							c0.2,0.8,0.4,1.6,0.5,2.4c0.1,0.8,0.1,1.6,0.2,2.4c0.1,1.6,0,3.3-0.1,5c-0.2,3.3-0.5,6.5-0.5,9.5c-0.2-1.7-0.5-2-0.7-1.2
							c0.7,13.1,0.2,26,0.6,40.9l-0.9,4.5l0.7,0.3c0.3,7.3-1,1.6-0.9,6.3c0-1.8,0.1-1.5,0.3-1.8c-0.8,8.5,0.6,4.7,0.4,9.5
							c0.7-2.3,0.3-9.2,1.2-7c-0.8,8.5-0.3,21.6-2,22.8c0.6,15.7-0.3,35.2-0.5,48.3c0.2,1.6,0.3-1,0.5-0.4c-0.5,2.4-0.7,6.3-1.6,9.6
							c-0.2,0.8-0.5,1.6-0.7,2.3c-0.1,0.4-0.2,0.7-0.3,1s-0.3,0.6-0.4,0.8c-0.5,1-0.8,1.7-1,1.6c-0.4,1.1-0.7,1.8-0.8,2.5
							c-0.1,0.6-0.2,1.1-0.3,1.4c-2.1,2.3-4.7,5-7.9,7.3c0,0,0.2-0.1,0.4-0.2c0.2-0.2,0.6-0.3,0.8-0.5c0.6-0.4,1.1-0.9,1.1-0.9
							l-0.2,0.3c0,0-0.2,0.2-0.5,0.4s-0.7,0.5-1.1,0.8c-0.9,0.5-1.7,1.1-1.7,1.1l0.1-0.1c-4,2.8-8.9,4.8-13.9,5.4
							c-0.6,0.1-1.3,0.2-1.9,0.3c-0.6,0-1.3,0-1.9,0c-0.6,0-1.2,0-1.9,0s-1.3-0.1-2-0.1c-2.7-0.1-5.2-0.3-7.6-0.5
							c5.5,0.6-1.4,1,1.2,1.4c-4.9-1.3-16.6-1.4-26.1-1.2c0,0.3-0.7,0.5,0.4,0.7l-5.5-0.6l0.7,0.3c-9.9,0.2-20.6-1.3-27.1-0.6
							c4,0.2,4,0.4,4.4,0.9c-7.1,0-13.7,0-22-0.5c0.4,0.1,0.7,0.2,0.7,0.3c-2.2,0.1-4.8-0.2-7-0.4l-0.3,0.7c-4.2-0.3-9.7,0-14.7-0.5
							c-2,0.7-12.1-0.7-17.9-0.4c-2.2-0.2,4.8,0.8-1.4,0.7c-0.9-1.5-8.1,0-8.6-1.6c0,0-0.3,0-0.8,0.1c-0.3,0-0.6,0.1-0.9,0.1
							s-0.7,0.1-0.9,0.1c-1.2,0.1-2.4,0.2-2.4,0.2s-0.2-0.2-0.5-0.4c-0.2-0.2-0.5-0.5-0.5-0.5c-1,0.2-1.9,0.2-2.8,0.1
							c-0.8-0.2-1.6-0.5-2.4-0.9c-0.8-0.4-1.6-0.9-2.6-1.4c-0.5-0.2-1-0.5-1.6-0.8c-0.6-0.3-1.2-0.5-1.9-0.8
							c0.2,0.3,0.7,0.6,0.4,0.6c-0.4-0.2-0.9-0.6-1.5-1c-0.5-0.4-1-0.7-1.4-1s-0.5-0.5-0.5-0.6c0.1,0,0.4,0.2,1.2,0.5
							c-0.2-0.1-0.4-0.2-0.6-0.3c-0.2-0.2-0.4-0.3-0.6-0.5c-0.5-0.4-1-0.7-1.5-1.2c-0.5-0.4-1-0.9-1.5-1.4s-1-0.9-1.4-1.4
							c-1.7-1.8-2.7-2.9-1.4-0.8c0.1-0.3,0.8,0.5,1.6,1.5c0.4,0.5,1,1,1.4,1.5c0.5,0.5,0.9,1,1.3,1.3c-0.1,0.1-0.5,0-0.9-0.3
							s-1-0.7-1.5-1.1c-0.3-0.2-0.6-0.4-0.8-0.7c-0.3-0.2-0.5-0.5-0.8-0.7c-0.5-0.4-0.9-0.7-1.3-0.8c0-0.1-0.1-0.3-0.2-0.5
							c-0.1-0.2-0.2-0.5-0.3-0.7l-0.8-0.3c-0.8-1.3-1.5-2.7-2.2-4c-0.3-0.7-0.6-1.4-0.9-2c-0.2-0.3-0.3-0.7-0.5-1
							c-0.1-0.3-0.2-0.7-0.3-1c-0.2-0.7-0.4-1.3-0.7-2c-0.1-0.7-0.3-1.3-0.4-2c-0.3-1.3-0.2-2.5-0.2-3.6c-0.1-0.1-0.3-0.4-0.4-1
							c-0.1-0.5-0.1-1.3-0.2-2.4l0.8-0.1c0,0,0-0.3,0-1s0-1.6,0-2.5c0-1.8,0-3.7,0-3.7l-1.2,3.4c-0.2-8,1.2-13.7,1.4-20.3
							c-1.4-1.7,0.5-12.9-0.7-18.6l-0.4,5.1c0.3-11-0.6-12.8-0.1-23c0.5,8.7,0.2,8.8,1.4,21.4c-0.6-12.7,0.8-22,0-33.7
							c-0.3,0.8-0.6,3.7-0.9,0.9c0.7-2.3,0-11,0.8-9.3c-0.3-3.6-1.1-4.2-1.2-6.5l1-12.1L9,79.2c-1-10.3-0.7-20-0.2-29.6L9,46
							l0.2-1.9v-0.9c0-0.3,0-0.6,0.1-0.8c0.1-1,0.2-2.1,0.3-3.1c0.2-1,0.4-2,0.6-3c1-4,2.8-7.9,5.2-11.6h-0.6c0,0,0.8-0.8,1.6-1.6
							c0.4-0.4,0.9-0.7,1.2-1s0.5-0.4,0.5-0.4c-1.3,1.1-1.2,0.8-0.7,0c0.2-0.4,0.5-0.8,0.8-1.2s0.5-0.7,0.5-0.8c0,0,0.6-0.4,1.4-1.1
							c0.4-0.4,1-0.6,1.5-1c0.6-0.3,1.1-0.8,1.8-1.1c0.6-0.3,1.3-0.6,1.9-0.9c0.6-0.3,1.2-0.5,1.7-0.7s0.9-0.3,1.2-0.5
							c0.3-0.1,0.5-0.2,0.5-0.2C28.7,13.9,27.8,13.4,25.3,14.8z M8.3,178.2l0.1,2.8c0.1,0.5,0.2,1.1,0.2,1.7c0,0-0.1-0.4-0.1-0.9
							c0-0.2-0.1-0.4-0.1-0.6s0-0.3,0-0.3C8.2,179.6,7.8,178.6,8.3,178.2z M209.4,137.7c0.4-1.5,0.1,2.2,0.2,3.2l0.1-5.1
							C209.5,135.1,209.5,136.9,209.4,137.7z M2.8,178.5c0,0-0.2-0.5-0.3-0.9c-0.1-0.4-0.3-0.9-0.3-0.9l0.4-2.2c0,0,0,1,0.1,2
							c0,0.5,0,1,0,1.4C2.8,178.2,2.8,178.5,2.8,178.5z M2.8,133.9l-0.3,4.4l-0.1-0.4l0.3-4.4L2.8,133.9z M7.3,84.3
							c0,0.3-0.1,0.5-0.1,0.9C7.2,84.9,7.3,84.6,7.3,84.3c0.4-3.4-0.6-4.8,0.4-7.6C8.6,80.2,7.7,82.4,7.3,84.3z M7.3,162.7
							c-0.1,1.5-0.2,2.2-0.1,3.3c0.3-0.8,0.8-3.8,1-1.6c-0.4,1.5-0.5,6.6-1.1,6.7C7.8,166.7,6.2,163.5,7.3,162.7z M72.9,211.3
							l-1.1,0.1l4.1,0.4L72.9,211.3z M91.9,211.9c2.3,0.7,8.1,0.6,12.1,0.8c1-0.6-3.1-1.3-7.8-1.3C90.7,210.8,94.2,212.4,91.9,211.9
							z M6.2,128.4l-0.5,1.1l-0.1-1.1l-0.3,4.4c-0.7-5.8,0.6-9.9,0.8-12.9C6.1,122.6,4.9,129.7,6.2,128.4z M132.6,212.3
							c4.1,0.4,11.4,1,10.7,1.5c0.3-1-5.6-1.4-7.5-1.4C134.8,212.4,134,212.4,132.6,212.3z M132.3,214.1c-5.9-0.4-6.3-0.9-10.8-1.8
							c5.8-0.4,7.4,0.8,6.7,1.3c4.1,0.4,3.3-0.2,5.4-0.3L132.3,214.1z M126.2,211.4l-2.4,0.1c-2.8,0.4-3.4,1.5-7.4,0.4l7.4-0.4
							C124.5,211.4,125.2,211.4,126.2,211.4z M175.8,211.4c0,0-0.1,0-0.4,0c-0.2,0-0.5-0.1-0.8-0.1c-0.6-0.1-1.2-0.2-1.2-0.2
							c1.2,0,1.9,0.1,2.2,0.1C175.9,211.3,175.9,211.3,175.8,211.4l1.9,0.2c-2.4,0.3-3.1,0.3-3,0.2
							C174.7,211.7,175.5,211.6,175.8,211.4z M138,211.7l-7-0.1C131.4,212,135.8,211.8,138,211.7z M174.2,212.3
							c-2.9,0.1-10.6,0.2-9.5,0.1C165.4,211.9,172.4,212,174.2,212.3z M211.4,83v4.4l-0.7-2.1L211.4,83z M211.9,134.5l-0.3-1.1
							l0.1-2.6L211.9,134.5z M211.7,181.9c-0.1-0.2-0.3-0.1-0.5,0.2c-0.2,0.7-0.3,1.3-0.5,1.6c0.1-0.6,0.3-1.2,0.5-1.6
							c0.1-0.5,0.2-1,0.2-1.5s0.1-1.1,0.1-1.6c0-1.1,0-2.1-0.1-2.8c-0.2,0.4-0.2,1.3-0.3,2.3c-0.1,0.9-0.2,1.9-0.3,2.4
							c-0.2-1.1,0-2.4,0-3.9c0.1-1.5,0.2-3,0.3-4.3c0.2-2.6,0.2-4.4-0.9-3c0.3-1.8,0.9-8.1,1.3-6c-0.1,2.5,0,6.1,0.1,9.5
							c0.1,1.7,0.1,3.4,0.2,4.9C211.6,179.7,211.7,181,211.7,181.9c0.1,0.2,0.1,0.6,0,1.5C211.7,183.2,211.7,182.6,211.7,181.9z
							 M164.9,214.7c-1.8-0.1-2.6-0.1-2.9-0.2c-1.5-0.2-2.7-0.4-2.3-0.7c3.8,0.3,1.4,0.5,2.3,0.7C163,214.6,164,214.7,164.9,214.7z
							 M153.6,214.8l5.9,0.4l-3-0.5l8.9,0.9C160.3,216.2,154.4,215.4,153.6,214.8z M151.6,215.3l-1.2-0.6l1.9,0.6H151.6l0.3,0.1
							l-9.9-0.3L151.6,215.3z M50.5,214.2c-3.7,1.9,8.8,1.4,10.7,2.3c0.4-0.6,4.2-1.6-5.5-1.6c8.4-0.6,5.2,1.2,10.2-0.4
							c-4,0.1-8.8-0.4-9.5-0.4l4.7-0.1C58.4,212.8,53.8,214.5,50.5,214.2z M7.6,193.9c0,0-0.2-0.4-0.4-0.9c-0.1-0.3-0.3-0.6-0.4-0.9
							c-0.1-0.3-0.3-0.7-0.4-1.1c-0.3-0.7-0.5-1.5-0.7-2c-0.1-0.3-0.2-0.5-0.2-0.7S5.4,188,5.4,188s0,0.1,0.1,0.2
							c0,0.2,0.1,0.4,0.2,0.6c0.2,0.5,0.4,1.2,0.6,1.9c0.2,0.7,0.5,1.4,0.7,1.9s0.4,0.8,0.4,0.8L7.6,193.9z M3.4,41.3
							c-0.1,0.1-0.2-0.3-0.3-1.1c0-0.4-0.1-0.8-0.1-1.3s0.1-1,0.1-1.6C3.2,35,4,32.6,4.6,31.7C3.4,35.7,3.1,40.2,3.4,41.3z
							 M50.2,5.7l-7-0.4c1.3-1,6.2,0,9.5-0.1C53.9,5.7,51.3,5.3,50.2,5.7z M95.6,5.7l2.2,0.2l-2.3-1L95.6,5.7z M92.5,4.3
							c1.4-0.5-3.4-0.7-4.5-0.6L92.5,4.3z M133.4,3.5l-2.9,0.1l2.6,0.9L133.4,3.5z M128.7,4.5c-0.7-0.6-0.4-1.5-7.1-1.1
							c-0.2,0.7,1.6,0.7-0.9,1.5c2.2,0.2,4-0.1,5.1-0.2c-1.5-0.1-3.3,0.2-3.7-0.3C124.6,4.2,127.2,4.3,128.7,4.5
							c0.2,0.2,0.6,0.4,1.5,0.5C130.2,4.8,129.6,4.6,128.7,4.5z M104.5,5.2c-0.9,0.1-1.6,0.2-2,0.3l-0.4-0.2
							C103,5,103.8,5.1,104.5,5.2c1-0.1,2.1-0.2,3.3-0.2c0.7-0.6-3.8-1-5-1.3c2.2,0.2,4.1,0.7,7,0.4c-0.4-0.2,0-0.3-1.8-0.3l4-0.1
							c4.6,0.8,0.2,1-4.1,1.3c-0.1,0.1-0.5,0.3-1.3,0.4C105.8,5.5,105.2,5.3,104.5,5.2z M136.6,6.5l-2.2-0.2
							c-1.1-0.2-0.4-0.5-0.8-0.6C136.1,5.8,139.5,6.2,136.6,6.5z M11,22.1c0.4-0.6-0.1-0.4-0.9,0.4c-0.3,0.4-0.8,0.9-1.2,1.6
							c-0.4,0.6-0.9,1.3-1.2,2.1c0,0,0-0.5,0-1s0.1-1,0.1-1c0.3,0.1,1.2-1.3,2.3-2.7c0.5-0.7,1.1-1.4,1.5-2s0.9-1,1-1.1
							c0.7-0.2,0.5,0.2,0.1,0.8C12.2,19.9,11.5,21,11,22.1z M4.5,172.9c-0.5,0.6-0.7,3-0.6,5.4c0.1,1.2,0.1,2.5,0.2,3.5
							c0.2,1,0.3,1.9,0.3,2.4c-0.5-2.1-0.9-5.7-0.8-8.4C3.7,173.2,3.9,171.4,4.5,172.9z M6.2,187c0.1,0.5,0.3,1,0.3,1.3
							c0.1,0.4,0.2,0.6,0.3,0.8c0.1,0.4,0,0.5-0.3,0.5c0.1,0.5,0.3,1.2,0.6,1.9s0.6,1.3,0.8,1.8c-0.3-0.5-0.5-0.9-0.7-1.3
							c-0.2-0.4-0.3-0.7-0.4-1c-0.2-0.6-0.3-1.1-0.3-1.5s-0.1-0.8-0.1-1.2C6.3,188,6.3,187.6,6.2,187c-0.1-0.6-0.3-1.2-0.5-2
							C5.9,185.8,6.1,186.4,6.2,187z M5,98.2l0.8-3l-0.1-4.7L5,98.2z M6.4,47.2c-0.2,0.2-0.3-1.1-0.4-2.5c0-0.7,0-1.5,0-2.2
							c0.1-0.6,0.1-1.1,0.2-1.4c-0.3,0.2-0.5,1.1-0.6,2.4c-0.1,1.3-0.1,3-0.1,4.4c0,0.4-0.1,1-0.1,1.9c0-0.6,0.1-1.2,0.1-1.9
							c0.1-1.1,0.4-0.3,0.7-0.3L6.4,49l0.2-4L6.4,47.2z M68.1,9.3c3.3-0.5,3.6-0.3,5.8-0.1C73.2,9.4,70.3,9.4,68.1,9.3z M6.9,74.3
							c-0.3-5.5-0.9,2.6-1.2-1l0.1,2.9c-0.6-4.7,0.7-3.3,0.5-6.6l0.1,2.2C7,73.5,6.8,68.4,7.2,68C7.5,70.5,7,76.4,6.9,74.3z
							 M73.3,9.6c5.4-0.6,4.5,0.6,7.8,0.7C76.7,10.9,77.3,9.8,73.3,9.6z M8.8,40.1l0.1,0.3c0,0,0.1-1,0.4-1.9
							c0.2-0.9,0.4-1.8,0.4-1.8l-0.1-0.3c0,0-0.2,0.9-0.4,1.9c-0.1,0.5-0.2,0.9-0.3,1.3C8.8,39.9,8.8,40.1,8.8,40.1z"/>
						<path class="st2" d="M80,3.7c1.3-0.1,2.2-0.1,3,0C82,3.7,81,3.7,80,3.7z"/>
						<path class="st2" d="M8.4,200.9c0.2,0,0.6,0.4,1,0.9C9.3,201.8,9,201.6,8.4,200.9z"/>
						<path class="st2" d="M16.1,209.4c0.1,0.1,0.2,0.2,0.4,0.3c0.1,0.1,0.2,0.2,0.3,0.3L16.1,209.4z"/>
						<path class="st2" d="M209.1,24.7c-0.3-1.2,0.1-0.7,0.5,0.3s1.1,2.6,1.4,3.5C210.2,26.6,209.4,26.2,209.1,24.7z"/>
						<path class="st2" d="M212.2,39c0-0.6,0-1.2,0-2c-0.1-0.8-0.1-1.7-0.3-2.6c0.1,0.3,0.2,0.6,0.2,0.9c0,0.3,0.1,0.7,0.1,1
							C212.2,37.1,212.2,37.9,212.2,39z"/>
						<path class="st2" d="M209.4,27.5c0.4,0.6,0.6,1.3,0.9,1.9c0.2,0.6,0.5,1.2,0.7,1.8c0.4,1.2,0.6,2.3,0.9,3.2
							c-0.3-0.9-0.5-1.7-0.9-2.8c-0.2-0.5-0.4-1.1-0.7-1.8C210,29.2,209.8,28.4,209.4,27.5z"/>
						<path class="st2" d="M212.6,77.7c0.4-2.3,0.2-6.6,0.2-6.6c0.4,9.5,0.8-1.9,1.2-2.7C213.8,74.3,213.3,74.4,212.6,77.7z"/>
						<path class="st2" d="M212.4,90.3c0-1,0-1.9-0.1-2.6C212.4,88.6,212.4,89.4,212.4,90.3z"/>
						<path class="st2" d="M212.8,93.8c-0.1,3.3-0.6,4.4-1,5.9c-0.4-4,0.4-6.5,0.6-9.5C212.4,92.6,212.3,94.9,212.8,93.8z"/>
						<path class="st2" d="M211,195.6c0.4-0.7,1.3-2.5,1.5-2.4c0,0,0,0.1-0.1,0.2c-0.1,0.1-0.2,0.4-0.3,0.6
							c-0.2,0.5-0.6,1.2-0.9,1.9c-0.2,0.3-0.3,0.7-0.5,1s-0.3,0.6-0.5,0.8c-0.3,0.5-0.5,0.8-0.5,0.8c-0.7,1-0.5,0.5-0.1-0.3
							c0.2-0.4,0.5-0.9,0.7-1.4C210.7,196.3,210.9,195.9,211,195.6z"/>
						<path class="st2" d="M195.7,210.4c-1,0.6-1.6,1-1.9,1.3c-0.4,0.3-0.5,0.4-0.6,0.5c-0.2,0.3-0.1,0.4-1.2,0.8l-0.2-1
							c0,0,1-0.4,2-0.7C194.7,210.9,195.7,210.4,195.7,210.4z"/>
						<path class="st2" d="M195,205l1-0.6c-0.4,0.3-0.7,0.5-1.1,0.8L195,205z"/>
						<path class="st2" d="M174.7,217.1c0,0,0.2,0.1,0.5,0.2c0.3,0.1,0.7,0.2,1.1,0.3c0.8,0.2,1.7,0.5,1.7,0.5c-1,0-1.8-0.1-2.3-0.2
							c-0.5-0.1-0.8-0.2-1-0.4C174.2,217.3,174.3,217.1,174.7,217.1z"/>
						<polygon class="st2" points="158,217.8 160.5,218.1 152.5,217.8 						"/>
						<polygon class="st2" points="137.8,217.3 137.1,217.5 131.6,217.2 						"/>
						<path class="st2" d="M1.9,113.2c0.9-0.8,0.5,8,0.8,10.5C1.5,121.9,3.1,116.7,1.9,113.2z"/>
						<path class="st2" d="M72.3,4.1l-8.4-0.2C70.5,3.5,65.8,3.9,72.3,4.1z"/>
					</g>
				</g>
			</g>
			<g>
				<g>
					<g>
						<path class="st2" d="M112.8,100.2c0.1,0,0.1,0,0.2,0C112.8,100.3,112.8,100.3,112.8,100.2z"/>
						<path class="st2" d="M114.8,99.5c-0.4,0.3-1.2,0.8-1.9,0.7c0.2-0.1,0.5-0.5,0.8-0.7C114.1,99.2,114.4,99.1,114.8,99.5z"/>
						<path class="st2" d="M112,98.6c0,0,0.7,0.1,0.6,0C112.5,99.1,112.3,98.6,112,98.6z"/>
						<polygon class="st2" points="112.6,99.4 112.7,99.8 112.3,99.6 						"/>
						<path class="st2" d="M92,85.2c-0.2,0.1-0.4,0.1-0.6,0.1L92,85.2z"/>
						<path class="st2" d="M93.8,83.4c0.1-0.2,0.1-0.3,0.1-0.4C93.9,83.1,93.9,83.2,93.8,83.4z"/>
						<path class="st2" d="M92.1,86.6L92,86.3C92.1,86.4,92.2,86.5,92.1,86.6z"/>
						<path class="st2" d="M96.5,103c0.1,0.3,0.3,0.5,0.4,0.7C96.1,104,96.4,103.4,96.5,103z"/>
						<path class="st2" d="M100.2,83.5l-0.2-0.3C100.1,83.3,100.2,83.4,100.2,83.5z"/>
						<path class="st2" d="M99.1,84.4c-0.2-0.1-0.3-0.1-0.4-0.1c0,0,0,0,0.1,0L99.1,84.4z"/>
						<path class="st2" d="M92.8,87.7L92.8,87.7l-0.2,0.2C92.6,87.9,92.6,87.8,92.8,87.7z"/>
						<path class="st2" d="M100.8,83.9c0.1,0.2,0.1,0.4,0.2,0.7C101,84.5,100.9,84.2,100.8,83.9z"/>
						<path class="st2" d="M93.9,83L93.9,83L93.9,83L93.9,83z"/>
						<path class="st2" d="M98.7,85.5c0.1-0.1,0.1-0.2,0.2-0.4C99,85.3,98.9,85.5,98.7,85.5z"/>
						<path class="st2" d="M96.5,103c0-0.1-0.1-0.2-0.1-0.2C96.5,102.8,96.5,102.9,96.5,103z"/>
						<path class="st2" d="M111.3,101.5c-0.2,0.1-0.3-0.1-0.4-0.4C111,101.2,111.2,101.3,111.3,101.5z"/>
						<path class="st2" d="M116.3,100.4L116.3,100.4L116.3,100.4z"/>
						<path class="st2" d="M121.6,91.9c0.1,0,0.2-0.1,0.3-0.1C121.9,91.9,121.8,91.9,121.6,91.9z"/>
						<path class="st2" d="M113.1,86.5c0.6,0-0.1,0.8-0.1,1l0.3-0.2l-0.2,0.4l0.5-0.2c-0.1,0.5,0.6,1-0.3,1.3l0.9-0.2
							c0,0-0.2,0.2-0.3,0.3c-0.2,0.1-0.3,0.3-0.3,0.3s0.1-0.1,0.3-0.2c0.1-0.1,0.3-0.2,0.3-0.2c0.3,0.6-0.4,1.5-0.4,1.6h0.3
							c0.2,0.1-0.1,0.2-0.2,0.3h0.5c-0.1,0.5,0.1,0.8,0.2,1.2c0.1,0.4,0.2,0.8-0.2,1.2c0,0.3,0.2-0.1,0.5,0c0.3,0.3-0.2,0.6-0.4,0.5
							c0.8,0.2,0.7-0.4,1.2,0.2c-0.5,0.1,0.8,0.1,0.4,0.5c0,0-0.3-0.1-0.5-0.1c-0.3-0.1-0.5-0.1-0.5-0.1c0,0.3,0.7,0.4,0.4,0.7
							c-0.6,0.2-0.8-1-1.2-0.4c0,0.2,0.4,0.6,0.7,1.1c0.3,0.5,0.4,1,0,1.2c-0.1,0.9,1.5,0.7,0.6,1.4c0,0,0.2,0,0.5-0.1
							c0.3,0,0.5-0.1,0.5-0.1c0.1,0.3,0.6,0.6,0,0.8c-0.4-0.1-1-0.3-1.2-0.1c0.7-0.1,0.7,0.3,0.7,0.7s0,0.9,0.8,0.8l-0.4,0.3
							c0.1,0,0.1,0.1,0.2,0.1l-0.5,0.5c0.5-0.1,1.2-0.7,1.4,0.2l-0.7,0.8c0.6,0.3,0.4,0.7,0.7,1c0,0,0.2-0.1,0.5-0.2
							c0.3-0.1,0.7-0.3,1.1-0.5c0.8-0.4,1.6-0.9,1.6-0.9c-0.3-0.1-0.8,0.1-1-0.2c0.3-0.9,1-0.2,1.1-1.1h-0.6c0.2,0,0.3,0,0.2,0.2
							c0.1,0.4-0.3,0.3-0.5,0.1c-0.3-0.6,0.5-1,0.9-1c0.5-0.9-0.8-0.7-0.8-1c1.1,0.1,0.7-1.4,1.4-1.7l-0.7,0.1
							c-0.4-0.9,0.4-1.2,0.7-1.6H121c0.4-0.9-1.2-1.7,0.7-2h-0.4c-0.1-0.4-0.3-1,0.2-1.3c-0.2,0-0.5-0.1-0.5-0.3
							c0.7-0.1,0.2-0.6,0.1-1.1c-0.2,0.3-1.1,0.2-1.3,0.5c-0.9-0.8,1-0.6,1-1.3c-0.5-0.4-0.5,0.4-0.8,0.5c0.3-0.5-0.3-1-0.7-1.4
							c-0.4-0.4-0.6-0.7,0.2-1.2c0,0,0.2,0.1,0.3,0.2c0.2,0.1,0.3,0.2,0.3,0.2c0.3-0.5,0.3-0.7,0.1-0.6c0.1,0.1-0.1,0.2-0.2,0.3
							c-0.6-0.5-0.4-1-0.1-1.6c0.2-0.6,0.5-1.3,0.1-1.8c-0.3,0.2-0.3,0.4-0.6,0.6c-0.6-0.4,1.4-1.3,0.2-1.9l-0.1,0.1
							c-0.4-0.2,0-0.7,0.1-0.7c-0.7,0.4-0.9-0.1-1.3-0.5c-0.4-0.5-0.9-0.9-1.9-0.5c0.3-0.9-0.4-2.3-1-2.2c-1,0.4-0.1,1.1-0.8,1.7
							c-0.3-0.2,0-1.1-0.8-1.1c0.2-0.4,0.7-0.6,1.1-0.8c0.3-0.2,0.6-0.5,0-1.1l-0.4,0.3c0.2,0,0.4,0,0.6,0.2
							c0.1,0.6-0.5,0.4-0.7,0.5c0,0-0.1-0.1-0.2-0.1c-0.1-0.1-0.3-0.2-0.4-0.3c-0.3-0.2-0.6-0.4-0.6-0.4c0.2-0.9,1-0.4,1.2-0.5
							c-0.3-0.1-0.7-0.1-1-0.1c-0.3,0-0.7,0.1-1,0.2c-0.6,0.1-1.2,0.2-1.6-0.2v0.3c-1.1-1-0.9,1.5-1.7,0c-0.5,0.2,0.1,1-0.6,1
							c-0.2,0-0.1-0.3,0-0.5c-0.9-0.4-0.4,0.8-1.2,0l0.1,1c-0.9-0.7-1.9-2.4-2.8-2c0.1,0.7,0.6,0.7,0.8,1.2
							c-1.1-1.3-2.7-0.1-3.7-0.8c0.3-0.6-0.5-1.5,0.1-2c0.2,1,0.5,0.3,0.8,0.4c-0.3-1-0.9-0.8-1.4-0.5c-0.1,0.1-0.4,0.1-0.5,0.2
							c-0.2,0.1-0.4,0.1-0.5,0.1c-0.3,0-0.6-0.1-0.7-0.6L99.4,76c-0.2-0.1-1-0.7-0.7-0.9L97,75.6c0.4,0.3,1.1,0.7,1.6,1
							c0.5,0.3,0.9,0.4,1,0c0.6,0.8-0.5,0.5,0.1,1.4c-1.2-1.2-0.4,0.5-1.4,0.3c0-0.5-0.4-0.9-0.8-1.2c-0.4-0.3-1-0.5-1.1-0.8
							c-0.3,0.2-1.4-0.3-2-0.7c-0.4,0-0.8,0.1-1.3,0.3c-0.1,0-0.2,0.1-0.4,0.1h-0.2c-0.1,0-0.2,0-0.1,0.1c0,0.3,0,0.6-0.1,0.8
							c0.4-0.1,0.7-0.3,1.5,0.5c-0.3,0-0.3,0.2-0.3,0.4c0.1,0.2,0.3,0.6,0.6,1c0.4-0.1,0.4-0.2,0.3-0.4c-0.1-0.2-0.4-0.6-0.5-0.8
							c-0.4-0.5-0.8-1.1,0.4-0.6c1.2,0.9,1.7,1.1,2.5,1.4c0.1,0.5,0.3,0.7,0.7,1.4c-1-1-1.6-1-2-0.9c-0.1,0-0.2,0-0.3,0.1
							c0,0.2,0,0.3,0,0.4c0,0.3-0.1,0.4-0.3,0.5c-0.6,0-1.8-1.3-2-0.2c0,0-0.1-0.4-0.3-0.7c-0.1-0.4-0.3-0.8-0.3-0.8
							c0.5,1.7-0.6-0.1-0.8,0.9c0,0,0.2,0,0.3,0c0.2,0,0.3,0,0.3,0c0.1,0.7,0,0.9-0.4,1c0,0,0.2,0,0.5,0c0.2,0,0.5,0,0.5,0
							c0.1,0.4,0.2,1.1-0.3,0.8c0.2,0.2,0.4,0.3,0.6,0.4c-0.2,0-0.3,0.1-0.2,0.5c0.1-0.2,0-0.4,0.3-0.3c-0.2,1.3,1,0.7,0.9,1.5
							c0.2-0.1,0.5,0.2,0.6,0.5c-0.8-0.2-1.2,0.1-1.5,0.6c-0.3,0.4-0.6,1.1-1,1.2l0,0l-0.7,0.8c0.1-0.2,0.5,0,0.7,0.3l0,0
							c0.2,0.3,1.6-0.3,1.2,0.5l-0.4,0.4c0.1-0.1,0.3,0,0.4,0l-0.4,0.4c1.4,0.7-0.8,1.3-0.1,2.1c-0.1-0.2,0-0.6,0.4-0.4
							c0.2,0.2,0,0.4-0.2,0.5h0.2l-1,1.5c0.5-0.1,0.5-1,1.1-0.6c0.7,0.2,0,0.7-0.1,0.9c-0.4,0-0.7-0.5-1,0c0.2,0.1,0.6,0.6,0.9,0.3
							c-0.4,0.5-0.6,1.3-1.4,1.8c0.2,0.2,0.3-0.1,0.4-0.2H92c0.2-0.3,1,0,0.6-0.7c1.3-0.1,0.4,0.9,0.5,1.4l0.9-0.9
							c0.9,0.8,0.9,1.6,0.6,2.5c-0.3,0.9-0.8,2.1-0.8,3c-0.4-0.3,0-0.9-1-0.5c-0.5,1.5-0.3,1.2-0.5,2.6l0.1-0.1
							c0.3,0.2,0.1,0.6,0.1,1.1c-0.1,0.4-0.1,0.8,0.4,0.6c0.6-0.7-0.5-0.5,0.6-1.4l-0.1,1.5c0.7-1.1,0.1-1.5,0.2-2.2
							c-0.1-0.4-0.2,0.9-0.9,1.3c0-1.5,0.8-2.3,1.8-3.4c0.8-0.7,0.8,0.1,0.8,0.3c-1.1,1.2-1.7,2.9-1.3,3.7c0.1,0,0.2,0,0.3-0.1
							c0,0,0.4-0.2,0.7-0.4c0.3-0.2,0.7-0.4,0.7-0.4c-0.2,0.8-1.7,2.3-0.3,2.1c0,0,0-0.2,0-0.3c0-0.2,0.1-0.3,0.1-0.3
							c0.4-0.2,0.6-0.3,0.8-0.3c-0.2-0.5-0.2-1-0.1-1.5c0.8-0.7,1-0.5,1.1-0.1s0.3,0.9,0.6,1c0-0.2-0.2-0.2-0.1-0.6
							c0.7-0.2,1.1,0.2,1.6,0.5c0.5,0.4,1,0.8,1.6,0.9c0.5-0.6-0.8-0.4-0.4-1.2c0.5,0.3,1.1-0.4,1.2,0.4c-0.1-1,1.2,0,0.3-1
							c1.7-0.5,3.6,0.6,5.4,1.1c-0.1-0.3-0.1-0.6-0.1-0.8c-0.6,0.1-1.5-0.2-1.8-1c0.4-0.6,0.9,0.7,1,0.4c-0.2-0.3-0.6-0.2-0.6-0.8
							c0.5-0.7,0.8,0.2,1.1,0.3l-0.2,0.3c1.1,0.7,0.8,1.9,1.9,1.5c0.3-0.7-0.1-0.6-0.2-1.4c0.3,0.3,1-0.8,1.4,0.1l-0.7,0.2
							c0.5,0.2,1,0,1.4,0.2c-0.1-0.2-0.2-0.3-0.3-0.4c0.5,0.2,0.9-0.1,1.3,0.4l-0.2-0.9c-0.1,0.5-0.8,0.7-1,0.3
							c-0.1-0.8,0.6-0.5,0.9-0.7c-0.7,0.1-1.1-0.2-1.4-0.5c-0.3-0.2-0.6-0.4-1.1,0l0.2,0.2c-0.6,0.8-1.4-0.3-2-0.2
							c0.2-0.2,0.2-0.5,0.1-0.7c-1,0.9-2.4,0.4-4,0.8l-0.5-0.9v0.7c-0.4,0.1-0.4-0.1-0.4-0.4s0-0.6-0.1-0.5c0.1,0,0.1,0.1,0.1,0.3
							c-0.5-0.8-0.3,0.6-0.7,0.4c0.1,0.7,0.7,0.3,0.4,1.2c-0.7-0.8-1.8-0.3-1.3-2c-0.5,0.3-1,0.3-1.3,0.1c-0.4-0.1-0.6-0.3-0.7-0.5
							c0.1-0.2,0.1-0.3,0.1-0.5c-0.3,0.2-0.2,0.2-0.5,0.4c0.5-0.5,0.3-0.5,0.1-0.6c-0.2,0-0.4-0.1,0.1-0.3c-0.2,0-0.9,0.3-1.1,0.3
							c0.4-0.4,0.6-0.7,0.7-0.9l-0.2,0.2h-0.1c0,0,0.1-0.1,0.2-0.2s0.2-0.2,0.2-0.2h0.1c0.1-0.1,0.1-0.3,0.1-0.4v-0.2l0.1-0.4
							c0.1-0.6,0.3-1.2,0.7-1.7c-0.6,0.6-1-0.1-1.4,0.1c1.3-0.5,1.4-1.8,1.2-2.8c-0.3,0-0.5-0.1-0.7,0l0.6-0.6l-0.3,0.1
							c-0.2-1.1,1.3-2.2,0.6-2.9c-0.2,0.4-0.4,0.4-0.9,0.5c0-0.8,0-1.5,0.5-2.4c-0.1,0-0.2,0.1-0.3,0.1c-0.1-0.1,0-0.2,0.1-0.4
							c0.1-0.1,0.2-0.3,0.3-0.3h-0.7c0.3-0.2,0-0.5,0.5-0.6c-0.4-0.1-0.2-0.3,0-0.3c0.2-0.1,0.5,0,0.3-0.2c0.2,0-0.8-0.3-0.7-0.5
							c0.7,0.4,0.7,0.4,0.8,0.3c0-0.1,0.1-0.1,0.9,0.5c0,0-0.1-0.2-0.3-0.3c-0.1-0.2-0.3-0.3-0.3-0.3l0.8,0.7
							c-0.7-0.7-0.6-0.7-0.2-0.4c0.3,0.3,0.7,0.7,0.6,0.5c-0.1-0.2-0.2-0.2-0.3-0.3c0.2,0.2,0.3,0.3,0.6,0.7c0,0,0.3,0.4-0.2-0.5
							c0.3,0.5,0,0.1-0.2-0.1c-0.5-0.7-0.2-0.4-0.5-1.1c0.1,0.1,0.1,0.2,0.2,0.3l-0.2-0.4c0.3,0.4,0.5,0.4,0.6,0.5s0.3,0.2,0.4,0.7
							c0-0.2,0-0.4,0-0.3l0.1,0.8c0,0,0,0,0.1,0c0,0-0.1-0.3-0.1-0.6s-0.1-0.6-0.1-0.6h0.1c0.1,0,0.2,0,0.3,0.1
							c0.2,0.1,0.4,0.3,0.6,0.4c0.4,0.3,0.7,0.7,1,0.8c0.2-1.4,1.3,0.5,1.9-0.7l-0.5-0.4c1.1,0.3,1.3-0.6,2.3-0.1
							c-0.9,0.4-0.9,0.2-2.1,1.3c1.3-0.6,2.1,0.8,3.2,0.1c0-0.3-0.3-0.6,0-0.9c0.2,0.7,1,0.1,0.7,0.9c0.3-0.3,0.5-1,0.7-1.1l0.8,1.2
							v-0.2c2.3-1.5,0.9,1.7,2.1,1.7l0.3-0.3c0,0-0.1,0.2-0.2,0.3c-0.1,0.2-0.2,0.3-0.2,0.3c0.2-0.4,0.5-0.3,0.8-0.5
							c0,0-0.1,0.3-0.2,0.6c-0.1,0.3-0.3,0.5-0.3,0.5C112.6,87.1,113.4,86.6,113.1,86.5z M100.9,83.5L100.9,83.5
							c-0.1,0-0.1,0-0.2-0.1L100.9,83.5C100.8,83.3,100.8,82.9,100.9,83.5z M100.1,98.7c-0.1,0.4-0.2,0.1-0.3,0.2l0.3,0.1
							C100.2,98.8,100.1,98.8,100.1,98.7z M100.1,78l0.2-0.6l0.3,0.4L100.1,78z M105.1,77.9l-0.5-0.3v-0.1L105.1,77.9L105.1,77.9z
							 M109.8,82.8C109.8,82.8,109.8,82.7,109.8,82.8L109.8,82.8c0.2,0.5,0.5-0.5,0.5,0.5C109.9,84.1,109.9,83.2,109.8,82.8z
							 M102,82.5c-0.2-0.1-0.2-0.2-0.4-0.1c0.1,0.3,0.4,0.8,0.2,1c-0.2-0.4-0.7-0.5-0.8-1C101.6,82.9,101.9,81.3,102,82.5z
							 M98.2,84.3L98.2,84.3c-0.1-0.1-0.5,0-0.5,0.1c0,0,0.1,0,0.3,0C98.1,84.3,98.2,84.3,98.2,84.3z M97.7,85.6
							c-0.7,0.2-0.6,0.9-0.8,1.3c0.6,0.1,1.3-0.3,1.3-0.8C98.7,85.4,97.2,85.8,97.7,85.6z M105.6,81.4l-0.1-0.5l0.1-0.1l-0.4-0.3
							c0.6-0.7,1,0.6,1.3,0.8C106.2,81.3,105.5,80,105.6,81.4z M97.3,89.9c-0.4,0.4-1,1.2-1.5,1.2c1,0,1.4-0.6,1.4-0.8
							C97.1,90.2,97.2,90.1,97.3,89.9z M95.5,89.9c0.4-0.6,0.9-0.7,1.8-1.2c0.4,0.6-0.8,0.8-1.3,0.7c-0.4,0.4,0.2,0.4,0.3,0.6
							L95.5,89.9z M98.2,89.2l-0.1-0.3c-0.4-0.3-1.5-0.4-0.4-0.8l0.4,0.8C98.1,89.1,98.2,89.1,98.2,89.2z M98.1,94.6l0.3-0.3
							C98.4,94.6,98.3,94.6,98.1,94.6l-0.3,0.2C97.5,94.2,97.8,94.5,98.1,94.6z M97.9,90.5l0.1-0.7C97.5,89.8,97.8,90.3,97.9,90.5z
							 M97.3,94.4c-0.1-0.3-0.2-1.1-0.1-1C97.7,93.5,97.6,94.2,97.3,94.4z M104.6,100.7h-0.5l0.2-0.7L104.6,100.7z M99.2,101.2
							l0.3-0.3l0.2,0.1L99.2,101.2z M95.4,100.1c0.1-0.1,0.3-0.3,0.5-0.4c0.1-0.1,0.1-0.2,0.3-0.4c0,0.1-0.1,0.2-0.3,0.4
							c-0.2,0.3-0.1,0.5,0.1,0.4c0.3-0.4,0.3-0.6,0.5-0.8c0.5-0.2-0.3,0.9-0.3,1.2c0.1,0,0.4-0.2,1.1-1c-0.2,0.3-0.2,0.9-0.7,1.3
							c-0.1,0-0.4,0-0.7,0C95.8,100.4,95.6,100.1,95.4,100.1c-0.1,0.1-0.2,0.1-0.2,0C95.2,100.1,95.3,100.1,95.4,100.1z M94.9,93.4
							c0.1-0.2,0.1-0.3,0.2-0.3c0.2-0.2,0.4-0.3,0.7-0.2c-0.3,0.4-0.5,0.1-0.7,0.2C95,93.2,94.9,93.3,94.9,93.4z M94.7,92.2
							l-0.4,0.6l0.5-0.3l-0.9,1C93.4,92.9,94.1,92.3,94.7,92.2z M94.3,92l0.6-0.1L94.3,92L94.3,92L94.3,92l0.2-1.1L94.3,92z
							 M95.4,81.3c-1.9-1.7-1.4,0.2-2.3,0c0.6,0.4,1.6,1.2,1.6,0.1c0.3,0.6,0,0.6-0.2,0.7c-0.2,0-0.3,0.1,0.5,0.7
							c-0.1-0.5,0.4-0.8,0.4-0.8l0.1,0.5c0.6,0.1,0.4-0.1,0.2-0.4C95.6,81.8,95.2,81.3,95.4,81.3z M98.6,79.1h0.7l-0.7-0.2V79.1z
							 M115,80.7c0.1-0.2,0.5-0.3,0.8-0.3c0.3,0.1,0.5,0.3,0.3,0.7C115.6,80.8,115.3,80.5,115,80.7z M118.8,86.8c0,0,0-0.2,0.1-0.4
							c0-0.2,0.1-0.4,0.1-0.4c1-0.2,0.2,0.7,0.4,1C118.9,87.2,119.2,86.8,118.8,86.8z M119,91.8l-0.2,0.2l1-0.1L119,91.8z
							 M120.4,91.7c0.4,0.2,0.7-0.3,0.7-0.5c0,0-0.2,0.1-0.3,0.3C120.6,91.5,120.4,91.7,120.4,91.7z M119.8,96.8l0.1-0.4
							c0,0-0.2,0-0.5,0c-0.2,0-0.5-0.1-0.5-0.1L119.8,96.8z M119.1,95.8c0.6,0.2,1.4,0.6,1.3-0.4c-0.6-0.3-0.7-0.1-1.3-0.6
							c-0.2,0.2-0.1,0.5-0.1,0.6c0.2-0.1,0-0.4,0.4-0.3C119.6,95.5,119.4,95.8,119.1,95.8c-0.2-0.1-0.4-0.1-0.6-0.1
							C118.7,95.9,118.9,95.9,119.1,95.8z M119.3,92.9c-0.1-0.1-0.1-0.2-0.2-0.3h0.2C119.5,92.8,119.4,92.8,119.3,92.9
							c0.1,0.1,0.1,0.3,0.1,0.4c0.5,0.2,1-0.2,1.4-0.3c-0.2,0.2-0.8,0.3-0.6,0.8c0.2,0,0.3,0.1,0.3-0.2v0.5c-0.9,0.3-1-0.3-1.1-0.8
							c-0.1,0-0.2-0.1-0.4-0.2C119,93,119.2,92.9,119.3,92.9z M116.9,95.7l0.3-0.1c0.3,0,0.4,0.2,0.6,0.2
							C117.6,96.1,117.1,96.2,116.9,95.7z M115.8,83c0.2,0,0.5-0.7,0.1-0.8l0.8-0.4c-0.4,0.4,0.1,0.9,0.1,1
							C116.3,83.3,116.4,82.9,115.8,83z M100.9,79.7c-0.2-1.1-1-0.4-1.3-0.7C100,78.7,101.2,78.5,100.9,79.7z M99.6,80.1
							c-0.2,0-0.2,0.1-0.4-0.5c-0.2-0.2-0.3,0.1-0.5-0.2C99.1,79,99.3,79.9,99.6,80.1c0.1,0,0.1,0,0.2,0
							C99.8,80.2,99.7,80.2,99.6,80.1z M108.8,80.3l0.2,0.8h0.5c0,0-0.2-0.2-0.3-0.4C109,80.5,108.8,80.3,108.8,80.3z M112.7,82.8
							c0.2-0.4,0.6-0.2,0.5,0.1c0.3-0.5,0-0.6-0.1-0.8c0-0.1,0-0.1-0.1-0.2c0,0.1,0.1,0.1,0.1,0.2C113.1,82.3,112.9,82.5,112.7,82.8
							L112.7,82.8l0.1,0.3L112.7,82.8z M115.6,89.1c0.5,0.2,0.3,0.3,0.2,0.5C115.5,89.5,115.4,89.3,115.6,89.1z M110.7,82.6
							c0.5-0.2,0-0.9,0.4-1.1h-0.3c0.6-0.5,0.1,0.7,0.4,0.6H111c-0.3,0.5,0.2,0.5,0.1,0.9C110.9,83.2,110.5,82.7,110.7,82.6z
							 M115.2,89.5c0.6,0.4-0.6,0.3-0.7,0.6C114,89.8,115.1,89.8,115.2,89.5z M111.8,85L111.8,85c-0.1,0.1-0.1,0.5-0.1,0.5l0.1-0.1
							V85z"/>
						<path class="st2" d="M121.2,90.1c0.1,0.2,0.1,0.3,0,0.4C121.2,90.4,121.2,90.3,121.2,90.1z"/>
						<path class="st2" d="M96.3,76.1c0.1,0.2,0,0.2,0,0.3C96.2,76.3,96.2,76.2,96.3,76.1z"/>
						<polygon class="st2" points="94.3,75.7 94.2,75.7 94.1,75.6 						"/>
						<path class="st2" d="M111.1,102.3c0.5,0.6-0.2,0.2-0.4,0.2C110.9,102.5,110.9,102,111.1,102.3z"/>
						<path class="st2" d="M109.3,101.4c0.2,0.2,0.3,0.3,0.6,0.3C109.7,101.8,109.6,101.8,109.3,101.4z"/>
						<path class="st2" d="M110.6,101.5c-0.3,0.2-0.5,0.3-0.8,0.3C110.1,101.7,110.2,101.4,110.6,101.5z"/>
						<path class="st2" d="M105.1,101.9c0.2,0.4,0.7,0.2,0.7,0.2c-1,0.4,0.2,0.8,0.3,1.2C105.5,103.2,105.5,102.6,105.1,101.9z"/>
						<path class="st2" d="M103.8,101.7c0.1,0,0.2,0,0.3-0.1C104,101.7,103.9,101.7,103.8,101.7z"/>
						<path class="st2" d="M103.4,102.1c-0.4-0.1-0.5-0.6-0.6-1c0.4-0.4,0.7,0.4,1,0.6C103.5,101.7,103.3,101.7,103.4,102.1z"/>
						<path class="st2" d="M92.1,100.6c-0.1,0.2-0.1,0.4-0.3,0.6v-0.9C91.9,99.9,92,100.5,92.1,100.6z"/>
						<path class="st2" d="M93.4,97.1c0-0.6-0.7-0.2-0.5-0.5l1-0.1c0,0-0.1,0.1-0.2,0.3C93.5,96.9,93.4,97.1,93.4,97.1z"/>
						<polygon class="st2" points="98.3,96.2 98.2,96.3 98.2,96.3 						"/>
						<path class="st2" d="M92.5,94.5l-1.1,0.3C91.7,94.4,92.5,94.4,92.5,94.5z"/>
						<polygon class="st2" points="91.8,92.7 91.4,92.9 91.7,92.1 						"/>
						<polygon class="st2" points="92.3,90.5 92,90.4 92.3,89.8 						"/>
						<path class="st2" d="M107.4,77.1c0,0.9-0.9,0.5-1.2,0.7C106.4,76.7,107,78.2,107.4,77.1z"/>
						<path class="st2" d="M120.8,89.2c0,0,0-0.3,0.1-0.5c0-0.3,0.1-0.5,0.1-0.5C121.3,88.9,120.9,88.3,120.8,89.2z"/>
					</g>
				</g>
			</g>
			<g>
				<g>
					<g>
						<path class="st2" d="M121.2,122.5c0-0.1,0-0.1-0.1-0.2C121.3,122.4,121.3,122.5,121.2,122.5z"/>
						<path class="st2" d="M119.5,120.6c0.6,0.3,1.5,1,1.7,1.8c-0.3-0.2-0.7-0.4-1.1-0.6C119.6,121.4,119.3,121.1,119.5,120.6z"/>
						<path class="st2" d="M120,123.8c0,0-0.1-0.2-0.1-0.4c-0.1-0.2-0.1-0.3-0.1-0.3C120.2,123.2,119.8,123.5,120,123.8z"/>
						<polygon class="st2" points="120.5,122.9 120.8,122.7 120.9,123.2 						"/>
						<path class="st2" d="M101.3,147.7c0.1,0.2,0.1,0.4,0.1,0.6L101.3,147.7z"/>
						<path class="st2" d="M99.1,145.9c-0.2-0.1-0.3-0.1-0.4-0.1C98.8,145.7,98.9,145.8,99.1,145.9z"/>
						<path class="st2" d="M103,147.5l-0.3,0.1C102.8,147.5,102.9,147.5,103,147.5z"/>
						<path class="st2" d="M123.5,140.5c0.4-0.1,0.8-0.3,1.1-0.4C124.5,140.9,123.9,140.6,123.5,140.5z"/>
						<path class="st2" d="M99.5,139l-0.3,0.1C99.4,139,99.5,138.9,99.5,139z"/>
						<path class="st2" d="M100.4,140.5c-0.1,0.2-0.1,0.3-0.2,0.4c0,0,0,0,0-0.1L100.4,140.5z"/>
						<path class="st2" d="M104.4,146.8L104.4,146.8l0.3,0.2C104.5,147.1,104.4,147,104.4,146.8z"/>
						<path class="st2" d="M100,137.6c0.2-0.1,0.4-0.2,0.7-0.3C100.5,137.5,100.2,137.7,100,137.6z"/>
						<path class="st2" d="M98.6,145.7L98.6,145.7C98.6,145.7,98.7,145.7,98.6,145.7L98.6,145.7z"/>
						<path class="st2" d="M101.7,140.9c-0.1-0.1-0.3-0.1-0.4-0.2C101.5,140.7,101.6,140.7,101.7,140.9z"/>
						<path class="st2" d="M123.5,140.5c-0.1,0-0.2,0.1-0.4,0.1C123.2,140.5,123.4,140.5,123.5,140.5z"/>
						<path class="st2" d="M123.1,123.8c0.2,0.2,0,0.4-0.2,0.6C123,124.2,123,124,123.1,123.8z"/>
						<path class="st2" d="M119.6,118.8L119.6,118.8C119.7,118.8,119.6,118.8,119.6,118.8z"/>
						<path class="st2" d="M108.9,116.1c0-0.1-0.1-0.2-0.1-0.3C108.9,115.7,108.9,115.9,108.9,116.1z"/>
						<path class="st2" d="M100.8,123.8c0-0.2,0.1-0.1,0.2,0.1v0.1c0,0,0,0.1,0.1,0.1c0.2,0.1,0.3,0.2,0.4,0.2l-0.2-0.4l0.6,0.3
							v-0.6c0.9,0.3,2.1-0.3,2.5,0.6l-0.1-0.9l1,0.7l-0.6-0.6c1.1-0.2,2.9,0.5,3.1,0.5l-0.1-0.3c0.2-0.2,0.3,0,0.5,0.2l-0.1-0.5
							c1.6,0.1,2.1-1,3.8-0.4c0.5-0.1-0.2-0.2-0.2-0.5c0.3-0.4,0.9,0,1,0.3c0-0.8-0.8-0.6-0.2-1.2c0.4,0.4-0.2-0.8,0.5-0.5l0.2,1
							c0.4-0.1,0.2-0.8,0.8-0.6c0.6,0.5-1,1,0.1,1.3c0.3,0,0.6-0.5,1.1-0.9c0.4-0.4,1-0.7,1.4-0.3c1.1-0.2,0-1.7,1.2-1
							c0,0-0.2-0.2-0.3-0.5c-0.2-0.2-0.3-0.5-0.3-0.5c0.3-0.2,0.3-0.7,0.9-0.3c0.1,0.4,0.2,1,0.5,1.2c-0.5-0.6-0.1-0.8,0.3-0.9
							c0.4-0.2,0.9-0.3,0.5-1.1l0.5,0.3c0-0.1,0-0.2,0.1-0.2l0.7,0.3c-0.3-0.4-1.3-1-0.5-1.4l1.1,0.4c0-0.6,0.5-0.6,0.7-1.1
							c0,0-0.2-0.2-0.5-0.4c-0.3-0.3-0.7-0.6-1-0.9c-0.4-0.3-0.8-0.6-1.1-0.8c-0.3-0.2-0.5-0.3-0.5-0.3c0,0.4,0.5,0.7,0.2,1
							c-1,0-0.6-0.8-1.5-0.6l0.3,0.5c0-0.2-0.1-0.3,0.1-0.3c0.4-0.2,0.4,0.2,0.3,0.4c-0.4,0.5-1.2-0.1-1.3-0.5
							c-1.1-0.1-0.4,1-0.7,1.1c-0.4-1-1.7-0.3-2.2-0.7l0.3,0.7c-0.8,0.7-1.4,0-1.8-0.2l0.1,0.5c-1-0.2-1.5,1.5-2.2-0.3l0.1,0.3
							c-0.4,0.1-1,0.5-1.3,0c0,0.2-0.1,0.5-0.2,0.5c-0.2-0.7-0.6-0.2-1.1,0c0.4,0.2,0.2,1.1,0.6,1.3c-0.8,0.9-0.8-1-1.5-1
							c-0.4,0.5,0.4,0.5,0.5,0.8c-1.1-0.5-2.2,2.1-2.9,0.3l0.5-0.6c-0.4-0.4-0.7-0.4-0.6-0.2c0.1-0.1,0.2,0.1,0.2,0.3
							c-1.3,0.9-2-1.3-3.4-1c0.2,0.3,0.3,0.4,0.3,0.7c-0.6,0.4-0.9-1.7-2.2-1l0.4,0.4c-0.4,0.2-0.9-0.3-0.9-0.4
							c0.2,0.8-0.5,0.7-1.3,0.8c-0.8,0-1.7,0.1-1.3,1.1c-0.7-0.5-1.9-1-2.8-1.1c-0.1,0.4-0.1,0.8,0.1,1.2c0.5,0.8,0.7,0.8,1,0.8
							c0.2,0,0.5,0,0.9,0.5c0,0.5-0.8,0.1-0.5,1.1c-0.4-0.3-0.9-1-1.2-1.5c-0.4-0.5-0.7-0.9-1-0.1l0.5,0.6c-0.1-0.2-0.2-0.6-0.1-0.8
							c0.5-0.2,0.6,0.7,0.8,1l-0.9,1.5c-0.9-0.2-0.7-1.4-0.9-1.7c0.1,0.9,0.5,2,0.8,2.9c0.3,0.9,0.5,1.7,0.2,2.3l0.3-0.1
							c-0.8,1.4,1.7,0.8,0.2,1.9c0.2,0.6,1-0.2,1,0.6c0,0.2-0.3,0.1-0.5,0.1c-0.3,1,0.9,0.5,0,1.4l1-0.2c-0.7,1.1-2.3,2.4-1.9,3.3
							c0.7-0.1,0.7-0.7,1.2-0.9c-1.3,1.3-0.2,3.2-0.9,4.5c-0.6-0.4-1.5,0.6-2-0.2c1-0.2,0.3-0.6,0.4-1c-2.1,0.7,1,2.9-0.8,3.1
							l0.7,0.2c-0.1,0.2-0.7,0.7-0.9,0.3c0,0,0,0.1,0.1,0.2c0,0.1,0.1,0.3,0.2,0.5c0.1,0.5,0.2,1.1,0.2,1.1c0.1-0.2,0.3-0.5,0.5-0.7
							l0.3-0.4c0.1-0.1,0.2-0.2,0.2-0.3c0.3-0.4,0.4-0.7,0-0.8c0.8-0.4,0.5,0.6,1.4,0.2c-1.2,0.9,0.5,0.5,0.3,1.6
							c-0.5-0.2-0.9,0.1-1.2,0.5c-0.3,0.4-0.5,1-0.8,1c0.2,0.4-0.3,1.5-0.7,2.2c0,0.5,0.1,1.1,0.3,1.7c0.2,0.6,0.3,1.3,0.1,2.1
							c0.3-0.8,0.8-1.9,1.5-2.4c-0.4,0.9-0.4,1.5,0.4,0.8c0.7-1.6,0.3-1.2-0.3-1c-0.5,0.3-1.1,0.6-0.6-0.7c0.9-1,1.1-1.6,1.4-2.5
							c0.5,0.1,0.7-0.1,1.4-0.3c-0.9,0.8-1,1.5-0.9,2c0.1,0.6,0.3,1-0.1,1.9c0,0,0,0.1,0.1,0.1c0,0.6-1.6,1.8-0.2,2l-1.8,0.6
							c2-0.5-0.1,0.6,1.1,0.8c0,0,0-0.2,0-0.3c0-0.2,0-0.3,0-0.3c0.9-0.1,1.1,0,1.2,0.4c0,0-0.1-1,0-1c0.5-0.1,1.3-0.2,1,0.3
							c0.2-0.2,0.4-0.4,0.5-0.6c0,0.2,0.1,0.3,0.6,0.2c-0.2-0.1-0.4,0-0.3-0.3c1.6,0.2,0.9-1,1.8-0.9c-0.1-0.2,0.3-0.5,0.6-0.6
							c-0.2,0.8,0.1,1.2,0.7,1.5c0.5,0.3,1.3,0.6,1.4,1l0,0l1.1,0.6c-0.2-0.1,0-0.5,0.3-0.7l0,0c0.3-0.2-0.4-1.6,0.6-1.2l0.5,0.4
							c-0.1-0.1,0-0.3,0-0.4l0.5,0.4c0.8-1.4,1.6,0.8,2.5,0.1c-0.3,0.1-0.7,0-0.5-0.4c0.2-0.2,0.5,0,0.6,0.2v-0.2l1.9,0.9
							c-0.2-0.5-1.2-0.5-0.7-1.1c0.3-0.7,0.8,0,1.2,0.1c0,0.4-0.7,0.8,0,1c0.1-0.2,0.7-0.6,0.4-0.9c0.7,0.4,1.6,0.6,2.3,1.3
							c0.2-0.2-0.1-0.3-0.2-0.4v0.1c-0.4-0.2-0.1-1-0.9-0.6c-0.1-1.3,1.1-0.4,1.8-0.6c0,0-0.3-0.2-0.6-0.4c-0.3-0.2-0.6-0.4-0.6-0.4
							c0.9-0.9,1.9-1,3-0.9c1.1,0.1,2.3,0.3,3.2,0c-0.4,0.6-1,0.3-0.6,1.3c1.4,0.1,1.1-0.1,2.5-0.4h-0.1c0.2-0.4,0.6-0.5,1-0.6
							c0.4-0.1,0.7-0.3,0.6-0.8c-0.5-0.3-0.6,1-1.1,0c0,0,0.3-0.2,0.7-0.4c0.3-0.2,0.7-0.4,0.7-0.4c-0.8-0.2-1.3,0.8-2,0.9
							c-0.4,0.3,0.8-0.3,1,0.5c-0.7,0.4-1.2,0.4-1.7,0.2c-0.5-0.1-0.9-0.5-1.3-0.9c-0.6-0.6,0.3-0.9,0.5-1c1.2,0.8,2.8,0.6,3.5-0.7
							c0,0,0-0.3,0-0.6s0-0.6,0-0.6c1,0.1,2,1.4,2.7,0.2c0,0-0.2,0-0.4,0c-0.2,0-0.4,0-0.4,0c0-0.4,0-0.6,0.1-0.7
							c-0.7,0.2-1.5,0.2-2.1,0.2c-0.2-0.7,0.1-0.9,0.7-1c0.6-0.2,1.4-0.3,1.7-0.7c-0.2,0-0.4,0.2-0.7,0.1c0.3-0.7,0.9-1.2,1.5-1.7
							s1.3-1,1.6-1.6c-0.4-0.6-0.7,0.8-1.4,0.3c0.5-0.5,0-1.3,0.8-1.3c-1.1,0,0.2-1.3-1.1-0.5c0-1,0.2-2,0.5-3.1
							c0.3-1.1,0.5-2.2,0.5-3.4c-0.3,0.2-0.6,0.3-0.8,0.2c0.2,0.7,0.1,1.8-0.7,2.2c-0.6-0.3,0.6-1.1,0.3-1.2
							c-0.2,0.3-0.2,0.7-0.7,0.8c-0.7-0.4,0.1-0.9,0.1-1.3l0.3,0.1c0.4-1.4,1.7-1.3,0.9-2.5c-0.8-0.2-0.5,0.2-1.3,0.5
							c0.2-0.4-1.1-1-0.5-1.7c0,0,0.1,0.2,0.2,0.3c0.1,0.2,0.2,0.4,0.2,0.4c0-0.6-0.3-1.1-0.3-1.6c-0.1,0.1-0.3,0.3-0.3,0.4
							c0-0.5-0.4-1-0.1-1.5l-0.8,0.4c0.5,0,1,0.6,0.7,1c-0.7,0.4-0.7-0.6-1-0.8c0.7,1.4-0.5,2.1,0.5,2.9l0.2-0.3
							c1,0.4,0.2,1.6,0.4,2.2c-0.2-0.1-0.6-0.1-0.7,0.1c0.5,0.6,0.7,1.3,0.8,1.9c0.1,0.7,0,1.4,0.1,2.3c0,0-0.2,0.1-0.5,0.2
							c-0.2,0.1-0.5,0.2-0.5,0.2l0.7,0.1c0.1,0.8-1,0-1,0.5c0-0.2,0.1-0.1,0.3-0.1c-1,0.7,0.5,0.6,0.1,1.1c0.8,0,0.5-0.9,1.4-0.5
							c-0.9,0.8-1.1,2.3-2.7,1.7c0,0.9-0.6,1.6-1.3,2.1c-0.7,0.5-1.4,0.7-1.9,0.9c0,0.3,0.2,0.1,0.3,0.4c-0.5-0.3-0.7,0.1-0.9,0.4
							c-0.2,0.3-0.4,0.6-0.6,0.2c-0.1,0.3,0,0.9,0,1.2c-0.5-0.3-0.9-0.4-1.4-0.4l0.4,0.2v0.1l-0.5-0.2v-0.1c-1.1,0-2.5,0.3-3.7-0.5
							c0.7,0.5-0.1,1,0.2,1.3c-0.6-1.3-2-1.3-3.2-1.2c0,0.3-0.1,0.5,0,0.7l-0.7-0.6l0.1,0.3c-1.3,0.2-2.7-1.3-3.5-0.6
							c0.5,0.2,0.5,0.4,0.6,0.9c-0.9,0-1.8,0-2.8-0.5c0.1,0.1,0.1,0.2,0.1,0.3c-0.1,0.1-0.3,0-0.4-0.1c-0.1-0.1-0.4-0.2-0.4-0.3v0.7
							c-0.2-0.3-0.6,0-0.8-0.5c-0.2,0.4-0.3,0.2-0.4,0c-0.1-0.2,0-0.5-0.3-0.3c0-0.2-0.3,0.8-0.6,0.7c0.5-0.7,0.5-0.7,0.4-0.8
							c-0.1,0-0.1-0.1,0.6-0.9l-0.2,0.2c-0.1,0.1-0.3,0.2-0.4,0.2l0.8-0.8c-0.7,0.6-0.6,0.4-0.3,0.1c0.3-0.3,0.7-0.6,0.5-0.5
							c-0.2,0.1-0.2,0.2-0.3,0.2c0.2-0.2,0.3-0.3,0.7-0.4c0,0,0.4-0.2-0.5,0.1c0.5-0.1,0.1,0-0.1,0.2c-0.7,0.3-0.4,0-1.1,0.2
							c0.1,0,0.2-0.1,0.3-0.1l-0.8,0.6c0.4-0.3,0.4-0.4,0.5-0.5l0,0v-0.1c0-0.1,0.1-0.2,0.1-0.3c0.1-0.2,0.2-0.4,0.5-0.5
							c-0.2,0-0.4-0.2-0.3-0.5h0.8v-0.9l-1.2,0.4c-0.2-1,1.2-1.8,1.4-2.6c-1.4-0.2,0.5-1.7-0.7-2.4l-0.4,0.7c0.3-1.4-0.6-1.7-0.1-3
							c0.5,1.1,0.2,1.1,1.4,2.8c-0.6-1.6,0.8-2.9,0-4.4c-0.3,0.1-0.6,0.5-0.9,0.1c0.7-0.3,0-1.4,0.8-1.2c-0.3-0.5-1.1-0.6-1.2-0.8
							c0,0,0.3-0.4,0.5-0.8c0.3-0.2,0.5-0.1,0.5-0.1h-0.2c-0.7-0.2-0.7-0.6-0.5-0.6c0.2-0.1,0.6,0.1,0.9,0.3
							c0.3,0.3,0.4,0.4,0.2,0.1l-0.3-0.5l0.4,0.7c-0.2-0.4-0.3-0.6-0.4-1c0,0,0.2,0.2,0.3,0.5c0.1,0.2,0.1,0.5,0.1,0.5
							C101,124.5,100.9,123.6,100.8,123.8z M99.5,137.1l-0.1,0.4c0,0.1,0.1,0.2,0,0.3v-0.3C99.4,137.3,99,137.1,99.5,137.1z
							 M120.7,137.1c0.4,0.1,0,0.3,0,0.4l0.4-0.4C120.8,136.9,120.7,137.1,120.7,137.1z M94.1,137.1l-0.6-0.2l0.4-0.3L94.1,137.1z
							 M94,131.3l-0.3,0.6h-0.1L94,131.3L94,131.3z M98.6,124.9L98.6,124.9C98.5,125,98.5,124.9,98.6,124.9c0.4-0.1-0.6-0.3,0.4-0.3
							C99.8,124.8,98.9,124.8,98.6,124.9z M98.6,135c-0.1,0.2-0.2,0.3-0.1,0.4c0.3-0.1,0.8-0.5,1-0.2c-0.4,0.2-0.5,0.9-1.1,0.9
							C99,135.6,97.4,135.1,98.6,135z M100.2,141.4L100.2,141.4c-0.1,0.1,0.1,0.5,0.1,0.5s0-0.1,0-0.3
							C100.2,141.5,100.2,141.4,100.2,141.4z M101.7,142c0.3,0.7,1,0.6,1.6,0.8c0.1-0.6-0.4-1.3-1-1.3
							C101.6,140.9,102,142.4,101.7,142z M97.5,130.6l-0.5,0.1l-0.1-0.1l-0.3,0.6c-0.7-0.8,0.6-1.3,0.8-1.7
							C97.4,129.8,96.1,130.8,97.5,130.6z M107,142.3c0.5,0.4,1.5,1,1.4,1.5c0-1-0.7-1.4-1-1.4C107.3,142.5,107.2,142.4,107,142.3z
							 M107,144.1c-0.8-0.4-0.8-0.9-1.4-1.8c0.8-0.4,1,0.8,0.9,1.3c0.5,0.4,0.4-0.2,0.7-0.3L107,144.1z M106.2,141.4l-0.3,0.1
							c-0.4,0.4-0.4,1.5-1,0.4l1-0.4C106,141.5,106.1,141.4,106.2,141.4z M112.4,141.4l-0.3-0.3
							C112.3,141.1,112.4,141.2,112.4,141.4l0.3,0.3C112,142,112.3,141.7,112.4,141.4z M107.7,141.7l-0.9-0.1
							C106.9,142.1,107.4,141.9,107.7,141.7z M112.3,142.3c-0.3,0.1-1.3,0.3-1.2,0.2C111.2,141.9,112,142,112.3,142.3z M124.1,131.7
							l-0.1,0.5l-0.7-0.3L124.1,131.7z M123,138l-0.2-0.3l0.2-0.3V138z M119.1,142.4c-0.1-0.1-0.2-0.3-0.3-0.4c-0.1,0-0.2,0-0.3-0.1
							c0.1,0,0.2,0,0.3,0.1c0.3,0,0.5-0.2,0.5-0.5c-0.3-0.2-0.5,0-0.7-0.1c0-0.5,0.5-0.3,0.9-0.4c0.4,0,0.5-0.1-0.3-0.9
							c0.3,0.1,1.2,0.1,1.4,0.5C120,140.9,119.3,141.7,119.1,142.4c0,0.1,0,0.2,0,0.3C119,142.6,119,142.5,119.1,142.4z
							 M111.2,144.7c-0.2,0-0.3-0.1-0.4-0.2c-0.2-0.2-0.4-0.4-0.3-0.7c0.5,0.3,0.2,0.5,0.3,0.7C111,144.6,111.1,144.7,111.2,144.7z
							 M109.7,144.9l0.8,0.4l-0.4-0.5c0,0,0.3,0.2,0.6,0.5c0.3,0.2,0.6,0.4,0.6,0.4C110.6,146.2,109.8,145.5,109.7,144.9z
							 M109.5,145.3l-0.2-0.6L109.5,145.3L109.5,145.3v0.1l-1.3-0.3L109.5,145.3z M96.6,144.2c-2.1,1.9,0.2,1.4,0.1,2.3
							c0.5-0.6,1.5-1.6,0.1-1.6c0.8-0.3,0.8,0,0.8,0.2s0.1,0.3,0.8-0.5c-0.6,0.1-0.9-0.4-1-0.4l0.6-0.1c0.2-0.6-0.1-0.4-0.5-0.2
							C97.2,144.1,96.6,144.4,96.6,144.2z M95.1,139.2v-0.8l-0.1,0.7L95.1,139.2z M94.6,118.8c-0.2-0.1-0.4-0.5-0.6-1
							c0.1-0.3,0.6-0.3,1.2,0.2c-0.3,0.1-0.7,0.1-0.9,0.2C94.4,118.4,94.4,118.6,94.6,118.8z M103.3,118.6l-0.9-0.4
							c0.2-1,0.8,0,1.2-0.1C103.8,118.6,103.5,118.2,103.3,118.6z M109.2,118.6l0.3,0.2l-0.3-1V118.6z M108.8,117.2
							c0.2-0.5-0.4-0.7-0.6-0.6L108.8,117.2z M114.4,116.7H114l0.2,0.9L114.4,116.7z M113.7,117.6c0-0.6,0.1-1.5-0.9-1.2
							c-0.1,0.7,0.2,0.7-0.2,1.5c0.3,0.2,0.5-0.1,0.7-0.1c-0.2-0.1-0.5,0.1-0.5-0.3C113.1,117.2,113.5,117.4,113.7,117.6
							c0,0.2,0,0.4,0.1,0.6C113.8,118,113.8,117.8,113.7,117.6z M110.4,118.1c-0.1,0.1-0.2,0.2-0.3,0.3v-0.2
							C110.2,117.9,110.3,118,110.4,118.1c0.1-0.1,0.3-0.2,0.4-0.2c0.1-0.6-0.5-1-0.6-1.3c0.3,0.2,0.5,0.7,0.9,0.4
							c0-0.2,0-0.3-0.2-0.3l0.5-0.1c0.6,0.8,0,1-0.6,1.3c0,0.1-0.1,0.3-0.2,0.4C110.5,118.4,110.5,118.2,110.4,118.1z M114.4,119.7
							l-0.2-0.2c-0.1-0.2,0-0.5,0-0.6C114.5,119,114.8,119.5,114.4,119.7z M97.9,119.6c0.1-0.2-0.7-0.8-1.1-0.7c0,0-0.1-0.2-0.2-0.4
							s-0.2-0.4-0.2-0.4c0.4,0.6,1.3,0.5,1.4,0.5C98.4,119.4,97.9,119.1,97.9,119.6z M95.7,136.4c-1.1,0.2-0.4,1.2-0.7,1.5
							C94.8,137.3,94.5,136,95.7,136.4z M96.2,138.2c0,0.3,0.1,0.4-0.5,0.3c-0.2,0.1,0.1,0.3-0.2,0.5
							C95.1,138.5,96,138.6,96.2,138.2c0-0.1,0-0.2,0-0.3C96.3,138.1,96.2,138.2,96.2,138.2z M96.2,126.7l0.8-0.4l-0.1-0.6
							L96.2,126.7z M97.7,122.1c-0.5-0.3-0.5-0.8-0.2-0.7c-0.6-0.5-0.5-0.1-0.6,0.1c0,0-0.1,0-0.1,0.1l0.1-0.1
							C97,121.5,97.3,121.8,97.7,122.1l0.1,0.1L98,122L97.7,122.1z M105.6,122.1c0.4-0.5,0.5-0.3,0.8-0.1
							C106.3,122.2,105.9,122.3,105.6,122.1z M98.2,124.3c-0.1-0.2-0.4-0.2-0.6-0.2c-0.2,0-0.4,0.1-0.6-0.1l0.1,0.3
							c-0.6-0.6,0.7-0.1,0.5-0.4l0.1,0.2c0.6,0.3,0.4-0.1,0.8,0C98.7,124.2,98.3,124.4,98.2,124.3z M106.3,122.5
							c0.7-0.6,0.6,0.6,1,0.7C106.7,123.8,106.8,122.7,106.3,122.5z M99.9,123.8L99.9,123.8l0.2,0.2l0.3,0.2l-0.1-0.1L99.9,123.8
							L99.9,123.8z"/>
						<path class="st2" d="M107.2,116.6c0.2-0.1,0.3-0.1,0.4,0C107.4,116.6,107.3,116.6,107.2,116.6z"/>
						<path class="st2" d="M92.1,140.7c0.2,0,0.2,0.1,0.3,0.2C92.3,140.8,92.2,140.8,92.1,140.7z"/>
						<path class="st2" d="M91.8,142.9C91.8,142.9,91.8,143,91.8,142.9c0,0.1,0,0.1-0.1,0.2L91.8,142.9z"/>
						<path class="st2" d="M124,123.8c0.4-0.7,0.3,0.2,0.4,0.4C124.3,124,123.8,124.2,124,123.8z"/>
						<path class="st2" d="M123.9,126.1c0.1-0.2,0.2-0.5,0.1-0.7C124.1,125.5,124.1,125.7,123.9,126.1z"/>
						<path class="st2" d="M123.4,124.6c0.3,0.3,0.5,0.5,0.6,0.8C123.9,125.1,123.5,125.1,123.4,124.6z"/>
						<path class="st2" d="M125.3,131c0.4-0.3,0.1-0.9,0.1-0.9c0.6,1.3,0.8-0.3,1.1-0.5C126.5,130.4,126,130.5,125.3,131z"/>
						<path class="st2" d="M125,132.6c0-0.1,0-0.3-0.1-0.3C125.1,132.4,125.1,132.5,125,132.6z"/>
						<path class="st2" d="M125.4,133.2c-0.2,0.4-0.7,0.5-1.1,0.6c-0.3-0.5,0.6-0.7,0.7-1.1C125,132.9,124.9,133.2,125.4,133.2z"/>
						<path class="st2" d="M118.8,146.2c0.1,0,0.4-0.1,0.5,0.1l-0.9,0.4C118.1,146.6,118.7,146.3,118.8,146.2z"/>
						<path class="st2" d="M115.5,145.7c-0.6,0.1-0.2,0.7-0.5,0.6l-0.1-1c0,0,0.2,0.1,0.3,0.2C115.3,145.6,115.5,145.7,115.5,145.7z
							"/>
						<path class="st2" d="M114.8,140.9l0.2,0.1C114.9,140.9,114.9,140.9,114.8,140.9L114.8,140.9z"/>
						<path class="st2" d="M112.7,147l0.5,1C112.6,147.8,112.6,147,112.7,147z"/>
						<polygon class="st2" points="110.4,147.9 110.7,148.2 109.6,147.9 						"/>
						<polygon class="st2" points="107.7,147.4 107.6,147.6 106.9,147.3 						"/>
						<path class="st2" d="M93.2,128.6c0.9-0.1,0.5,1,0.8,1.4C92.8,129.8,94.3,129.1,93.2,128.6z"/>
						<path class="st2" d="M106.2,117l-1.1-0.2C105.9,116.4,105.3,116.8,106.2,117z"/>
					</g>
				</g>
			</g>
		</g>
	</g>
</g>
</svg>
