<?xml version="1.0" encoding="utf-8"?>
<!-- Generator: Adobe Illustrator 20.1.0, SVG Export Plug-In . SVG Version: 6.00 Build 0)  -->
<svg version="1.1" id="Layer_1" xmlns="http://www.w3.org/2000/svg" xmlns:xlink="http://www.w3.org/1999/xlink" x="0px" y="0px"
	 viewBox="0 0 504 504" style="enable-background:new 0 0 504 504;" xml:space="preserve">
<style type="text/css">
	.st0{fill:none;}
	.st1{fill:#17171B;}
</style>
<g>
	<g>
		<g>
			<path d="M377.6,0H126C56.8,0,0,56.8,0,126.4V378c0,69.2,56.8,126,126,126h251.6c69.6,0,126.4-56.8,126.4-126.4V126.4
				C504,56.8,447.2,0,377.6,0z M319.6,252H272v156h-60V252h-32v-64h28v-27.2c0-25.6,12.8-66,66.8-66H324V148h-34.8
				c-5.6,0-13.2,3.6-13.2,16v24h49.2L319.6,252z"/>
			<g>
				<path class="st0" d="M377.6,0H126C56.8,0,0,56.8,0,126.4V378c0,69.2,56.8,126,126,126h251.6c69.6,0,126.4-56.8,126.4-126.4
					V126.4C504,56.8,447.2,0,377.6,0z M319.6,252H272v156h-60V252h-32v-64h28v-27.2c0-25.6,12.8-66,66.8-66H324V148h-34.8
					c-5.6,0-13.2,3.6-13.2,16v24h49.2L319.6,252z"/>
				<g>
					<g>
						<g>
							<path class="st1" d="M321.8,227.5c-0.1,0.5-0.2,1.2-0.4,1.8C321.6,227.6,321.7,226.8,321.8,227.5z"/>
							<path class="st1" d="M318.8,251.9c0.5-6.3,1.4-16.3,2.7-22.6C321.2,235,321.1,250.2,318.8,251.9z"/>
							<path class="st1" d="M325.4,226.7l-1.3,7.8C323.9,229.9,324.8,230.8,325.4,226.7z"/>
							<polygon class="st1" points="323.2,229.4 322.4,228.9 323.5,224.8 							"/>
							<path class="st1" d="M214.3,186.6c0.3-1.1,0.7-1.7,1.2-0.8c0,0-0.3,0.2-0.6,0.4C214.6,186.4,214.3,186.6,214.3,186.6z"/>
							<path class="st1" d="M194.8,190.7c-0.8-0.1-1.5-0.1-2.1-0.1c-0.5,0-1-0.1-1.5-0.1c0.2,0,0.4,0,0.7,0c0.3,0,0.5,0,0.8,0
								C193.3,190.6,193.9,190.6,194.8,190.7z"/>
							<path class="st1" d="M214,166.3l0.1,3.2C214,168.5,213.9,167.4,214,166.3z"/>
							<path class="st1" d="M321,136.6c-0.6,2.2-1.1,3.9-1.5,5c-0.3-2-0.1-2.8,0.2-3.5C320.1,137.5,320.7,137.2,321,136.6z"/>
							<path class="st1" d="M180.3,260.8l1.7-0.6C183.3,260.5,184,260.8,180.3,260.8z"/>
							<path class="st1" d="M189.4,180.1c0.2,0.4-0.1,0.6-0.6,0.8c-0.5-0.1-1-0.1-1.5-0.2L189.4,180.1z"/>
							<path class="st1" d="M213,153.9c0,0,0-0.1-0.1-0.2l0.7-2.4C213.6,152.6,213.4,153.5,213,153.9z"/>
							<path class="st1" d="M202.1,261.7c0,0.1-0.1,0.3-0.2,0.4c-0.3,0.4-0.6,0.8-1,1.1c0.2-0.2,0.3-0.4,0.4-0.6
								C201.5,262.4,201.8,262,202.1,261.7z"/>
							<path class="st1" d="M190.8,190.5C190.8,190.5,190.8,190.5,190.8,190.5c0.1,0,0.3,0,0.4,0C191.1,190.5,191,190.5,190.8,190.5
								z"/>
							<path class="st1" d="M200.8,177.3c-0.1,0.5-0.2,1-0.3,1.4C200.3,178.1,200.5,177.6,200.8,177.3z"/>
							<path class="st1" d="M321,136.6l0.1-0.5l0.1-0.6l0.2-1.3C321.5,135.4,321.3,136.3,321,136.6z"/>
							<path class="st1" d="M322.3,206.3c0.2-2.5,0.7-3.1,1.2-3.5C323.1,204.1,322.7,205.3,322.3,206.3z"/>
							<path class="st1" d="M313.4,247.9l1,0C313.9,247.9,313.6,247.9,313.4,247.9z"/>
							<path class="st1" d="M266.2,308.4c-0.1,0.5-0.3,0.9-0.5,1.3C265.5,308.9,265.8,308.4,266.2,308.4z"/>
							<path class="st1" d="M281.6,400.3c-0.1-0.7-0.1-1.5-0.1-2.2l-0.1-2.1c0-0.8,0-1.6,0-2.4c0-1.6,0.2-3.2,0.4-4.8
								c0.4-3.1,0.9-6.2,0.9-9l-0.8,1.9l0.7-5.6l-1.1,0.1c0.5-9.3-0.6-20.8,1.2-24.2l-1.8,1.1l1.4-9.8L281,349
								c-0.4-11,1-27.8,1-30.2l-0.7,1c-0.3-1.8,0.1-3.2,0.3-5.1l-1,1.5c0.3-16.6-2-21.2-0.9-39.7c-0.2-5.1-0.3,2.8-0.9,2.9
								c-0.8-2.8,0-9.3,0.4-10.7c-1.6,1.5-1.1,9.3-2.4,3.4c0.8-4.2-1.5,2.9-1.2-4.5l2-2.9c0-0.3,0-0.5-0.1-0.7
								c0-0.1-0.1-0.2-0.1-0.3c-0.1-0.2-0.1-0.3-0.2-0.4c-0.2-0.2-0.3-0.4-0.5-0.5c-0.3-0.3-0.6-1-0.5-3c0.2-1.1,0.5-1,0.7-0.7
								c0.3,0.4,0.5,1.1,0.8,1.7c0.5,1.2,0.9,1.6,1.1-0.7c0-0.3-0.1-0.7-0.2-1.2c0.7-0.5,1.4-1.6,3.5-2.4c0.5-0.2,1.1-0.4,1.8-0.6
								c1-0.2,2-0.3,3-0.4c2.1-0.2,4.4-0.2,7,0c10.1-1.1-5.3-3.2,8.6-2.6l-8.9-1.3c2.3-0.6,0.9-1.6,6.9-1.2c1.9,0.8,5.6,1.8,8.9,1.9
								c-13-1.5,11.4-2.3-0.7-4.3l4.5,0.1c-0.6-0.1-0.7-0.3-0.4-0.4l6-0.1c-3.7-0.4-12.5-0.6-8.4-2.1l8.7-0.4
								c-2.3-1.1,0.9-1.6,0.4-2.5l-25.6-2.2c1,0.7,4.7,1.1,3.3,1.8c-6.8,0.6-5.6-1.2-12-0.3l2.8,0.9c-0.5-0.3-1.4-0.4,0-0.6
								c2.3-0.6,3.2,0.1,3.3,0.7c-1.1,0.6-3.3,0.7-5.5,0.5c-1.4-0.1-6.1-0.5-7.8-0.9c-7.6,0.1-8,0.6-7,1.1c1,0.5,3.3,1.1,1.9,1.3
								c-2.5-0.6-5.7-0.8-9.2-0.9c-0.1,3.8,0.1,8.4,0.2,12.5c0,2.1,0.1,4.1,0.1,5.9c0,0.5,0,0.9,0,1.4c0,0.2,0,0.3,0,0.5l0,0.4
								c0,0.5-0.1,1-0.2,1.4c0,0,0.3-0.8,0.6-1.7c0.2-0.3,0.3-1.1,0.4-1.6c0.1-0.5,0.2-0.8,0.2-0.8c0.1,0.6,0.2,1.3,0.2,1.9
								c0.1,0.4,0.1,0.8,0.2,1.2c0.1,0.8,0.2,1.5,0.2,2.3c0.1,1.5,0.1,2.9,0,4.2c-0.2,2.7-0.6,5-0.8,6.9l1-1.4
								c-0.2,8.8,3.2,13.2-0.4,19.9l0.7-0.9c0.3,3.6,1.1,9.1,0,12.6c0.4,0.1,0.9,0.7,1.1,2.2c-1.4,2-0.3,5.7-0.1,11
								c0.4-3.5,2.2-2.4,2.6-6.1c1.8,8.2-2,7.5-2,14.5c0.9,4.1,1-3.7,1.7-4.7c-1,10.7,4.2,21.9,0.6,28.7l-1.1-4.6
								c-0.8,4.2-0.8,6.5-0.4,6c-0.1-1.4,0.2-1.8,0.6-2.3c1.9,12.8-2.6,20-1.9,33c0.7-1,0.9-2.8,1.5-2.9c0.4,3-0.5,4.4-1.3,6.3
								c-0.4,1-0.8,2-0.9,3.5c-0.1,0.7-0.1,1.5-0.1,2.4c0,0.2,0,0.5,0,0.7c0,0.2,0,0.3,0.1,0.4c0,0.3,0.1,0.6,0.2,0.9
								c0,0,0.8-0.9,0.8-1c0.2,1,0.1,1.8-0.2,2.3c-0.3,0.5-0.6,0.5-0.7,0.4c1.1,0.5,1.4,2.3,1.5,4.7c-2,0.1-4.7,0-7.3,0.3
								c-0.4,0-0.8,0.1-1.2,0.1c-0.5,0-0.9,0.1-1.4,0.1c-0.9,0.1-1.8,0.2-2.6,0.4c-1.6,0.3-3.1,0.8-4.2,1.4
								c-4.7-1.7-18.2-3-22.3-2.1c-5.9,1.8,5.2,2,3,3.7c-4.6,0-7.3-1.7-13.3-1.1c0.2-0.4,1.1-0.9,2.1-1.3c1-0.4,2-0.8,2.7-1.2
								c1.5-0.8,0.9-1.5-2.2-1.9c0,0-0.4,0.2-0.7,0.5c-0.4,0.2-0.8,0.5-0.8,0.5c0.9-0.1,2.1-0.5,3.1-0.2c1,0.5,0.8,0.8-0.1,1
								c-0.8,0.2-2,0.4-2.4,0.6l-4.5-0.2l0.3-5.1c0.8-0.6,1.1,0.1,1.3,0.8c0.2,0.8,0.2,1.8,0.3,2.3c0.3,0,0.5-0.1,0.6-0.2
								c-0.2,0-0.3,0-0.5,0c-0.1-1.3-0.4-2.6-0.7-4.2l-0.2-1.2l-0.1-0.6c0-0.1,0-0.3-0.1-0.5l-0.1-0.5c-0.1-1.5-0.3-2.9-0.4-4.4
								c-0.5-5.8-0.9-11.5-0.3-16.5l-0.7,1c1.5-13.1-3.3-7.6-0.4-18c-0.5-5.5-1.9,2-2.1-6.3c0-2.3,0.7-1,0.9-0.6
								c0.6-10.2-1.7-4.5-0.1-13.9l-1.9,2c1.3-11.2,4.7-23,3.8-32.7c-1.5,0.6-1.3,6.6-2.5,9c2.7-13.1,0.3-31.5,1.8-43.6
								c1.3,3.6,2.9-5.7,4,2c-1.9,2-0.7,5.7-0.9,9.8c2.1-3.4,1.6-10.4,1-16.8c-0.1-0.8-0.1-1.6-0.2-2.4c-0.1-1.2-0.1-2.4-0.2-3.5
								c-0.1-2.3-0.2-4.3-0.2-6.2c0-3.7,0.3-6.5,1.2-8.2c-0.3-0.3-0.5-0.5-0.8-0.8l-2,0.7c-1.3-0.1-3.5-0.4-4.9-0.8
								c-1.4-0.4-1.8-0.8,1-1c0,0-5.6,0.2-11.2,0.5l-1,0c-0.3,0-0.6,0-0.8,0c-0.4,0-0.8,0.1-1.2,0.1c-0.8,0.1-1.5,0.1-2.1,0.2
								c-1.3,0.1-2.1,0.1-2.1,0.1c1.2,0.3,2.6,0.6,4.2,1c0.4,0.1,0.8,0.2,1.2,0.3c0.2,0,0.5,0.1,0.8,0.1l0.9,0.1
								c1.2,0.2,2.4,0.3,3.6,0.5c4.6,0.6,8.5,0.8,11.5,0.1c0,0.1,0,0.1,0.1,0.2c-0.6,2.8-0.9,2.1-1.2,0.9c-1.2,0.2-2.6,0.3-3.5,0.6
								c-0.9,0.2-1.2,0.6-0.5,1.1c-2.1-0.6-3.9-0.9-5.2-0.9c-1.3,0-2.3,0.2-3.2,0.4c-0.9,0.3-1.8,0.6-3.1,0.8
								c-1.1,0.2-2.7,0.3-5,0.2c2.1-1.1-0.2-1.8-3-2.4c-0.2,0-0.4-0.1-0.5-0.1l-0.3-0.1c-0.2-0.1-0.4-0.1-0.7-0.2
								c-0.4-0.1-0.8-0.3-1.1-0.4c-0.6-0.2-0.9-0.5-0.7-0.7c-0.9,0.2-2.3,0-3.3-0.3c0.3-1.5,0.7-2.9,1.1-3.6c0-0.6,0-1.3-0.1-2.2
								c0-0.1,0-0.2,0-0.4c0-0.3,0-0.5-0.1-0.8c0-0.5-0.1-1.1-0.1-1.7c-0.1-1.1-0.2-2.3-0.2-3.5c-0.3-4.8-0.6-10.1-0.2-14.4
								c-0.7,3.3-1.6,8.4-2.9,8c0.8-4.2,0.8-8.9-0.8-9.7c-2.9,15,3.6,4.8,1.8,18.4c-0.9,1.6-1.5,3.6-1.9,5.3
								c-0.4,1.9-0.6,4.3-0.9,7.7c-0.5-1-0.9-1.2-1.3-1.1c-0.4,0.1-0.8,0.4-1.4,0.1c1-3,1.5-5.6,1.7-8.2c0.2-2.7,0.2-5.5,0.2-8.5
								c-0.1-5.9-0.5-12.1,0.4-17.7c1.1-4.7,3.5-1.2,3.9-11.8l1.2,9.2c-1.1-10.1,1.1-2.4,1.5-10.7l-1.2,3.3c-0.1-2.5-0.1-4.6,0-4.9
								c0.1-0.7,0.4-1.2,0.9-1.5c0,0-0.5,0.2-1,0.6c-0.5,0.4-1,1-1,1c-0.2-1.6-0.5-4.9,0.6-4c-0.5-0.7-0.8-1.2-1.2-1.5
								c0.2,0,0.3-0.2,0.4-0.7c0.5,0.1,1.2,0.1,2,0.1c-1.3-0.2-2-0.1-2.6-0.7c2,0.1,3,0,3.6-0.1c0.5-0.2,0.6-0.4,0.5-0.7
								c-0.1-0.6-0.7-1.1,2.3-1c-1-0.4,0.5-1,3.4-1.2c0,1.1,1.6,1.9,5.5,2.4c3.7,0.6,8.8,1,13.5,1.5c0.3-2.8,0.7-5.3,1.1-6.6l0,0
								c0,0,0.3-3.9,0.6-7.8c0.1-1,0.2-2,0.2-2.9c0.1-0.6,0.1-1.2,0.2-1.6c0.1-1,0.2-1.6,0.2-1.6c-0.2,2.1-1.1-0.2-1.4-3.1l0,0.5
								c-0.5-3.3-3.3,3.9-2.4-5.9c0,0,0.2-1.3,0.4-2.6c0.1-0.7,0.2-1.3,0.3-1.7c0.1-0.5,0.2-0.8,0.2-0.8c-0.1,0.9-0.6,0-0.8-0.4
								c0,0,0.1-0.3,0.2-0.8c0.1-0.5,0.2-1.1,0.4-1.7c0.3-1.2,0.6-2.5,0.6-2.5c-1-3.9,0-7.6,1.5-11.1c1.5-3.5,3.4-6.9,4.6-11.2
								c-0.9,2.4-2.3,6-2.7,4.1c0.2-0.9,0.5-1.9,1-2.8c0.5-0.9,1.1-1.7,1.6-2.3l-0.5,0.3c0,0,2.2-3.7,4.9-6.9c0.7-0.8,1.4-1.6,2-2.3
								c0.7-0.7,1.3-1.3,1.9-1.9c0.5-0.5,1-0.9,1.4-1.3c0.3-0.3,0.5-0.5,0.5-0.5c-0.4,0.1-1.1,0.6-1.9,1.2c-0.7,0.7-1.6,1.5-2.3,2.2
								c-1.4,1.4-2.4,2.3-1.6,0.3c0.1-1.4,1.3-2.9,2.7-4.2c0.7-0.6,1.5-1.3,2.2-1.9c0.7-0.6,1.4-1.1,2-1.6c0.2,0.9-3.1,5.2,1.1,1.6
								c0.1-0.4,1-1.6,1.6-2.5c0.6-0.9,1-1.6-0.2-1.1c2.5-1.5,5.6-3.2,8.7-4.5c3.2-1.3,6.5-2,9-2.2c0.7-0.4,0.4-0.5-0.1-0.5
								c-0.5,0.1-1.4,0.2-1.8,0.3l-0.3,0.4c-1.7,0.4-2,0-2.6-0.1c-0.6-0.1-1.7,0-4.4,2c-0.4-0.5-0.1-1.1,0.7-1.7
								c0.4-0.3,0.9-0.7,1.5-1c0.6-0.3,1.3-0.6,2.1-0.9c3.1-1.2,7.2-2.1,10.1-2.9c0,0-2.5,0.1-5,0.4c-1.3,0.1-2.5,0.4-3.4,0.5
								c-0.9,0.2-1.6,0.3-1.6,0.3c3.6-2.4,8-4.1,12.7-5.1c4.8-1,9.8-1.4,14.9-1.1c10.1,0.5,20.3,1.5,28.9,1.5c-5,0.8-9.2,0-8.6,2.1
								c5.3,0.5,7.6,0.6,10,0.7c1.2,0,2.3,0,3.8,0.1c0.8,0,1.6,0,2.6,0.1c0.9,0,2.4,0.1,2.9,0.1l-0.5-0.1c1-0.3,2.2-0.4,3.3-0.3
								c1.1,0.1,2.1,0.2,3.1,0.2c0,1.2,0.1,2,0.8,2.4c0.6-1.2,0.3-2.4,0.2-3.4c-1,0.1-1.7,0-1-1.1l2,0l-0.1,7.7
								c0.8-1.8,0.7-5.2,0.6-8.2c-2.3,0.1-4.5,0.2-6,0.1c-1.4,0.1,0,0.1,1.4,0.4c1.4,0.2,2.6,0.7,1.4,1.4c-1.9,0-3.3-0.1-4.6-0.3
								c-0.3-0.1-0.6-0.1-1-0.1l-0.2,0l-0.4,0c-0.2,0-0.5-0.1-0.7-0.1c-0.9-0.1-1.7-0.3-2.5-0.4c-3-0.6-5.3-1.5-8.4-2.6
								c-3.8-1.6,5.5-1.6,7.8-1.6c2.2,0.6,4.8,1.2,7,1.6c2.3,0.4,4.6,0.8,6.9,0.9c-0.2,2.2-0.2,4.4-0.2,6.5c0,1.1,0.1,2.2,0.1,3.3
								c0.1,1.4,0.2,2.8,0.3,4.2l1.7,6.8c-1.6,6.2-4.6,3.5-4.2,14.6l1.2-3.3c0.5,2.4,0.6,4,0.6,5.2c0.9-4.8,2-9.9,3-14.2
								c1.3,3.2,1,7.7,0.3,12.6c-0.4,2.4-0.8,5.1-1.2,7.4c-0.4,2.3-0.7,4.3-0.9,6.2c0.3-0.1,0.4-3,1.1-3.5c0.1,1.8,0.1,3.5,0.1,5.2
								c-3.1,0-6.2-0.2-9.1-0.5c-2.8-0.3-5.8-0.6-8.7-0.9c-5.8-0.7-11.2-1.4-15.8-1.6c-4.5,1.1,8.9,0.8,6.7,2.5
								c-2.8-0.3-5.8-0.1-8.3,0c-2.6,0.2-4.5,1-5.6,0.7c1.7,0.5-1.5,1.8-2.9,3.6c-0.8,0.8-1.2,1.5-1.1,1.5c0.2,0,0.9-0.9,3.3-2
								c-2.3,1.8-3.8,4.5-4.5,7.5c-0.2,0.7-0.3,1.5-0.4,2.3c0,0.4-0.1,0.8-0.1,1.2l-0.1,1.2c-0.1,1.6-0.1,3.3-0.1,4.9
								c-0.1,1.6-0.1,3.3-0.2,5c-0.1,1.6-0.1,3.3-0.2,4.9c-0.2,3.3-0.4,6.7-0.6,10c8,0.5,16,1.1,23.7,1.6c-1-0.7-1-1.2-0.1-1.7
								c-3.5,0-7.8-0.1-11.6-0.5c-3.7-0.4-6.6-0.9-7.5-1.7c2.2-0.6,3.9-0.2,5.8,0.3c0.5,0.1,0.9,0.2,1.3,0.3c0.4,0.1,1,0.2,1.4,0.3
								c0.8,0.1,1.5,0.2,1.8,0c-1.1-0.3-3-0.4-4.1-0.6c-1.2-0.2-2-0.5-1.8-1.1c1.2-0.3,2.1-0.4,2.9-0.5c1.1,0,2.3,0.1,3.3,0.3
								c2.1,0.3,4,0.8,6.1,0.9l-2.3,0.6c6.5,0.8,8.3,1.8,10.2,2.5c0.9,0.4,1.9,0.6,3.5,0.8c0.8,0.1,1.8,0.1,2.9,0.1
								c0.6,0,1.2,0,1.8,0c0.6,0,1.3-0.1,2.1-0.1c2.5-0.7,2.7-1,2.2-1.3c-0.5-0.3-1.7-0.7-1.5-1.5c0.9,0.2,2.5,0.2,4.4,0.1
								c1.9-0.1,4.2-0.2,6.3-0.3c-0.2,3.4-0.6,7-1.6,9l0.6-8.1l-0.7,0c0.2,0,0.4,0,0.6,0.1c-1,6.2-1.4,11.5-2.4,15.3
								c0.4-0.4,0.8-0.7,1.1-1.9c-1,4.6-1.3,10.6-2.7,12.8l1.7,1.5c-0.6-2.8,0-11.1,1.2-12.4c1.5,0.9-0.2,9.2-0.4,12.9
								c0.4-3.8,0.9-6.6,1.4-9c0.2-1.2,0.5-2.3,0.7-3.2c0.1-0.5,0.2-1,0.4-1.4c0.1-0.2,0.1-0.5,0.2-0.7c0.1-0.3,0.1-0.6,0.2-0.8
								c0.5-2.2,1-4.5,1.3-7.1c0.4-2.6,0.7-5.6,0.8-9.1c-1.1,0-2.3,0.1-3.6,0.2l2.4,0.6c-3.1,0.3-5.7,0.5-8.4,0.4
								c-2.6,0-5.2-0.2-7.8-0.4c-4.2-0.4-8.3-0.9-12-0.9c2.1-0.4,2.5-1,1.5-1.3c-4.2,0.4-8.5,0.6-12.7,0.7c-1.4,0-2.9,0.1-4.4,0.1
								c-1.3,0-2.7,0-4.1,0c0-2.7,0-5.4,0-8.3c0-2.2-0.1-4.4-0.1-6.6c0-1.1-0.1-2.2-0.1-3.4l0-0.9l0-0.4l0-0.4c0-0.5,0-1,0-1.5
								c0,0,0.1-0.3,0.4-0.7c0.2-0.4,0.5-1,0.8-1.4c0.2-0.2,0.3-0.5,0.5-0.7c0.2-0.2,0.3-0.4,0.5-0.5c0.3-0.3,0.4-0.5,0.4-0.5
								s-0.3-0.2-0.6-0.4c-0.3-0.2-0.6-0.4-0.6-0.4c0.1-0.4,0.2-0.7,0.4-1c0.2-0.3,0.3-0.5,0.4-0.7c0.3-0.4,0.5-0.6,0.7-0.7
								c0.4-0.2,0.7-0.1,0.9,0.1c0.4,0.4,0.7,0.8,1.8-0.1c-0.5,0.3-0.6,0.4-0.8,0.4c-0.2,0-0.3-0.1-0.5-0.2c1.3-0.6,2.1-0.8,2.7-1
								c0.3-0.1,0.5-0.2,0.7-0.3c0.2-0.1,0.3-0.3,0.4-0.4c0.2-0.3,0.4-0.6,0.7-0.7c0.1,0,0.2-0.1,0.3-0.1c0.2,0,0.4-0.1,0.6-0.1
								c0.5,0,1,0,1.8,0c-0.4-0.2-0.8-0.3-1.3-0.4c-0.5-0.1-1.2-0.2-1.5-0.3c-0.8-0.1-1.7-0.1-2.5,0.1c-0.8,0.1-1.4,0.3-1.8,0.3
								c-0.4,0-0.6-0.2-0.4-0.9c1-0.3,2.1-0.6,3.3-0.6c0.3,0,0.6,0,0.9,0c0.3,0,0.6,0,0.9,0c0.8,0.1,1.5,0.1,2.3,0.2
								c3.1,0.2,6.2,0.4,9.1,0.5c5.7,0.4,10.2,1,11,2.6c0.4,0,1.3-0.1,2-0.1c0.8,0,1.5-0.1,2.3-0.1c1.5,0,3.1-0.1,4.6-0.1
								c3.1-0.1,6.2-0.1,9.4-0.1c0-3.2,0-6.4,0-9.7c0-1.6,0-3.2,0-4.9l0.1-4.4c0.1-4.3,0.3-8.6,0.5-12.8c0.2-4.2,0.4-8.3,0.5-12.2
								c0-1,0.1-1.9,0.1-2.9c0-1.4,0.1-2.8,0.1-4.1c0-3,0.1-5.8,0.1-8.5c-0.6-3.3-0.5,2.6-0.9,1.4c0.4-2.3,0.6-5.2,0.6-8.3
								c-2.9,0-6.2,0-9.3,0.2c-3.1,0.1-6.2,0.3-8.9,0.4c-0.9,0.1-1.8,0.1-2.6,0.2c-0.7,0-1.3,0-1.9,0c-1.1,0-1.7-0.2-1.7-0.5
								c-3.2,0.5-4.5,1.7-5.4,2.2c-4.2-0.8-9.3-1.2-14.7-1.4l3.9,0.5l-0.4,0.2l-5.6-0.7l0.2-0.1c-3.4-0.1-6.8-0.2-10.4-0.2
								c-1.9,0-3.8,0-5.7,0.1c-1.9,0.1-3.8,0.1-5.7,0.4c-7.6,0.7-15,2.1-21.7,4c3.9-0.9,3.6-0.2,2.8,0.5c-0.8,0.8-2,1.7-0.2,1.3
								c-3.6-0.1-9.4,1.7-15.1,5.4c-5.8,3.7-11.3,9.3-15.1,15c0.5,0.3,0.3,1.4,1.5,0.4c0,0-0.3,0.4-0.8,0.9c-0.5,0.5-1.1,1.3-1.8,2
								c-0.6,0.7-1.3,1.5-1.7,2.1c-0.4,0.6-0.7,1-0.7,1l1.1-0.6c-1.6,3.1-3.2,6.2-4.6,9.4c-1.4,3.2-2.8,6.4-3.8,9.5
								c-2.1,6.3-3.2,12.3-2.8,16.8c0.7-5.6,1.4-5.5,2.3-6c-0.3,2.4-0.5,4.8-0.6,7.1c0,1.2-0.1,2.4-0.1,3.5c0,1.1,0,2.2-0.1,3.4
								c-0.1,2.3-0.1,4.6-0.3,7c-0.1,1.2-0.1,2.4-0.2,3.7l0,0.5c0,0.1,0,0.4,0,0.4l-0.1,0.4c0,0.2-0.1,0.5-0.1,0.7
								c0.2-0.2,0.4-0.3,0.6-0.3c0.1,0.6,0,1.3-0.2,1.8c-0.2,0.6-0.4,1-0.6,1.3c0,0,0.3,0.4,0.7,0.7c0.3,0.4,0.7,0.7,0.7,0.7
								c0,0.1,0,0.1-0.1,0.2c-1.5-0.3-2.8-0.2-4.3-0.3c-0.4,0-0.7,0-1.1,0l-0.3,0l-0.5,0l-1.2-0.1c-0.8,0-1.6-0.1-2.3-0.2
								c-1.2-0.1-2.3-0.2-3.4-0.3c-1.9,0.8-8.1,0.4-16-0.1c-0.2,3.3-0.5,6.8-0.6,10.4c-0.1,1.8-0.1,3.6-0.1,5.3c0,1.6,0,3.6,0.1,4.2
								c-0.1,0.7,0,0.7,0.1,0.4c0.1-0.2,0.1-0.4,0.2-0.6c0-0.1,0.1-0.3,0.1-0.4c0.1-0.1,0.1-0.2,0.2-0.4c0.2-0.7,0.4-1.1,0.6-0.7
								c0,0.1,0.1,0.3,0.1,0.6c0,0.2,0,0.4,0.1,0.7c0,0.5,0.1,1.2,0.1,2.2c-2.9,1.1-0.1,10.2-3.2,10.8l1.2,6.9l-1.6,1.5
								c3,5.8-1.3,8.9-0.4,17.6c0.3-0.5,0.5-1.4,0.7-0.9c0,0.4-0.1,0.8-0.1,1.2c0,0.2,0,0.5-0.1,0.7c0,0.4,0,0.8-0.1,1.3
								c-0.1,1.7-0.2,3.4-0.3,4.7c-0.2,2.5-0.4,3.4-0.9-1.3c0,3.9-0.1,11.7-0.1,18.3c4.4,0,8.3,0,10.2-0.2c1.9-0.2,1.6-0.4-1.8-0.9
								c0.2,0.5-3.5,0.5-7.6,0.3c0.1-3.4,0.4-7.1,0.5-9.4c0.8-0.1,0.9,4,1.2,7.7c3.2-0.2,6.4-0.5,8-1.1c0.3,0.1,1.6,0.4,2.7,0.6
								l2-0.8c1.7,0.2,3.4,0.3,5.2,0.5c0.9,0.1,1.8,0.1,2.7,0.2c0.5,0,1.1,0.1,1.6,0.1c2.2,0.1,4.3,0.2,6.3,0.3c0.1,0,0.3,0,0.3,0
								l0.1,0l0.2,0l0.4,0.1c0.3,0.1,0.5,0.1,0.7,0.2c0.4,0.2,0.6,0.5,0.5,1c0.2-0.2,0.4-0.3,0.6-0.4c0.2,0,0.3,0.2,0.2,0.7
								l-1.7,1.2c0,0,0,0.2,0,0.4c0,0.1,0,0.2,0,0.3c0,0.8,0,1.3,0,1.3s0.2-0.3,0.4-0.7c0.1-0.2,0.3-0.5,0.4-0.7
								c0.1,0,0.3-0.1,0.5-0.2c0.6-0.2,1.2-0.7,1.2-0.7c0,0.2,0,0.4,0.1,0.6l0,0.3c0,0.2,0,0.5,0,0.7c0,1.2-0.1,2.3-0.2,3.4
								c-0.2,2.2-0.5,4.3-0.9,6.4c-0.7,4.1-1.5,8-1.7,12.1c2.8,2.1-1.1,16.3,1.4,23.5l0.8-6.5c-0.5,13.9,1.2,16.1,0.2,29.1
								c-0.9-11-0.4-11.1-2.7-27.1c1.2,16.1-1.6,27.8,0,42.6c0.7-1,1.1-4.7,1.8-1.1c-1.5,2.9,0.1,13.9-1.7,11.7
								c0.6,4.6,2.2,5.4,2.4,8.2l-2.1,15.4l0.3-0.5c0.7,4.5,1.1,9,1.2,13.3l0,0.8l0,1.3c0,1,0,1.9,0,2.9c0,1.9,0,3.8,0,5.7
								c0,3.8-0.1,7.7-0.2,11.6c3.5,0.1,7,0.2,10.6,0.3c3.6,0.1,7.2,0.3,10.8,0.4c4,0.3,8,0.6,12,0.9c4,0.3,8.1,0.5,12.2,0.6
								c2.1,0,4.1,0,6.2,0c1,0,2.1-0.1,3.2-0.1l1.6-0.1l0.8,0l1.4,0c0,0-0.3-0.2-0.5-0.5c-0.2-0.2-0.5-0.5-0.5-0.5s3.2,0.3,6.4,0.7
								c3.4,0.3,6.7,0.7,6.7,0.7c-5.4-0.4-4.3-0.7-2-1c2.3-0.3,5.7-0.5,5.8-0.9l4.9,0.3l0.8-12.9l0.4-6.8l0.1-1.7l0-0.4
								c0-0.1,0-0.2,0-0.3l0.1-0.4l0.2-1.8c-0.4-0.2-1,0-1.6,0.7c-0.3,0.4-0.5,0.9-0.6,1.5c0,0.1,0,0.1,0,0.3c0,0.2,0,0.3,0,0.5
								c0,0.3,0,0.7,0,1.1C281.5,398.6,281.6,399.4,281.6,400.3z M203.2,261.9l0.1-1.1l0-0.1c-0.2,0.1-0.4,0.1-0.5-0.1l0.5,0.1
								l0,0.1C203.5,261.1,204.2,261.1,203.2,261.9z M325.7,153.6c-2.5-0.6,0.9-0.4,3.6-0.4c0-0.8,0-1.6,0-2l0,2l-7.4-0.2
								C320.8,153.5,324.2,153.5,325.7,153.6z M214.1,254.7c0,0,0.3,0.5,0.6,1c0.3,0.5,0.6,1.1,0.6,1.1s-0.2,1-0.4,2
								c-0.2,0.9-0.4,1.9-0.4,1.9L214.1,254.7z M214.2,312.5l0.7-5.6l0.2,0.5l-0.7,5.6L214.2,312.5z M205.1,375.2
								c0.1-0.4,0.1-0.7,0.2-1.1C205.3,374.5,205.2,374.9,205.1,375.2c-0.8,4.3,1.2,6.1-0.8,9.6
								C202.6,380.5,204.4,377.7,205.1,375.2z M205,276c0.2-1.9,0.3-2.8,0.2-4.2c-0.7,1-1.7,4.8-1.9,2c0.8-1.9,1-8.4,2.1-8.5
								C204.2,271,207.4,275,205,276z M192.8,181.8c0,0-0.4,0-0.7,0.1c-0.1,0-0.2,0-0.3,0c-0.1,0-0.2,0-0.3,0c-0.2,0-0.3,0-0.3,0
								s0.1,0,0.3,0c0.1,0,0.2,0,0.4,0c0.1,0,0.2,0,0.3,0.1c0.5,0.1,1.1,0.2,1.8,0.3c0.6,0.1,1.3,0.2,1.8,0.3c0.1,0,0.2,0,0.3,0.1
								c0.1,0,0.1,0,0.2,0c0.1,0,0.1,0,0.1,0s0,0-0.1,0c-0.1,0-0.1-0.1-0.3-0.1c-0.4-0.1-0.8-0.2-1.3-0.3
								C193.8,182,192.8,181.8,192.8,181.8z M202.9,177.8c0.4-0.3,0.6-0.9,0.8-1.7c0.2-1.2,0.3-2.5,0.4-3.9c0.2-2.8,0.2-6,0.3-8.5
								c-1.3-1.3-2.7,3.9-2.6,9.9c-0.1,0.9-0.2,1.6-0.2,2.1c0,0.1,0,0.3,0,0.4c0,0.1,0,0.1,0,0.2c0,0.1,0,0.2,0.1,0.3
								c0.1,0.3,0.4,0.4,0.6,0.5C202.9,177.2,203.4,177.1,202.9,177.8z M207.2,319.4l1-1.4l0.1,1.3l0.7-5.6
								c1.4,7.3-1.2,12.6-1.6,16.3C207.5,326.8,210,317.8,207.2,319.4z M211,126.8c1.6-2.3,3.9-5.4,5.9-7.6c1.1-1.1,2-2,2.8-2.5
								c0.7-0.5,1.2-0.7,1.3-0.4c-0.6-0.7-2.4,0.3-4,1.9c-1.7,1.6-3.2,3.7-3.8,4.8C212.6,124.2,212.1,125.1,211,126.8z M214.2,128.6
								c-1,1.6-1.8,2.9-2.4,3.9c-0.7,1-1.2,1.9-1.8,2.6c-0.6,0.8-1.1,1.5-1.7,2.4c-0.6,0.9-1.3,1.9-2.1,3.2c0.5-3.9,1.8-6.2,2.9-7.2
								c1.1-1.1,2-1,2.3-0.4c1.3-2.3,1.7-3.3,1.8-4.1c0.1-0.8-0.1-1.4,0.5-2.7c0,0,0.1,0.6,0.3,1.1C214,128,214.2,128.6,214.2,128.6
								z M206.2,134.1c0,0-0.2,0.8-0.4,1.6c-0.2,0.8-0.3,1.6-0.3,1.6c-0.1,2,0.3,3.3,0.4,4.7c0,0.7,0,1.4-0.3,2.3
								c-0.3,0.8-0.7,1.8-1.5,3.1c0,0,0.1-0.6,0.1-1.6c0.1-0.9,0.2-2.2,0.4-3.4c0.1-1.3,0.4-2.5,0.6-3.4c0.2-0.9,0.3-1.6,0.3-1.6
								C205.5,136.5,205.7,135.4,206.2,134.1z M255.4,90.6c0,0-0.2,0-0.5,0c-0.3,0-0.7,0-1.2,0c-0.9,0-1.7,0.1-1.7,0.1
								C255.3,90,255.7,90.3,255.4,90.6l2.8,0.1c-3.4,0.9-4.3,1.2-4.2,1C254.1,91.6,255.1,91,255.4,90.6z M213.5,119.7
								c0,0-0.1,0.1-0.2,0.3c-0.1,0.2-0.4,0.5-0.6,0.9c-0.4,0.8-1.1,1.8-1.7,2.9c-0.5,1.1-1.1,2.1-1.5,2.9c-0.4,0.8-0.6,1.4-0.6,1.4
								c0.5-0.1,1.2-1.5,2.1-3.3c0.2-0.4,0.4-0.9,0.6-1.4c0.2-0.5,0.4-0.9,0.7-1.4C212.7,121.2,213.1,120.4,213.5,119.7z
								 M253.8,92.8c-1.9,0.5-5.3,1.5-8,2.6c-2.7,1-4.7,2-4.1,1.7c0.1-0.3,0.7-0.8,1.7-1.3c0.9-0.5,2.2-1,3.5-1.5
								c1.3-0.4,2.7-0.8,4-1.1C252.1,92.9,253.1,92.8,253.8,92.8z M277.6,177.5l0.1-5.3l1.4,2.7c0,0-0.1,0.2-0.2,0.4
								c-0.1,0.3-0.3,0.7-0.5,1C278,176.8,277.6,177.5,277.6,177.5z M317.6,148.6c0,0-0.3,0.2-0.6,0.3c-0.3,0.2-0.6,0.3-0.6,0.3
								l-3.6-0.1L317.6,148.6z M324.3,94.3c0.6-0.3,0.8-0.7,0.6-1c-0.9-0.1-1.7-0.3-1.9-0.6c1,0,1.7,0.2,1.9,0.6
								c0.2,0,0.3,0,0.6,0.1c-0.2,2.8-0.1,6.2,0.3,7.8c0.7-1.4,0.5-5.8,1-7.9c0.4,1.3,0.4,3.7,0.2,6.1c-0.2,2.4-0.5,4.9-0.7,6.9
								c0,0.4-0.1,0.9-0.1,1.3c0,0.4-0.1,0.7-0.1,1.1c0,0.6,0,1.2,0.1,1.6c0.2,0.7,0.8,0.9,1.9,0c-0.6,2.3-1.8,10.3-2.6,7.5
								c0.1-1.6,0.1-3.5,0.1-5.5c0-1,0-2.1-0.1-3.2c0-1.1-0.1-2.2-0.1-3.4c-0.2-4.9-0.5-9.2-0.9-11.3
								C324.4,94.3,324.4,94.3,324.3,94.3c-0.5,0.2-1.2,0.4-2.4,0.5C322.4,94.6,323.3,94.4,324.3,94.3z M243.8,101.1
								c-2.1,0.8-3,1.1-3.5,1.2c-1.9,0.6-3.4,0.9-3.3,0.1c4.5-1.8,2,0.1,3.3-0.1C241.4,101.9,242.7,101.5,243.8,101.1z M231.8,108.5
								c0,0,0.4-0.2,1-0.6c0.6-0.4,1.4-0.8,2.2-1.2c0.4-0.2,0.8-0.4,1.2-0.6c0.4-0.2,0.8-0.3,1.1-0.5c0.6-0.3,1-0.5,1-0.5
								s-0.9,0.3-1.8,0.5c-0.5,0.1-0.9,0.3-1.2,0.4c-0.3,0.1-0.6,0.2-0.6,0.2s0.2-0.1,0.4-0.2c0.3-0.1,0.7-0.3,1.2-0.5
								c1-0.4,2.3-0.9,3.6-1.3c1.3-0.4,2.6-0.9,3.6-1.1c1-0.2,1.7-0.4,1.7-0.4c-0.7,0.4-1.3,0.8-2,1.2c-0.7,0.4-1.4,0.8-2.1,1.1
								c-1.4,0.6-2.7,1.4-4,1.9c-1.2,0.5-2.3,1-3.3,1.3C232.8,108.4,232.2,108.6,231.8,108.5z M230.3,110.8l-1.9,0.2l2.5-0.7
								L230.3,110.8l0.4,0c0,0-0.6,0.5-1.5,1.2c-0.5,0.3-0.9,0.8-1.5,1.3c-0.5,0.5-1.1,1-1.6,1.5c-2.2,2.1-4.1,4.5-4.1,4.5
								s0.1-0.2,0.3-0.4c0.2-0.2,0.5-0.6,0.9-1c0.7-0.9,1.7-1.9,2.7-3c1.1-1,2.1-2.1,3-2.8C229.8,111.2,230.3,110.8,230.3,110.8z
								 M179.4,203.5c1,1.2,1.6,1.1,2.1,0.2c0.2-0.4,0.4-1,0.6-1.8c0.1-0.4,0.1-0.8,0.2-1.2c0.1-0.4,0.1-0.8,0.2-1.2
								c0.4-2.9,0.6-6.2,1.5-6.2c-0.6-0.7-1.5-2.4-2.1-2.8c-0.3-0.2-0.6,0-0.8,1c-0.2,1-0.3,2.8-0.3,5.7c-0.4-3.3-0.3-5.2-0.1-6.1
								c0.2-1,0.6-1.1,0.7-1.6c0.4,0,0.7,0,1.1-0.2c0.4-0.2,0.8-0.5,1.5-1.1c-1.2,0.1-2.6,0-4,0c-0.1,1.8-0.3,3.6-0.5,5
								c-0.2,1.4-0.3,2.5-0.4,2.8l-0.1-6.5c-1.2,0.9-0.9,4-0.4,6.8c0.2,1.4,0.5,2.8,0.7,4C179.6,201.3,179.6,202.5,179.4,203.5z
								 M195.8,252l7.8,0.1l-7.4-0.3L195.8,252z M233.7,406.9c-0.6-0.9,9.6-2.5,12-0.8C240.5,406.3,235,406.2,233.7,406.9z
								 M271.2,363.1l-0.8,8.8c-2-1.7,0.1-7.9-0.3-12C271.2,358.4,270.5,361.7,271.2,363.1z M271.2,305.7l0.3-2.8l-2,3L271.2,305.7z
								 M268.5,309.5c-0.9-1.8-1.3,4.3-1.2,5.7L268.5,309.5z M266.7,255.1l0.1,5.3c0,0,0.4-1.1,0.9-2.1c0.4-1,0.9-1.8,0.9-1.8
								s-0.5-0.4-1-0.7C267.2,255.5,266.7,255.1,266.7,255.1z M268.8,263.6c-1.3,1-3,0.5-2.2,9c1.4,0.4,1.3-2,2.9,1.2
								c0.3-2.8-0.2-5.1-0.4-6.5c-0.2,1.9,0.4,4.1-0.5,4.7C268.2,268.9,268.3,265.7,268.8,263.6c0.5-0.4,0.9-0.9,1.1-2.2
								C269.5,261.4,269.1,262.2,268.8,263.6z M270.2,294.4c0.2,1.1,0.3,2.1,0.6,2.5l-0.3,0.5C269.9,296.3,270,295.3,270.2,294.4
								c-0.2-1.2-0.3-2.7-0.5-4.1c-1.1-0.9-1.9,4.9-2.6,6.4c0.3-2.8,1.4-5.1,0.8-8.8c-0.3,0.5-0.6,0-0.6,2.3l-0.2-5.1
								c1.6-5.8,2.1-0.3,2.6,5.1c0.3,0.2,0.5,0.6,0.8,1.6C270.7,292.7,270.5,293.5,270.2,294.4z M272.8,254.4l-0.3,2.4
								c-0.4,1.1-0.9,0-1.2,0.3c0.1-1.7,0.3-3.5,0.6-4.3C272.1,252.1,272.5,252.4,272.8,254.4z M260.1,409.2c1-0.2,0.3-0.6-1-0.9
								c-1.3-0.3-3.4-0.6-5.5-0.4l2.2-1.7c0.1,0.6,2.2,0.8,4.4,0.9c2,0.1,4.2,0.1,4.7,0.2c1,0.8,0.8,1-0.3,1.2
								C263.5,408.6,261.9,408.7,260.1,409.2z M210.8,263.2c1.6-1,1.3-7.4,1.3-11.3c-1.5,0-2.6,0-3.1-0.2c1-0.1,2.2-0.2,3.5-0.2
								c0.2,2.9,0.3,6.7,0.1,9.2c-0.1,1.3-0.3,2.3-0.5,2.7C211.6,264,211.3,263.9,210.8,263.2z M204,254.1c-2.4,0-3.1,0.2-2.7-0.9
								c-0.3-0.1-0.7-0.2-1.1-0.2c-0.4,0-0.9,0-1.3,0c-0.9,0-1.8,0.1-2.6-0.2C202,251.9,201.5,253.7,204,254.1c0.6,0,1.3,0,2.1,0.1
								C205.2,254.3,204.6,254.2,204,254.1z M209.8,357.6l-1.6,3.8l0.1,6L209.8,357.6z M226.1,413.1c-0.5-0.9,6.4-0.9,7.8-0.5
								c-0.4-1.2-5.1-1-8.7-1.2c-0.5-0.1-1.1-0.2-2.7-0.2c0.4,0,1,0.1,1.4,0.1c0.4,0,0.8,0,1.3,0.1c1.4,0.3,0.4,0.9,0.4,1.3
								l-1.8,0.3l5.1,0.3L226.1,413.1z M278.3,340.4c-0.9-4.1-0.6-4.6-0.3-7.4C278.5,333.9,278.7,337.6,278.3,340.4z M205.9,388
								c0.6,6.9,1.8-3.3,2.4,1.2l-0.1-3.6c1.3,5.9-1.3,4.2-1,8.4l-0.2-2.8c-1.1-2.2-0.8,4.3-1.7,4.8
								C204.8,392.7,205.7,385.2,205.9,388z M279.1,333.9c-1.2-6.9,1.2-5.7,1.4-9.8C281.6,329.5,279.4,328.7,279.1,333.9z
								 M235.7,417.5l-0.4,0.2l5.6,0.7l0.4-0.2L235.7,417.5z"/>
							<path class="st1" d="M267.2,325.4c-0.1-1.7-0.1-2.8,0-3.7C267.2,322.8,267.2,324,267.2,325.4z"/>
							<path class="st1" d="M190,246c-0.2,0.3-0.5,0.5-1,0.6C189.1,246.4,189.4,246.2,190,246z"/>
							<path class="st1" d="M186.7,242.9c0-0.1,0-0.2,0-0.2c0-0.1,0.1-0.2,0.1-0.2L186.7,242.9z"/>
							<path class="st1" d="M321.1,202.1c-0.9,1.4-0.9,0.7-0.6-0.7c0-0.2,0.1-0.3,0.1-0.5c0-0.2,0.1-0.4,0.1-0.5
								c0.1-0.3,0.1-0.6,0.2-0.9c0.1-0.6,0.3-1.2,0.3-1.6c-0.1,0.8,0.1,1.4,0.2,2c0.1,0.3,0.1,0.5,0,0.9
								C321.5,201.2,321.4,201.6,321.1,202.1z"/>
							<path class="st1" d="M321.1,188.4c0.7,0.3,1.7,0.5,2.9,0.7c-0.1,0.6-0.2,1.2-0.3,1.9c0-0.5,0.1-1.1,0.2-1.8
								C323.1,189.1,322.2,188.9,321.1,188.4z"/>
							<path class="st1" d="M323.2,199.1c0-3.2,0.1-5.8,0.5-8.1c-0.1,1,0,1.9,0,3.1C323.7,195.3,323.6,196.9,323.2,199.1z"/>
							<path class="st1" d="M275.2,184.9c-0.3,1.3-0.5,2.9-0.5,4.4c1.3,0.1,2.6,0,3.6,0c1,0,1.7-0.1,1.7-0.1c-6.9,0.4-7,0.8-4.6,1.2
								c2.3,0.4,7,0.8,7.6,1.1c-6-0.2-7.9-0.7-9.2-1.4C274.2,188.6,274.7,187,275.2,184.9z"/>
							<path class="st1" d="M275.6,168.5c0,1.2,0,2.4,0.2,3.3C275.6,170.7,275.6,169.6,275.6,168.5z"/>
							<path class="st1" d="M274.8,164c0.1-2.2,0.6-3.6,1.2-4.7c0.3-0.5,0.6-1,0.9-1.4c0.3-0.4,0.7-0.7,1-1.1
								c-0.4,2.4-0.9,4.2-1.3,6.1c-0.4,1.9-0.8,3.6-1,5.5C275.6,165.6,275.7,162.7,274.8,164z"/>
							<path class="st1" d="M307.5,100.9c1,0.1,3.2,0.1,3.3,0.7l-6.9,0C301.1,101.3,306.1,101,307.5,100.9z"/>
							<path class="st1" d="M281.9,98.2c-5.6-0.1-2.7,1.4-5.5,1l0.3-1.9L281.9,98.2z"/>
							<path class="st1" d="M285,88.4l1.6,0.2c-0.6,0-1.2,0-1.9-0.1L285,88.4z"/>
							<path class="st1" d="M256.5,102c0,0,0.2,0.1,0.6,0.2c0.4,0.1,0.9,0.3,1.3,0.5c1,0.4,1.9,0.7,1.9,0.7c-1.1,0.1-1.9,0-2.5-0.1
								c-0.6-0.1-1-0.3-1.3-0.4C256,102.5,256.1,102.1,256.5,102z"/>
							<path class="st1" d="M239.4,110.4c0,0,0.7-0.2,1.4-0.4c0.3-0.1,0.7-0.2,1-0.3c0.3-0.1,0.4-0.1,0.4-0.1s-0.1,0-0.3,0.2
								c-0.2,0.1-0.5,0.3-0.9,0.5c-0.7,0.4-1.8,0.9-2.7,1.4c-0.5,0.3-1,0.6-1.4,0.8c-0.4,0.3-0.8,0.6-1.2,0.8
								c-0.7,0.5-1.2,0.8-1.2,0.8s0.3-0.2,0.7-0.6c0.5-0.3,1-0.8,1.7-1.3c0.6-0.4,1.3-0.9,1.7-1.2
								C239,110.6,239.4,110.4,239.4,110.4z"/>
							<path class="st1" d="M222.9,125.8c0,0,0,0.2,0,0.5c0,0.2,0,0.5,0,0.5s-0.2,0.3-0.6,0.8c-0.3,0.5-0.8,1.1-1.2,1.8
								c-0.4,0.7-0.8,1.4-1.1,1.9c-0.3,0.5-0.5,0.9-0.5,0.9s0.2-0.4,0.5-1c0.3-0.6,0.7-1.4,1.1-2.2c0.4-0.8,0.9-1.6,1.2-2.1
								C222.7,126.1,222.9,125.8,222.9,125.8z"/>
							<path class="st1" d="M215.9,338.7c-1.8,1.1-1.1-10.1-1.5-13.3C216.7,327.6,213.6,334.3,215.9,338.7z"/>
							<path class="st1" d="M268,335l-0.4,10.6C266.9,337.4,267.6,343.4,268,335z"/>
						</g>
					</g>
				</g>
				<g>
					<g>
						<g>
							<path class="st1" d="M421.9,8.2c-0.8-0.4-2.1-0.9-3.1-1.3c1.5,0.5,2.7,0.9,3.2,1.1C422.6,8.2,422.6,8.3,421.9,8.2z"/>
							<path class="st1" d="M377.6-0.8c5.9,0,13.5,0.5,21,1.8c1.9,0.4,3.7,0.7,5.6,1.1c1.8,0.5,3.6,0.9,5.3,1.4
								c1.7,0.6,3.3,1.1,4.9,1.6c1.6,0.5,3,1.2,4.4,1.7c-1.2-0.4-2.7-0.9-4.4-1.3c-1.7-0.4-3.6-0.9-5.6-1.4c-2-0.4-4.2-0.9-6.3-1.3
								c-2.2-0.3-4.4-0.8-6.5-1c-2.2-0.2-4.3-0.6-6.2-0.8c-2-0.2-3.8-0.4-5.5-0.6C380.9,0.1,378.5-0.3,377.6-0.8z"/>
							<path class="st1" d="M422.5,12.2c0,0-0.8-0.4-2-0.9c-1.2-0.6-2.9-1.1-4.5-1.8c-1.6-0.7-3.3-1.2-4.6-1.6
								c-1.3-0.4-2.1-0.7-2.1-0.7c2,0.4,3.5,0.8,4.6,1.1c1.1,0.3,1.8,0.7,2.6,1.1C417.8,10,419.2,10.7,422.5,12.2z"/>
							<path class="st1" d="M418.4,8.5l1-0.5c0,0,0.4,0.2,1.1,0.5c0.7,0.3,1.5,0.8,2.4,1.2c0.9,0.4,1.7,0.9,2.4,1.2
								c0.6,0.3,1.1,0.6,1.1,0.6s-0.5-0.2-1.2-0.5c-0.7-0.3-1.7-0.7-2.7-1.1C420.4,9.1,418.4,8.5,418.4,8.5z"/>
							<path class="st1" d="M239.2,510.3c1.5,0.3,2.4,0.7,1.7,1.2L239.2,510.3z"/>
							<path class="st1" d="M205.5,506.7c-3-0.1-5.1-0.2-7-0.2C200.6,506.4,202.4,506.5,205.5,506.7z"/>
							<path class="st1" d="M269.9,510l-6,0.1C265.8,510,267.9,509.9,269.9,510z"/>
							<path class="st1" d="M507,309.5c0.6-5.6,1.1-10.9,1.5-14.9C509,305.5,507.7,306.4,507,309.5z"/>
							<path class="st1" d="M60,474.6l-1.5-0.3C57.5,473.2,57.1,472.6,60,474.6z"/>
							<path class="st1" d="M197.4,496.1c0.1,0.4-0.2,0.6-0.8,0.8c-0.6-0.1-1.2-0.1-1.7-0.2L197.4,496.1z"/>
							<path class="st1" d="M293.6,508.7c0.1,0,0.2,0,0.3-0.1l4.9,0.4C296.2,509.1,294.6,509,293.6,508.7z"/>
							<path class="st1" d="M29.8,443c-0.8-1.8-1.4-3.6-1.8-5.3C30,441.4,30.6,443.4,29.8,443z"/>
							<path class="st1" d="M197.7,506.5C197.7,506.5,197.7,506.5,197.7,506.5c0.2,0,0.6,0,0.8,0C198.2,506.5,198,506.5,197.7,506.5
								z"/>
							<path class="st1" d="M246.1,496.8c-2.6-0.1-5-0.2-7.7-0.3C241.7,496.3,244.4,496.5,246.1,496.8z"/>
							<path class="st1" d="M507,309.5c-0.2,1.6-0.3,3.1-0.5,4.7C506.5,312,506.7,310.6,507,309.5z"/>
							<path class="st1" d="M456.7,26.3c0.9,0.7,1.7,1.3,2.3,1.9c0.6,0.6,1,1,1.3,1.4c0.6,0.8,0.9,1.3,1.1,1.7
								c-0.9-0.9-1.8-1.8-2.5-2.7C458,27.7,457.3,27,456.7,26.3z"/>
							<path class="st1" d="M366.1-4.1l1.9,0C367.2-4.1,366.6-4.1,366.1-4.1z"/>
							<path class="st1" d="M185.7-5.8c-0.8-0.1-1.7-0.3-2.4-0.5C184.8-6.5,185.7-6.2,185.7-5.8z"/>
							<path class="st1" d="M39.1,49c3.3-4.4,7.4-8.2,11.7-11.3c0.5-0.4,1.1-0.8,1.6-1.2c0.6-0.4,1.1-0.7,1.6-1.1
								c1.1-0.7,2.2-1.5,3.2-2.2c2.2-1.3,4.2-2.7,6.2-3.9c0,0-0.8,0.3-1.6,0.5c-0.4,0.1-0.8,0.3-1.1,0.4c-0.3,0.1-0.5,0.2-0.5,0.2
								s0.1-0.1,0.3-0.2c0.2-0.1,0.5-0.3,0.9-0.5c0.8-0.4,1.8-1,2.9-1.6c0.5-0.3,1-0.6,1.5-0.8c0.5-0.2,1-0.5,1.4-0.7
								c0.8-0.4,1.3-0.7,1.3-0.7L68.2,25c7-3.8,15-7.5,22.2-9.8c7.2-2.3,13.5-3.4,16.5-3l-2.1-1.5c0,0,1.1-0.1,2.6-0.2
								c1.6-0.2,3.7-0.2,5.8-0.3c2.1-0.1,4.2,0,5.8,0c0.8,0,1.4,0,1.9,0.1c0.5,0,0.7,0,0.7,0s-0.6-0.1-1.5-0.2
								c-0.9,0-2.1-0.1-3.3-0.2c-2.4-0.2-4.8-0.1-4.8-0.1c2.3-0.4,4.9-0.5,7.4-0.8c1.3-0.1,2.6-0.1,4-0.1c1.3,0,2.6-0.1,4.1,0
								c5.8,0.1,11.7,0.2,17.2,0.4c10.8,0.3,19.6,0.7,21.8,0.6l-1.8-0.7c3.3-0.3,6,0.1,9.4,0.3l-2.7-1c30.7,0.3,39.1-2,73.3-0.9
								c9.3-0.2-5.2-0.3-5.3-0.9c5.1-0.8,17.1,0,19.7,0.4c-2.7-1.6-17.2-1.1-6.2-2.4c7.8,0.8-5.3-1.5,8.4-1.2l5.4,2
								c7.6-0.4,1.5-1.6,13.6-1.4c13.8,0.9-16.8,2.3,5.3,2.6c11.1-0.1,23.4-4.7,44.9-3.6c18.6-1.1-9.8-3.2,15.9-2.6l-16.4-1.3
								c4.3-0.6,1.6-1.6,12.7-1.2C346.1-1,353,0,359,0.1c-24.1-1.5,21.1-2.3-1.3-4.3l8.4,0.1c-1-0.1-1.3-0.3-0.8-0.4l11.1-0.1
								c-6.8-0.4-23.1-0.6-15.6-2.1l16.1-0.4c-4.3-1.1,1.6-1.6,0.7-2.5l-47.3-2.2c1.9,0.7,8.7,1.1,6.1,1.8
								c-12.6,0.6-10.3-1.2-22.2-0.3l5.2,0.9c-0.9-0.3-2.6-0.4,0-0.6c4.2-0.6,6,0.1,6,0.7c-4.2,1.1-16.1,0.4-19.7-0.4
								c-15.4,0.1-3.2,2-6.5,2.4c-7.9-1.9-25.6,0-35.2-0.8l6.1,1.2c-11.7,1.5-22.1,0.3-29-0.2l2.7,1c-16.3-0.2-24.3,3.2-36.7-0.4
								l1.7,0.7c-6.7,0.3-16.8,1.1-23.2,0c-0.1,0.4-1.3,0.9-4,1.1c-3.6-1.4-10.6-0.3-20.4-0.1c6.5,0.4,4.4,2.2,11.3,2.6
								c-15.2,1.8-13.9-2-26.7-2c-7.6,0.9,6.9,1,8.7,1.7c-9.8-0.5-20,0.5-29.2,1.3c-9.3,0.8-17.4,2.2-23.9,1.7c0,0,2.1-0.7,4.1-1.3
								c1-0.4,2.1-0.6,2.9-0.8c0.8-0.2,1.3-0.4,1.3-0.4c-8.1,0.3-12.4,1.4-11.3,1.5c1.2-0.4,2.1-0.5,2.8-0.5c0.7,0,1.1,0.1,1.6,0.2
								c-2.9,0.7-5.7,1.6-8.3,2.2c-2.6,0.7-5.1,1.4-7.6,2.1c-1.2,0.4-2.4,0.7-3.6,1.1c-0.6,0.2-1.2,0.3-1.8,0.5
								c-0.6,0.2-1.2,0.4-1.7,0.6c-2.3,0.7-4.6,1.4-6.8,2.3c-1.1,0.4-2.3,0.8-3.4,1.2c-1.1,0.5-2.2,0.9-3.4,1.4
								c-2.3,0.9-4.5,2-6.8,3.2c-1.2,0.6-2.3,1.2-3.4,1.9c-1.2,0.7-2.3,1.4-3.5,2.1c-2.3,1.6-4.7,3.2-7.1,5.3c0.9-0.3,2.1-1,3.1-1.5
								c1-0.5,1.9-0.9,2.1-0.7c-2.2,1.7-3.9,3-5.5,3.9c-1.7,0.9-3.1,1.7-4.7,2.6c-0.8,0.5-1.7,0.9-2.6,1.5c-0.9,0.6-1.9,1.4-2.9,2.2
								C34,32,32.8,33,31.6,34.3c-0.6,0.7-1.2,1.4-1.9,2.1c-0.3,0.4-0.7,0.8-1,1.2c-0.3,0.4-0.7,0.9-1,1.3c0,0,0.7-0.6,1.5-1.1
								c0.8-0.5,1.5-1,1.5-1c-0.5,0.6-1,1.1-1.4,1.7c-0.5,0.5-0.9,1.1-1.3,1.5c-0.9,0.9-1.7,1.7-2.4,2.3c-1.4,1.2-2.2,1.8-2,1.4
								c0.3,0.3,0.1,1-0.5,2c-0.5,1-1.4,2.3-2.4,4c-1,1.6-2.4,3.5-3.6,5.6c-0.7,1.1-1.4,2.2-2.1,3.3c-0.7,1.2-1.3,2.4-2,3.6
								c-1.4,2.4-2.6,5.1-3.9,7.6c-0.6,1.3-1.1,2.6-1.7,3.9c-0.3,0.7-0.5,1.3-0.8,1.9c-0.2,0.7-0.4,1.3-0.7,1.9
								c-0.4,1.3-0.8,2.5-1.2,3.7c-0.3,1.2-0.6,2.4-0.8,3.5C3.7,86,3.5,87.1,3.4,88c-0.1,1-0.1,1.9-0.1,2.7
								c-2.1,4-4.8,12.2-6.2,20.6c-0.4,2.1-0.6,4.2-0.8,6.2c-0.3,2-0.3,4-0.4,5.8c0,0.9,0,1.8-0.1,2.6c0,0.8,0,1.6,0,2.3
								c0,1.4,0.1,2.6,0.2,3.6c1.8,10.9,2-9.7,3.7-5.6c0,8.5-1.7,13-1.1,25.8c-1.7,0.2-3.4-25.2-4.4-1.2l0.9,3.4
								c-0.1-2.5-0.5-5.9-0.2-9.4c1-6.9,1.1,4.2,1.6,5.7l-0.5,25.7c-1.8,1.9-1.4-13.5-1.8-15.1c0.4,20.4,3,44.8,1.8,63.8l0.7-1.8
								c-1.5,24.1,3.3,14.1,0.4,33.3c0.5,10.1,1.9-3.7,2.1,11.7c0,4.3-0.7,1.8-0.9,1c-0.6,18.8,1.7,8.3,0.1,25.6l1.9-3.7
								c-1.3,20.7-4.7,42.4-3.8,60.2c1.5-1.1,1.3-12.1,2.5-16.5c-1.3,12.1-1.4,26.6-1.3,40.9c0,7.2,0.5,14.5,1.5,21.2
								c1,6.8,2.4,13,3.7,18.6c-1.5-3.1-1.5-0.3-1.7,1.6c-0.1,0.9-0.2,1.7-0.7,1.3c-0.2-0.2-0.6-0.7-1-1.5c-0.4-0.9-0.9-2.2-1.6-3.9
								c0.3-2.1-0.1-4.8-0.9-8c-0.7-3.2-1.7-6.8-2-10.9c-1.4,6.7,1.7,20.4,7,31.8c2.5,5.8,5.5,11,7.7,15.1c1.2,2,2.1,3.8,2.7,5.2
								c0.6,1.4,1,2.5,0.9,3.1l3.1,2.1c0.9,1.5,2.5,4.3,3.4,6.1c0.9,1.8,1.1,2.6-1.1,0.2c0,0,0.3,0.3,0.7,0.9
								c0.5,0.5,1.1,1.3,1.9,2.3c1.5,1.9,3.8,4.3,6.1,6.7c4.6,4.7,9.6,8.9,9.6,8.9c-3-3.5-7.4-9.1-11.2-14.6
								c-3.8-5.5-7.2-10.6-9.4-12.7c-1.3-3.5,0.3-1.4,2,0.7c1.8,2.1,3.7,4.1,2.6,1c1,1.9,1.8,3.5,2.6,4.7c0.8,1.2,1.5,2.2,2.1,3
								c1.2,1.6,2.3,2.5,3.3,3.3c1.1,0.8,2.1,1.7,3.8,3c0.8,0.7,1.7,1.5,2.8,2.6c1.1,1.1,2.4,2.3,3.9,3.8c-1.8-1-2-0.6-1.4,0.6
								c0.6,1.2,2.2,3,4,4.9c0.5,0.5,0.9,1,1.4,1.5c0.5,0.5,1,0.9,1.5,1.4c1,0.9,1.9,1.8,2.6,2.6c1.6,1.5,2.7,2.5,2.3,2.6
								c1.2,0.8,2.8,1.9,4.6,3c1.8,1.2,3.6,2.6,5.6,3.8c1,0.6,1.9,1.3,2.8,1.9c0.9,0.6,1.9,1.2,2.7,1.7c1.7,1.1,3.2,2.1,4.3,2.8
								c4.6,2.4,12.8,5.3,21.9,7.4c2.3,0.6,4.6,1,7,1.5c2.3,0.4,4.7,0.8,7.1,1.2c2.3,0.3,4.7,0.6,6.9,0.9c2.3,0.2,4.4,0.4,6.5,0.7
								c-3.1-0.6-7.1-1.2-10.2-2.2c-3.1-0.8-5.2-1.9-4.7-2.4c7.7,2.2,16.6,2.6,18.2,1c-7-0.9-11-1.6-13.5-1.8
								c-2.6-0.1-3.7,0.1-4.7,0.5c-1,0.3-2,0.7-4.3,0.6c-2.3-0.2-5.9-0.9-11.9-3.2c-2.8-1.9-5.8-3.4-9.5-5.4
								c-3.7-1.9-8.2-4.2-13.8-7.6c5.7,1.9,3.6,0.2,6.3,0.2c0.8,0.7,1.6,1.3,2.5,1.9c0.9,0.6,1.8,1.2,2.8,1.8
								c1.9,1.2,4.1,2.1,6.3,3.2c4.6,1.9,9.6,3.5,15,4.6c5.3,1.2,10.9,1.9,16.4,2.5c2.8,0.2,5.5,0.5,8.2,0.6c1.3,0.1,2.7,0.2,4,0.3
								c1.3,0.1,2.6,0.2,3.9,0.3c8.7,1.1,2.2,3.5,21.9,3.9l-16.9,1.2c18.6-1.1,4.4,1.1,19.7,1.5l-6.1-1.2c9.4-0.2,12.9,0,18.1,0.9
								l-8-1.9c5.1-0.2,14.5-0.5,14.6,0.6c1.3-0.5,1.8-0.8,1.8-1.2c1,0.3,3.4,0.5,9.3,0.5c-3.5-0.2-6-0.1-6.1-0.7
								c22.6,0.5,5.3-2.1,19.3-1.9c-2.2-0.4,1.8-1,6.8-1.2c-0.3,3,27.4,3.4,34.8,5.1l-0.1,0l18.9,1.2c-3.8-0.2,0.3-1.1,5.8-1.4
								l-0.9,0c6-0.5-7.2-3.3,10.9-2.4l9.5,0.9c-1.7-0.1-0.1-0.6,0.8-0.8l9.8,0.8c14.9-2.8,28.2,1.6,45.8,0.2
								c-5.1,0.2-12.8,0-9.5-0.9c3.4-0.3,8.5,0,11.2,0.4l-0.9-0.3l33.5,1.9c-2.7-1-21.5-1.1-13.1-2.2c2.5-0.7,6.1-0.7,9.9-0.5
								c1.9,0.1,3.8,0.3,5.6,0.4c1.8,0.1,3.6,0.2,5.2,0.2c-0.8,0.8-12.2,1.7-0.6,1.9c1.5-0.3,12.4-2,7.2-2.2c1.5,0,3.1,0,4.7-0.2
								c1.6-0.1,3.3-0.2,5-0.4c1.7-0.2,3.5-0.4,5.2-0.7c1.8-0.2,3.5-0.6,5.3-0.9c7-1.3,13.9-3.1,19.1-4.5c3.1-1.6-2.1,0.1-3.8,0.6
								l-0.7,0.5c-3.5,1-3.9,0.6-5.1,0.6c-0.6,0-1.4,0.2-2.9,0.5c-0.7,0.2-1.6,0.5-2.8,0.8c-0.6,0.2-1.2,0.4-1.9,0.6
								c-0.7,0.2-1.5,0.4-2.3,0.7c-0.4-0.6,0.6-1.2,2.5-1.9c0.9-0.4,2.1-0.8,3.5-1.2c0.7-0.2,1.4-0.4,2.1-0.6
								c0.7-0.2,1.5-0.5,2.3-0.8c6.4-2,14.3-4.9,19.6-8.1c0,0-1.1,0.5-2.8,1.1c-1.7,0.7-4,1.5-6.3,2.3c-2.3,0.8-4.7,1.4-6.4,1.9
								c-0.9,0.3-1.6,0.4-2.1,0.6c-0.5,0.1-0.8,0.2-0.8,0.2c7.4-3.5,15.2-7.5,22.9-12.3c7.7-4.7,15.4-10.3,22.4-16.6
								c7-6.3,13.5-13.3,18.9-20.7c5.4-7.4,9.7-15.1,12.8-22.5c-2.9,9.1-7.8,15.6-5.4,15.6c0.7-1.1,1.4-2.1,1.9-3
								c0.5-1,1.1-1.9,1.5-2.7c0.5-0.8,0.9-1.6,1.3-2.3c0.4-0.7,0.7-1.4,1.1-2.1c0.6-1.3,1.2-2.5,1.7-3.6c0.5-1.1,0.9-2.1,1.3-3.2
								c0.4-1,0.9-2,1.3-3.2c0.4-1.1,0.8-2.4,1.3-3.7c0.2-0.7,0.5-1.4,0.8-2.2c0.2-0.8,0.5-1.7,0.8-2.6c0.3-0.9,0.6-1.9,0.9-3
								c0.3-1.1,0.6-2.2,0.9-3.5l-0.5,1.7c0.2-1.3,0.4-2.7,0.7-4.1c0.3-1.4,0.5-2.8,0.8-4.3c0.6-2.9,1-5.9,1.5-8.7
								c0.2-1.4,0.3-2.9,0.4-4.2c0.1-1.4,0.2-2.7,0.2-3.9c0-2.5-0.2-4.7-0.6-6.4c-0.3,1.1-0.4,2.6-0.4,4.2c0,0.8,0,1.6,0,2.5
								c0,0.8-0.1,1.7-0.1,2.5c-0.1,1.6-0.1,3.1-0.4,4.1c-0.2,1.1-0.6,1.7-1.2,1.7c0,0,0.2-1.6,0.4-3.9c0.1-1.2,0.2-2.6,0.3-4.1
								c0.1-1.5,0.1-3.1,0.2-4.7c0.1-1.6,0.1-3.2,0.1-4.6c0-1.5,0-2.8,0-4c0-2.3,0-3.9,0-3.9c-0.7,3.9-0.6,10-0.8,16.6
								c-0.3,6.5-0.9,13.3-2,18c-0.6,3.4,0.1,0,1.1-3.9c0.8-3.9,1.7-8.3,2.3-6.5c-0.4,3-0.7,5.7-1.2,8.1c-0.5,2.4-0.9,4.6-1.5,6.5
								c-1,3.9-2.2,7-3.3,9.7c-2.4,5.3-4.7,9-8,13.8c-2.2,2.8-1.5,0.4,0-3.3c0.6-1.9,1.4-4,2.1-6c0.7-2,1.2-3.7,1.6-4.8
								c3.3-6.6,6.3-15.4,7.8-25.5c0.1-1.3,0.3-2.6,0.4-3.9c0.1-0.7,0.1-1.3,0.2-2c0-0.7,0.1-1.3,0.1-2c0.1-1.3,0.1-2.7,0.2-4.1
								c0-1.4,0-2.7,0-4.1c0-5.5-0.1-11.1-0.4-16.8l-1.7-12.6c1.6-11.3,4.6-6.5,4.2-27l-1.2,6.1c-0.5-4.5-0.6-7.4-0.6-9.6
								c-0.9,8.8-2,18.3-3,26.3c-2.6-11.7,1.3-33.5,1.8-50.6c-0.3,0.9-0.4,6.9-1.1,8.7c-0.6-25.6,2.5-52.3,2.9-72.1
								c-1.1-8.3-0.8,16.4-2.5,12.3c0.7-10.4-0.8-22.1,0.7-24.9c-2.3,4.5-0.2-23.9-2.3-4c-0.5-18.7-0.2-38.4,0.3-58.1
								c0.2-4.9,0.3-9.9,0.5-14.8c0.1-2.5,0.2-4.9,0.3-7.4l0.1-3.7l0-3.7c0-9.8-1-19.6-3.2-28.9c-0.1,1-0.3,1.5-0.5,1.6
								c-0.3,0.1-0.6-0.2-1-0.9c1.7,6.2,2.9,14,3.2,21.2c0,1.8,0.1,3.5,0.1,5.2c-0.1,1.7-0.2,3.2-0.3,4.7c-0.2,2.9-0.6,5.5-1,7.2
								c-0.3-2.1-0.3-4.4-0.3-6.7c0-2.2,0.2-4.5,0.3-6.6c0.1-2.1,0.2-4,0.2-5.5c-0.1-1.5-0.2-2.7-0.4-3.3c0.2,4.3,0.5,12.6-0.7,12.8
								c-0.2-1.3-0.3-2.6-0.5-3.8c-0.2-1.2-0.3-2.3-0.4-3.4c-0.1-2.2-0.3-4.1-0.4-6c0-1.9-0.2-3.7-0.3-5.5c-0.1-0.9-0.1-1.8-0.2-2.7
								c-0.1-0.9-0.3-1.8-0.5-2.7c0,0,0.4,1,0.7,1.9c0.2,0.5,0.3,1,0.5,1.3c0.1,0.4,0.2,0.6,0.2,0.6c-0.1-1.5-0.4-2.8-0.5-4
								c-0.2-1.2-0.3-2.3-0.5-3.4c-0.3-2-0.6-3.6-0.7-5c-0.3-2.8-0.6-4.5-0.8-6.3c-0.2-1.8-0.7-3.6-1.6-6.4c-1-2.8-2.7-6.7-5.8-12.3
								c-5.9-7.4-0.9,0.6-2.4,1.6c-0.6-1.4-1.7-3.4-3.2-5.7c-1.5-2.3-3.3-4.9-5.2-7.4c-0.5-0.6-0.9-1.3-1.4-1.9
								c-0.5-0.6-1-1.2-1.4-1.8c-1-1.2-1.8-2.4-2.7-3.5c-1.8-2.1-3.1-4.1-3.8-5.5c0,0,0.7,0.7,1.6,1.8c0.9,1.1,2.2,2.5,3.5,4
								c1.2,1.5,2.4,3,3.3,4.1c0.9,1.2,1.4,1.9,1.4,1.9c-5.9-9.1-13.1-16.4-18.3-21.8c0.3,0.8,0.6,1.4,2.1,3.1
								c-0.4-0.4-0.7-0.8-1.1-1.2c-0.4-0.4-0.8-0.8-1.2-1.2c-0.8-0.8-1.7-1.6-2.5-2.4c-1.7-1.6-3.5-3-5.2-4.4
								c-1.7-1.4-3.3-2.6-4.7-3.8c-1.4-1.1-2.6-2.1-3.4-2.9c0,0-0.8,0.1-1.5,0.1c-0.4,0-0.7,0.1-1,0.1c-0.3,0-0.5,0.1-0.5,0.1
								c1.2,0.5,2.9,1.4,4.8,2.5c1.9,1.1,3.9,2.5,5.9,3.9c1.9,1.5,3.7,2.9,5.1,4.2c1.3,1.3,2.3,2.4,2.6,3c-0.5,0.1-1.6-0.6-3-1.6
								c-1.4-1.1-3.2-2.4-5.1-3.9c-0.9-0.8-2-1.5-3-2.2c-1-0.7-2-1.5-3-2.2c-2-1.3-3.8-2.6-5.3-3.4c1.6,0.9,3,2,4.4,2.9
								c1.4,0.9,2.6,1.8,3.7,2.7c1.1,0.9,2.2,1.7,3.2,2.6c1,0.9,1.9,1.7,2.7,2.4c3.3,3.1,5.8,5.8,8,8.4c1.2,1.3,2.2,2.6,3.3,3.9
								c0.6,0.7,1.1,1.3,1.7,2c0.6,0.7,1.2,1.4,1.8,2.2c0.6,0.8,1.3,1.5,2,2.4c0.7,0.8,1.4,1.7,2.1,2.7c1.6,1.8,3.1,4,5.1,6.4
								l-2-3.7c5.1,5.8,9,12.8,11.9,19.8c0.7,1.8,1.4,3.5,2,5.3c0.6,1.8,1.2,3.5,1.7,5.2c0.5,1.7,1,3.4,1.5,5.1
								c0.5,1.7,0.9,3.3,1.4,4.9c-1.4-3.5-2.2-4-2-2.3c2.4,6.9,4.1,14.1,5,21.4c0.2,1.8,0.3,3.7,0.5,5.5c0.1,0.9,0.1,1.8,0.2,2.8
								l0.1,2.8c0.1,1.8,0.1,3.8,0.1,5.7c0,1.9,0,3.9,0,5.9c0,15.7,0,31.9,0.4,49.3l-1.8,10.5l1.4,0.6c0.6,17-1.9,3.7-1.8,14.7
								c0-4.2,0.2-3.4,0.6-4.3c-1.5,19.8,1.3,11,0.8,22.1c1.5-5.3,0.5-21.4,2.5-16.4c-1.5,19.7-0.7,50.4-4,53.3
								c0.7,18.3,0.5,38.8,0.1,58.6c-0.2,9.9-0.4,19.6-0.6,28.8c-0.1,4.6-0.2,9-0.3,13.3c-0.1,4.2-0.1,8.3-0.2,12.1
								c0.5,4,0.5-2.5,0.9-0.9c-0.3,1.4-0.5,3.1-0.6,5c-0.1,1.8-0.4,3.8-0.5,5.9c-0.1,2.1-0.5,4.2-0.6,6.4c-0.2,2.1-0.6,4.3-0.8,6.3
								c-1.3,8.2-3.3,14.8-4.1,14.6c-0.6,2.7-1,4.7-1.1,6.2c-0.2,1.5-0.1,2.6-0.2,3.4c-3.7,6.6-8.3,14.3-14,21.8
								c0,0,1.1-1.3,2.2-2.7c1-1.4,2.1-2.8,2.1-2.8l-0.2,0.8c0,0-0.4,0.5-0.9,1.2c-0.5,0.8-1.3,1.7-2.1,2.7c-0.8,1-1.6,1.9-2.1,2.6
								c-0.3,0.4-0.6,0.6-0.7,0.8c-0.2,0.2-0.3,0.3-0.3,0.3l0.1-0.4c-7.3,9.2-16.4,18.2-26.6,25.2c-5.1,3.5-10.4,6.6-15.7,9
								c-5.3,2.4-10.7,4.3-15.8,5.5c1.5-0.4,2.6-0.6,3.3-0.7c0.7-0.2,1.2-0.2,1.4-0.1c0.4,0.1,0,0.5-0.7,1c-1.3,1-3.5,2.1-0.6,1.5
								c-5.6,0.6-14.5,2.7-24.8,3.7c-1.3,0.1-2.6,0.3-3.9,0.4c-1.3,0.1-2.7,0.2-4,0.2c-0.7,0-1.4,0.1-2,0.1c-0.7,0-1.4,0-2,0
								c-1.4,0-2.7,0.1-4.1,0.1c-5.8,0-11.7,0-17.3,0.1c0.1,0.6-1.6,1,1,1.5l-12.9-1.1l1.7,0.7c-23,0.5-48.1-2.5-63.3-1.2
								c9.4,0.3,9.4,0.9,10.4,1.8c-16.5-0.1-32-0.1-51.3-0.9c1,0.2,1.7,0.4,1.7,0.6c-5,0.2-11.1-0.4-16.3-0.8l-0.7,1.4
								c-9.9-0.6-22.6,0.1-34.3-1c-4.6,1.5-28.4-1.4-41.9-0.8c-5.2-0.3,11.3,1.6-3.2,1.5c-2.1-2.9-18.8-0.1-20-3.2
								c0,0-3.1,0.3-6.3,0.6c-1.5,0.1-3,0.2-4.1,0.3c-1.1,0.1-1.9,0.1-1.9,0.1l-2.5-1.8c-2.5,0.6-4.8,0.6-6.9,0.3
								c-0.5-0.1-1.1-0.1-1.6-0.2c-0.5-0.1-1-0.2-1.5-0.4c-1-0.3-2-0.6-3.1-0.9c-1.1-0.3-2.1-0.8-3.3-1.2c-1.1-0.4-2.3-0.8-3.6-1.3
								c-1.3-0.5-2.6-1-4.1-1.4c-1.5-0.4-3.1-1-4.9-1.5c0.6,0.6,2.1,1.2,1.3,1.2c-1.1-0.5-2.6-1-4-1.7c-1.4-0.7-2.8-1.3-3.9-1.8
								c-1-0.5-1.6-1-1.5-1c0.1-0.1,1,0.2,3.1,0.8c-0.5-0.2-1-0.4-1.5-0.6c-0.6-0.3-1.2-0.5-1.8-0.9c-1.3-0.6-2.8-1.2-4.3-2.1
								c-1.5-0.8-3.1-1.6-4.6-2.5c-1.5-0.9-2.9-1.7-4.3-2.5c-2.6-1.7-4.7-2.9-5.5-3.3c-0.4-0.2-0.6-0.2-0.3,0.2c0.2,0.3,0.9,1,2,2
								c-0.1-0.6,2,0.8,4.7,2.5c1.4,0.8,2.9,1.9,4.3,2.7c1.4,0.9,2.8,1.7,3.8,2.3c-0.3,0.2-1.1,0-2.3-0.4c-1.2-0.4-2.7-1.1-4.2-1.8
								c-1.5-0.8-3.2-1.5-4.6-2.2c-1.4-0.7-2.6-1.2-3.5-1.3c-0.3-0.3-1.4-1.4-2.2-2.3l-1.9-0.3c-5.7-5-11.3-10.2-16-15.4
								c-4.7-5.2-8.6-10.6-10.8-15.6c-0.4-0.1-0.9-0.7-1.8-1.8c-0.8-1.1-2-2.7-3.2-4.9l1.4-1c0,0-0.5-0.8-1.2-2.1
								c-0.7-1.3-1.6-3-2.5-4.8c-0.9-1.7-1.6-3.5-2.3-4.9c-0.3-0.7-0.5-1.2-0.7-1.6c-0.2-0.4-0.2-0.6-0.2-0.6s0,0.5,0.1,1.2
								c0,0.7,0.2,1.7,0.3,2.6c0.1,1,0.2,1.9,0.3,2.7C20,428.6,20,429,20,429c-4-7.8-5.9-15.1-7.1-22c-1.1-7-1.3-13.6-1.6-20.6
								c-0.4-0.4-0.7-1.2-0.9-2.2c-0.2-1-0.3-2.3-0.4-3.8c0-0.7-0.1-1.5-0.1-2.4c0-0.9,0-1.8,0-2.8c0.1-2,0.1-4.1,0.2-6.2
								c0.3-8.7,0.7-18.5-0.6-25.2l-0.8,12c0.5-25.7-1.2-29.8-0.2-53.7c0.9,20.3,0.4,20.4,2.7,50.1c-1.2-29.7,1.6-51.4,0-78.6
								c-0.7,1.8-1.1,8.6-1.8,2c1.5-5.3-0.1-25.6,1.7-21.6c-0.6-8.5-2.2-9.9-2.4-15.1l2.1-28.4l-0.3,0.9c-2-24.1-1.3-46.6-0.4-69.1
								c0.1-2.8,0.2-5.6,0.4-8.5l0.2-4.2l0.1-2.1l0-1.1l0.1-1c0.2-2.6,0.3-5.2,0.7-7.8c0.2-1.3,0.3-2.6,0.5-3.9
								c0.2-1.3,0.4-2.6,0.6-3.9c1-5.1,2.1-10.3,3.6-15.4c0.7-2.6,1.6-5.1,2.4-7.7c1-2.5,1.8-5.1,2.9-7.6l-1.2,0.4
								c0,0,0.4-0.6,0.9-1.5c0.5-0.9,1.3-2.1,2.1-3.2c0.8-1.1,1.6-2.3,2.1-3.2c0.6-0.8,1-1.4,1-1.4c-1.3,1.7-1.8,2.4-2,2.4
								c-0.2,0,0-0.8,0.4-1.8c0.8-1.9,2.2-5,2.1-5.4c0,0,1.1-1.4,2.7-3.6c1.7-2.1,3.9-4.9,6.3-7.5c1.2-1.3,2.4-2.6,3.6-3.8
								c0.6-0.6,1.1-1.2,1.7-1.7c0.6-0.5,1.1-1,1.6-1.4c1-0.9,1.8-1.6,2.4-2.2c0.6-0.5,0.9-0.8,0.9-0.8c0-0.5-0.7-0.8-1.9-0.3
								c-0.6,0.3-1.3,0.7-2.2,1.5C41.2,46.6,40.1,47.6,39.1,49z M24.2,435.7c0,0,0.8,1.5,1.7,3c0.9,1.5,1.8,2.9,1.8,2.9
								c0.4,0.6,0.8,1.1,1.2,1.7c0.4,0.6,0.8,1.2,1.2,1.9c0,0-0.6-0.9-1.2-1.8c-0.6-0.9-1.1-1.8-1.1-1.8
								C25.5,438.8,23.7,436.8,24.2,435.7z M498.4,283.9c0.8-3.5,0.2,5.1,0.4,7.6l0.2-12C498.5,277.8,498.5,282.2,498.4,283.9z
								 M14.9,441.5c0,0-0.8-0.8-1.5-1.5c-0.4-0.4-0.8-0.8-1-1.1c-0.3-0.3-0.5-0.5-0.5-0.5s-0.4-1.3-0.8-2.6
								c-0.2-0.6-0.4-1.3-0.6-1.8c-0.2-0.5-0.2-0.8-0.2-0.8s0.3,0.5,0.7,1.3c0.4,0.8,1,1.8,1.6,2.9c0.3,0.5,0.6,1,0.8,1.5
								c0.3,0.5,0.6,0.9,0.8,1.3C14.6,441,14.9,441.5,14.9,441.5z M-2.2,339.2l-0.7,10.4l-0.2-0.9l0.7-10.3L-2.2,339.2z M6.9,223.5
								c-0.1,0.7-0.1,1.3-0.2,2C6.7,224.9,6.8,224.2,6.9,223.5c0.8-8-1.2-11.2,0.8-17.7C9.4,213.8,7.6,219,6.9,223.5z M10,404.7
								c0.5,3.3,0.9,4.8,1.7,7.1c0.1-0.9-0.1-3-0.1-4.3c0.1-1.3,0.2-1.8,1,0.5c0.1,1.7,0.8,5.2,1.6,8.4c0.2,0.8,0.4,1.6,0.5,2.3
								c0.2,0.7,0.4,1.3,0.5,1.9c0.2,1.1,0.3,1.9,0.1,2c-0.3-1.2-0.7-2.3-1.1-3.4c-0.4-1.1-0.7-2.1-1.1-3.1c-0.4-1-0.8-1.9-1.1-2.7
								c-0.3-0.9-0.7-1.7-1-2.4c-0.6-1.5-1.2-2.8-1.3-3.8C9.5,406.1,9.6,405.3,10,404.7z M201.9,497.8l-2.6,0.1l9.6,0.9L201.9,497.8
								z M246.4,498.9c5.3,1.5,18.9,1.2,28.3,1.5c2.4-1.3-7.1-2.7-18.2-2.6C243.6,496.8,251.6,499.8,246.4,498.9z M4.8,326.5l-1,2.6
								l-0.1-2.5L3,337c-1.4-13.5,1.2-23.2,1.6-30.1C4.5,312.9,2,329.4,4.8,326.5z M341.3,499.7c9.5,0.9,26.6,2,25,3
								c0.6-1.9-13.1-2.8-17.4-2.8C346.5,500,344.7,499.9,341.3,499.7z M340.8,503.3c-13.8-0.9-14.7-1.8-25.2-3.6
								c13.6-0.8,17.3,1.7,15.7,2.7c9.5,0.9,7.7-0.4,12.7-0.6L340.8,503.3z M326.5,497.9l-5.6,0.3c-6.6,0.8-8,3-17.3,0.8l17.3-0.8
								C322.4,498,324.2,497.8,326.5,497.9z M436.5,482.5c0,0-0.3,0.1-0.8,0.3c-0.5,0.2-1.1,0.5-1.7,0.7c-1.3,0.5-2.5,0.9-2.5,0.9
								c2.4-1.2,3.7-1.8,4.4-2.1C436.5,482.1,436.6,482.2,436.5,482.5c0,0,1-0.4,2.1-0.9c0.5-0.2,1-0.4,1.4-0.6
								c0.4-0.2,0.6-0.3,0.6-0.3c-4.9,3.3-6.2,4-6.1,3.7C434.7,484.2,436.1,483.1,436.5,482.5z M354,498.5l-16.3-0.2
								C338.7,499.2,348.8,498.7,354,498.5z M434.2,485.7c-1.5,0.8-3.5,1.9-5.8,3c-1.1,0.5-2.3,1.1-3.5,1.6c-1.2,0.5-2.4,1-3.5,1.4
								c-2.2,1-4.3,1.6-5.6,2.1c-1.3,0.5-1.9,0.7-1.3,0.4c0.6-0.8,4.6-2.2,8.9-4c1.1-0.4,2.2-0.9,3.2-1.3c1.1-0.4,2.1-0.9,3.1-1.3
								C431.6,486.8,433.2,486,434.2,485.7z M502.4,156.2l-0.1,10.2l-1.4-5L502.4,156.2z M503.4,276.4l-0.7-2.5l0.1-6L503.4,276.4z
								 M503.1,387.2c-0.3-0.5-0.6-0.3-1,0.6c-0.1,0.8-0.3,1.6-0.4,2.2c-0.2,0.6-0.4,1.2-0.5,1.5c0.2-1.5,0.5-2.9,0.9-3.7
								c0.2-1.1,0.3-2.3,0.4-3.6c0.1-1.3,0.1-2.6,0.1-3.9c0-2.5-0.1-5-0.3-6.5c-0.6,1.8-0.6,8.6-1.2,11.1c-0.1-1.2-0.2-2.7-0.2-4.2
								c0-1.5,0.1-3.2,0.2-4.9c0.2-3.5,0.5-7.1,0.7-10.1c0.4-6.1,0.5-10.2-1.8-7c0.6-4.3,1.8-19,2.6-13.9
								c-0.1,5.8-0.1,14.2,0.1,22.3c0.1,4,0.3,8,0.4,11.4c0.1,1.7,0.1,3.3,0.1,4.8C503.1,384.8,503,386.1,503.1,387.2
								c0.2,0.5,0.3,1.5,0.2,3.5C503.2,390.2,503.1,388.8,503.1,387.2z M416.4,498.4c-1,0.3-1.9,0.5-2.6,0.7
								c-0.8,0.2-1.4,0.3-1.9,0.4c-1.1,0.2-1.7,0.3-2.1,0.4c-3.6,0.5-6.4,0.6-5.5-0.2c4.3-0.7,5.1-0.6,5.1-0.4
								c0,0.3-0.8,0.7,0.3,0.6c1.1-0.2,2.2-0.4,3.3-0.7C414.2,499,415.4,498.7,416.4,498.4z M390.6,504.1c0,0,0.9-0.1,2.2-0.1
								c1.3-0.1,3-0.2,4.8-0.3c1.7-0.2,3.4-0.4,4.7-0.5c1.3-0.1,2.2-0.3,2.2-0.3s-0.4,0-1.1,0.1c-0.7,0-1.5,0.1-2.4,0.1
								c-1.8,0.1-3.5,0.1-3.5,0.1s1.3-0.1,3.2-0.3c1-0.1,2.1-0.2,3.3-0.3c1.2-0.2,2.5-0.3,3.8-0.5c0.7-0.1,1.3-0.2,1.9-0.3
								c0.6-0.1,1.3-0.2,1.9-0.4c1.2-0.2,2.3-0.4,3.3-0.6c1-0.2,1.8-0.4,2.3-0.5c0.6-0.1,0.9-0.2,0.9-0.2c-0.7,0.3-1.4,0.6-2.1,0.9
								c-0.7,0.3-1.5,0.5-2.2,0.7c-1.5,0.5-3,0.9-4.4,1.3c-3,0.7-5.9,1.3-8.5,1.5c-1.3,0.1-2.5,0.2-3.7,0.3c-1.1,0-2.2,0-3.1,0
								C392.3,504.5,391.1,504.4,390.6,504.1z M385.8,505.4c0,0-0.7-0.2-1.5-0.4c-0.7-0.2-1.4-0.5-1.4-0.5s0.3,0.1,0.7,0.2
								c0.4,0.1,1,0.2,1.5,0.3c1.1,0.2,2.2,0.4,2.2,0.4L385.8,505.4l0.7,0.2c0,0-0.4,0-1,0c-0.6,0-1.6,0.1-2.7,0.1
								c-2.2,0-5.1,0-8-0.1c-5.8-0.2-11.6-0.3-11.6-0.3s5.6,0.1,11.2,0.2c2.8,0.1,5.6,0,7.8,0C384.4,505.5,385.8,505.4,385.8,505.4z
								 M149.6,503.4c-8.7,3.8,20.4,2.7,24.9,4.5c1-1.3,9.7-3.3-12.8-3.2c19.5-1.3,12.2,2.5,23.8-0.7c-9.3,0.2-20.6-0.8-22.3-0.9
								l11-0.1C168.1,500.7,157.3,504.2,149.6,503.4z M39.8,469.6c0,0-0.7-0.6-1.6-1.6c-1-0.9-2.2-2.3-3.5-3.6
								c-0.6-0.7-1.2-1.3-1.8-1.9c-0.6-0.6-1.1-1.2-1.5-1.8c-0.9-1-1.5-1.7-1.5-1.7s0.5,0.7,1.4,1.6c0.4,0.5,0.9,1.1,1.4,1.7
								c0.5,0.6,1.1,1.2,1.7,1.9c1.2,1.3,2.3,2.6,3.2,3.5c0.9,0.9,1.5,1.5,1.5,1.5L39.8,469.6z M-1,123.1c-0.2,0.3-0.5-0.7-0.7-2.4
								c-0.2-1.7-0.2-4.1-0.2-6.7c0-1.3,0.2-2.6,0.3-3.9c0.2-1.3,0.3-2.6,0.5-3.8c0.5-2.4,1.1-4.3,1.7-5.3
								C-1,110.2-1.8,120.6-1,123.1z M85.3,6c0,0-1,0.3-2.5,0.7c-1.5,0.5-3.4,1.2-5.3,1.8c-1.9,0.7-3.8,1.5-5.3,2.1
								c-1.4,0.6-2.4,1-2.4,1c0.5-0.8,1.6-1.6,3-2.4c1.5-0.8,3.3-1.6,5.4-2.2c2-0.7,4.2-1.4,6.4-2c1.1-0.3,2.1-0.6,3.1-0.9
								c1-0.3,2-0.6,2.9-0.9C93.6,3.4,87.5,4.4,85.3,6z M190.8-0.8l5.2,0.3l-5.4-2L190.8-0.8z M183.6-3.5c3.3-0.9-7.9-1.3-10.5-1.2
								L183.6-3.5z M279-5.3l-6.8,0.1l6.1,1.8L279-5.3z M268.2-3.2c-1.6-1.3-0.9-3-16.5-2.2C251-4,255.3-4,249.5-2.4
								c5.1,0.3,9.4-0.2,11.9-0.4c-3.5-0.2-7.6,0.4-8.6-0.5C258.6-3.8,264.6-3.7,268.2-3.2c0.5,0.5,1.4,0.9,3.5,1.1
								C271.6-2.5,270.3-2.9,268.2-3.2z M211.6-1.8c-2.1,0.2-3.8,0.3-4.7,0.6L206-1.5C208.1-2.1,210-2,211.6-1.8
								c2.3-0.2,4.9-0.3,7.6-0.5c1.7-1.1-9-1.9-11.8-2.6c5.1,0.3,9.5,1.4,16.2,0.8c-0.9-0.3,0-0.6-4.3-0.6l9.3-0.2
								c10.7,1.6,0.5,2.1-9.5,2.6c-0.3,0.3-1.1,0.5-3,0.8C214.7-1.3,213.2-1.5,211.6-1.8z M286.5,0.8l-5.1-0.3
								c-2.6-0.4-1-0.9-1.9-1.2C285.5-0.7,293.3,0.1,286.5,0.8z M11.8,76.2c0.5-1.6-0.3-0.8-1.6,1.4c-1.2,2.2-2.9,5.7-3.9,9.4
								l-0.3-4.4c0.3,0,0.8-0.8,1.5-2.2c0.7-1.3,1.5-3.2,2.4-5c1.7-3.7,3.7-7.5,4.2-8.2c1.3-0.8,1.1,0,0.4,1.8
								c-0.4,0.9-0.8,2-1.4,3.2C12.6,73.3,12.1,74.8,11.8,76.2z M11.9,428.2c-0.2,0.8,0.2,2.6,1,4.7c0.9,2.1,2.1,4.7,3.5,7.2
								c2.8,5.1,6.4,9.8,7.4,11.7c-3.3-3.9-7.9-10.9-10.6-16.5c-1.4-2.8-2.3-5.2-2.6-6.6C10.4,427.3,10.7,427,11.9,428.2z
								 M30.1,456.1c3.4,4,4.5,5,3.4,5.3c1.4,2.2,4.7,4.8,6.3,6.9C31.7,461.7,33.6,460.8,30.1,456.1c-0.8-1.1-1.8-2.3-2.9-3.9
								C28.5,453.8,29.4,455,30.1,456.1z M2.2,256l1.6-7.1l-0.1-11.1L2.2,256z M5.1,136.9c-0.5,0.5-0.7-2.5-0.7-5.9c0-1.7,0-3.5,0-5
								c0.1-1.5,0.2-2.7,0.3-3.4c-0.3,0.2-0.5,0.8-0.7,1.8c-0.2,1-0.3,2.3-0.4,3.9c-0.1,3.1-0.1,6.9-0.2,10.3
								c-0.1,0.9-0.2,2.3-0.2,4.5c0.1-1.3,0.1-2.8,0.2-4.5c0.3-2.5,0.9-0.8,1.3-0.8l0.3,3.4l0.3-9.4L5.1,136.9z M126.7,6.3
								c7.6-0.9,8.5-0.6,13.6-0.3C138.6,6.5,131.8,6.7,126.7,6.3z M6.1,200c-0.6-12.8-1.8,6.2-2.4-2.2l0.1,6.7
								c-1.3-10.9,1.3-7.8,1-15.4l0.2,5.1c1.1,4.1,0.8-7.8,1.7-8.8C7.2,191.4,6.3,205.1,6.1,200z M138.7,7.1
								c12.7-1.2,10.4,1.2,18.1,1.4C146.7,9.6,148.2,7.4,138.7,7.1z M9.7,119.9c0,0,0,0.2,0.1,0.4c0,0.2,0.1,0.4,0.1,0.4
								s0-0.1,0-0.4c0-0.3,0.1-0.6,0.2-1.1c0.1-0.9,0.3-2.1,0.5-3.2c0.1-1.2,0.4-2.3,0.6-3.2c0.2-0.9,0.3-1.4,0.3-1.4l-0.1-0.8
								c0,0-0.1,0.6-0.3,1.5c-0.2,0.9-0.4,2-0.6,3.2C10.1,117.5,9.7,119.9,9.7,119.9z"/>
							<path class="st1" d="M154.4-4.8c3.1-0.1,5.2-0.1,6.9,0C159.1-4.8,156.8-4.8,154.4-4.8z"/>
							<path class="st1" d="M47.2,483.7c0.4-0.1,1.5,0.5,2.8,1.3C49.8,485,49,484.7,47.2,483.7z"/>
							<path class="st1" d="M69.1,497.8c0.3,0.1,0.6,0.3,0.9,0.4c0.2,0.1,0.5,0.3,0.7,0.4L69.1,497.8z"/>
							<path class="st1" d="M463.5,30c-1.6-2.3-0.5-1.5,1.3,0.2c1.8,1.9,4.3,4.6,5.8,6.2c-1.5-1.6-2.8-2.4-3.9-3.3
								C465.5,32.4,464.6,31.4,463.5,30z"/>
							<path class="st1" d="M483.8,57.3c-0.3-0.6-0.5-1.2-0.9-1.9c-0.4-0.7-0.8-1.4-1.2-2.2c-0.9-1.5-2-3.3-3.3-5
								c0.4,0.5,0.9,1.1,1.3,1.7c0.4,0.6,0.9,1.3,1.3,2C481.8,53.4,482.8,55,483.8,57.3z"/>
							<path class="st1" d="M466.8,35.6c1.3,1.1,2.4,2.2,3.5,3.3c0.5,0.5,1.1,1.1,1.6,1.6c0.5,0.5,1,1.1,1.5,1.6
								c0.9,1.1,1.8,2.1,2.7,3.1c0.8,1,1.5,2,2.2,3c-0.7-0.8-1.4-1.6-2.1-2.5c-0.7-0.8-1.6-1.6-2.4-2.6
								C472,41.2,469.9,38.9,466.8,35.6z"/>
							<path class="st1" d="M504.8,143.9c0.9-5.3,0.4-15.4,0.4-15.4c0.4,11.1,0.8,9.9,1.2,5.8c0.2-2.1,0.4-4.9,0.6-7.3
								c0.2-2.4,0.3-4.5,0.4-5c0,1.8,0,3.3,0,4.7c-0.1,1.3-0.1,2.5-0.2,3.5c-0.2,2.1-0.4,3.6-0.6,5C506.1,138,505.5,140,504.8,143.9
								z"/>
							<path class="st1" d="M504.4,173.2c0-2.3,0-4.4-0.2-6.1C504.4,169.3,504.4,171.3,504.4,173.2z"/>
							<path class="st1" d="M505.2,181.5c-0.2,7.7-1.2,10.4-2,13.9c-0.7-9.3,0.9-15.2,1.1-22.1C504.4,178.7,504.3,184,505.2,181.5z"
								/>
							<path class="st1" d="M503.6,418.6c0.2-0.4,0.4-1,0.6-1.6c0.2-0.6,0.4-1.3,0.7-2c0.5-1.3,0.9-2.3,1.2-2.3c0,0-0.2,0.8-0.6,2
								c-0.2,0.6-0.4,1.3-0.6,2.1c-0.2,0.8-0.5,1.6-0.8,2.4c-0.5,1.6-1.1,3.2-1.5,4.4c-0.5,1.2-0.8,2-0.8,2
								c-1.2,2.5-0.9,1.4-0.2-0.6C502.3,422.9,503.2,419.9,503.6,418.6z"/>
							<path class="st1" d="M477.7,460.1c-3.5,3.9-4,5.1-4.3,5.8c-0.2,0.7,0,0.8-1.9,2.7l-1-1.8c0,0,0.5-0.4,1.1-1
								c0.7-0.6,1.6-1.4,2.5-2.3C475.9,461.8,477.7,460.1,477.7,460.1z"/>
							<path class="st1" d="M473.5,449.6c0,0,0.1-0.1,0.3-0.3c0.2-0.2,0.4-0.5,0.6-0.8c0.5-0.6,0.9-1.1,0.9-1.1
								c-0.7,0.9-1.2,1.7-2,2.6L473.5,449.6z"/>
							<path class="st1" d="M439.7,493.7c0,0,0.1,0,0.3-0.1c0.2,0,0.5-0.1,0.8-0.2c0.7-0.2,1.6-0.4,2.6-0.6c0.9-0.2,1.9-0.5,2.6-0.6
								c0.7-0.2,1.2-0.3,1.2-0.3C439.1,496,438.1,494.3,439.7,493.7z"/>
							<path class="st1" d="M401.7,508.5c0,0,0.4,0,1-0.1c0.6-0.1,1.4-0.1,2.2-0.2c1.6-0.2,3.2-0.4,3.2-0.4s-1.2,0.2-3.1,0.6
								c-1.8,0.3-4.3,0.6-6.8,1c-2.5,0.3-4.9,0.5-6.8,0.7c-1.9,0.1-3.1,0.2-3.1,0.2s0.8-0.1,2.1-0.2c1.3-0.1,2.9-0.4,4.6-0.6
								c0.8-0.1,1.7-0.2,2.5-0.3c0.8-0.1,1.5-0.3,2.1-0.4C400.9,508.7,401.7,508.5,401.7,508.5z"/>
							<polygon class="st1" points="353.5,509.7 351.9,510.2 339,509.6 							"/>
							<path class="st1" d="M-3.9,290.9c1.8-2,1.1,18.6,1.5,24.6C-4.7,311.3-1.6,299-3.9,290.9z"/>
							<path class="st1" d="M136.6-4c0,0-4.9-0.1-9.8-0.2c-2.5,0-5.1,0-7,0c-1,0-1.7,0.1-2.3,0.1c-0.6,0-0.9,0-0.9,0
								c1-0.1,1.9-0.2,2.6-0.3c0.8-0.1,1.5-0.1,2.1-0.1c1.2-0.1,2.1-0.1,2.8-0.2c1.4-0.1,2,0,2.5,0C127.8-4.5,128.9-4.2,136.6-4z"/>
						</g>
					</g>
				</g>
			</g>
		</g>
	</g>
</g>
</svg>
