<?xml version="1.0" encoding="utf-8"?>
<!-- Generator: Adobe Illustrator 20.1.0, SVG Export Plug-In . SVG Version: 6.00 Build 0)  -->
<svg version="1.1" id="Layer_1" xmlns="http://www.w3.org/2000/svg" xmlns:xlink="http://www.w3.org/1999/xlink" x="0px" y="0px"
	 viewBox="0 0 504.4 504.4" style="enable-background:new 0 0 504.4 504.4;" xml:space="preserve">
<style type="text/css">
	.st0{fill:none;}
	.st1{fill:#17171B;}
</style>
<g>
	<g>
		<path d="M296.8,219.8c-10-14-26.4-23.2-44.8-23.2s-34.8,9.2-44.8,23.2c-6.4,9.2-10.4,20.4-10.4,32.4c0,30.4,24.8,55.2,55.2,55.2
			s55.2-24.8,55.2-55.2C307.2,240.2,303.2,229,296.8,219.8z"/>
	</g>
</g>
<g>
	<g>
		<path d="M331.6,220.2c4,8,6.4,20.8,6.4,32c0,47.2-38.4,86-86,86s-86-38.4-86-86c0-11.6,2.4-24,6.4-32H124v128.4
			c0,16.8,14.8,31.6,31.6,31.6h192.8c16.8,0,31.6-14.8,31.6-31.6V220.2H331.6z"/>
	</g>
</g>
<g>
	<g>
		<polygon points="365.6,131.4 319.2,131.4 319.2,184.6 372,184.6 372,138.2 372,131 		"/>
	</g>
</g>
<g>
	<g>
		<g>
			<path d="M377.6,0.2H126.4C56.8,0.2,0,57,0,126.6v251.6c0,69.2,56.8,126,126.4,126H378c69.6,0,126.4-56.8,126.4-126.4V126.6
				C504,57,447.2,0.2,377.6,0.2z M408,219.8L408,219.8v128.8c0,33.6-26,59.6-59.6,59.6H155.6c-33.6,0-59.6-26-59.6-59.6V219.8v-64
				c0-33.6,26-59.6,59.6-59.6h192.8c33.6,0,59.6,26,59.6,59.6L408,219.8L408,219.8z"/>
			<g>
				<path class="st0" d="M377.6,0.2H126.4C56.8,0.2,0,57,0,126.6v251.6c0,69.2,56.8,126,126.4,126H378
					c69.6,0,126.4-56.8,126.4-126.4V126.6C504,57,447.2,0.2,377.6,0.2z M408,219.8L408,219.8v128.8c0,33.6-26,59.6-59.6,59.6H155.6
					c-33.6,0-59.6-26-59.6-59.6V219.8v-64c0-33.6,26-59.6,59.6-59.6h192.8c33.6,0,59.6,26,59.6,59.6L408,219.8L408,219.8z"/>
				<g>
					<g>
						<g>
							<path class="st1" d="M408.1,190.9c-0.1,0.6-0.1,1.5-0.2,2.2C407.8,191,407.8,190,408.1,190.9z"/>
							<path class="st1" d="M408,219c-1.7,1.7-0.5,0.5-0.8,0.8v0l0,0l0,0l0,0l0-0.1l0-0.2l0-0.4c0-0.2,0-0.5,0-0.7c0-0.5,0-1,0-1.5
								c0-1.1,0-2.2,0-3.3c0-2.3,0-4.7,0.1-7.1c0.1-4.8,0.3-9.6,0.7-13.3c0.1,3.3,0.5,9.4,0.5,15c0,2.8,0,5.4-0.2,7.5
								c-0.1,1-0.2,2-0.4,2.7c-0.1,0.4-0.2,0.7-0.3,0.9c-0.1,0.1-0.1,0.2-0.2,0.3c0,0-0.1,0.1-0.1,0.1l0,0.1l0,0l0,0l0,0l0,0l0,0
								C407.5,219.4,406.3,220.6,408,219z"/>
							<path class="st1" d="M411.6,189.6l-0.6,9.3C410.4,193.4,411.4,194.4,411.6,189.6z"/>
							<polygon class="st1" points="409.6,193 408.8,192.5 409.6,187.5 							"/>
							<path class="st1" d="M102.3,212.6c0.3-1,0.7-1.6,1.2-1.1L102.3,212.6z"/>
							<path class="st1" d="M98.7,234.1c-0.1,1.9-0.2,3.3-0.2,4.4C98.4,237.2,98.5,236.1,98.7,234.1z"/>
							<path class="st1" d="M102,193.1l0.1,3.8C102,195.7,101.9,194.4,102,193.1z"/>
							<path class="st1" d="M263,99.2c3.6,0.6,6.9,1.1,9.5,1.5C265.6,101.2,265,99.9,263,99.2z"/>
							<path class="st1" d="M87.2,333l0.6,0.9C87.5,334.9,87.2,335.4,87.2,333z"/>
							<path class="st1" d="M88.1,239.3c0.4-0.1,0.6,0.1,0.8,0.5c-0.1,0.4-0.1,0.8-0.2,1.1L88.1,239.3z"/>
							<path class="st1" d="M100.7,177.9c0-0.1,0-0.1-0.1-0.2l0.4-3.1C101.1,176.3,101,177.4,100.7,177.9z"/>
							<path class="st1" d="M88.3,365.2c0,1.6,0,3.2-0.3,4.6C87.4,366.5,87.7,364.8,88.3,365.2z"/>
							<path class="st1" d="M98.5,239.1C98.5,239.1,98.5,239.1,98.5,239.1c0-0.1,0-0.4,0-0.5C98.5,238.8,98.5,238.9,98.5,239.1z"/>
							<path class="st1" d="M88.8,208.2c-0.1,1.6-0.2,3.2-0.3,4.9C88.3,211.1,88.5,209.3,88.8,208.2z"/>
							<path class="st1" d="M263,99.2c-1-0.2-2-0.3-3-0.5C261.5,98.7,262.3,98.9,263,99.2z"/>
							<path class="st1" d="M406.7,165.9c0-3,0.4-3.7,0.9-4.3C407.3,163.3,407.1,164.8,406.7,165.9z"/>
							<path class="st1" d="M403.9,227.1l0-1.2C403.9,226.5,403.9,226.8,403.9,227.1z"/>
							<path class="st1" d="M402.2,342.1c-0.1,0.5-0.3,1.1-0.5,1.5C401.5,342.7,401.8,342.1,402.2,342.1z"/>
							<path class="st1" d="M342.8,417.8c1.9-0.2,3.8-0.3,5.7-0.2c2.2,0,4.3,0,6.5,0.1c2.1,0,4.3-0.2,6.3-0.3c0.5,0,1-0.1,1.5-0.1
								c0.5-0.1,1-0.2,1.5-0.3c1-0.2,2-0.4,2.9-0.6l-2.7-0.1c0,0,1.9-0.3,3.8-0.6c1-0.1,1.9-0.4,2.6-0.6c0.7-0.2,1.2-0.3,1.2-0.3
								l-0.5-1c0.8-0.2,1.5-0.5,2.3-0.7c0.8-0.3,1.6-0.5,2.3-0.9c1.5-0.7,3-1.4,4.5-2.1c0.8-0.3,1.5-0.8,2.2-1.2
								c0.7-0.4,1.4-0.9,2.1-1.3c0.7-0.4,1.4-0.8,2-1.3c0.7-0.4,1.3-0.9,1.9-1.4c1.2-0.9,2.4-1.8,3.5-2.6c1.1-0.9,2.1-1.7,3-2.4
								c0.9-0.7,1.8-1.4,2.5-1.9c0.7-0.6,1.4-1,1.9-1.3c0,0-0.6,0-1.2-0.1c-0.6,0-1.2-0.1-1.2-0.1s0.6-0.6,1.6-1.4
								c0.5-0.4,1-0.9,1.6-1.4c0.6-0.5,1.2-1.1,1.8-1.7c1.1-1.2,2.3-2.5,3.2-3.4c0.4-0.5,0.8-0.9,1-1.2c0.2-0.3,0.4-0.5,0.4-0.5
								s-0.3,0.4-0.8,0.9c-0.5,0.5-1.2,1.2-1.9,1.9c-1.4,1.3-2.8,2.7-2.8,2.7c1.1-1.5,2.3-3.1,3.5-4.8c1.2-1.7,2.2-3.6,3.4-5.4
								c0.6-0.9,1-1.9,1.5-2.8c0.5-1,1-1.9,1.4-2.9c0.5-0.9,0.9-1.9,1.3-2.9c0.4-1,0.8-1.9,1.1-2.8c0.8-1.8,1.2-3.7,1.8-5.4
								c0.2-0.8,0.5-1.7,0.7-2.4c0.2-0.8,0.3-1.5,0.5-2.2c0.5-2.8,0.9-4.8,1-5.6c0,0-0.2,0.3-0.4,0.6c-0.2,0.3-0.4,0.6-0.4,0.6
								c0-0.3,0-0.6,0-0.9c0-0.3,0-0.6,0-0.9c0-0.6,0.1-1.1,0.2-1.7c0.2-1.1,0.4-2.2,0.5-3.5l-1.1,1.9c0-0.7,0.1-1.4,0.1-2
								c0-0.3,0-0.7,0-1c0-0.3,0-0.6,0-0.9c0-1.1,0-2.2,0-3.2c0-2.1-0.1-4-0.2-5.8c-0.2-3.6-0.4-6.8-0.6-10
								c-0.4-6.5-0.7-13.3-0.2-24.2c-0.2-6-0.3,3.3-0.9,3.4c-0.8-3.3,0-10.9,0.4-12.6c-1.6,1.7-1.1,10.9-2.4,3.9
								c0.8-5-1.5,3.4-1.2-5.4l2-3.4c-0.4-4.9-1.6-1-1.4-8.7c0.9-8.8,2.3,10.7,2.6-3.4c-0.1-7.1-4.7-14.9-3.6-28.6
								c-1.1-11.8-3.2,6.2-2.6-10.2l-1.3,10.5c-0.6-2.7-1.6-1-1.2-8.1c0.8-2.2,1.8-6.6,1.9-10.5c-1.5,15.3-2.3-13.5-4.3,0.8l0.1-5.3
								c-0.1,0.7-0.3,0.8-0.4,0.5l-0.1-7.1c-0.4,4.4-0.6,14.7-2.1,9.9l-0.4-10.2c-1.1,2.7-1.6-1-2.5-0.4l-2.2,30.1
								c0.7-1.2,1.1-5.5,1.8-3.9c0.6,8-1.2,6.6-0.3,14.1l0.9-3.3c-0.3,0.6-0.4,1.7-0.6,0c-0.6-2.6,0.1-3.8,0.7-3.8
								c1.1,2.6,0.4,10.3-0.4,12.5c0.1,9.8,2,2,2.4,4.2c-1.9,5.1,0,16.3-0.8,22.4l1.2-3.9c1.5,7.4,0.3,14.1-0.2,18.5l1-1.7
								c-0.2,10.4,3.2,15.5-0.4,23.4l0.7-1.1c0.3,4.3,1.1,10.7,0,14.8c0.4,0.1,0.9,0.8,1.1,2.5c-0.3,0.6-0.5,1.3-0.6,2.1
								c-0.1,0.8-0.1,1.8-0.1,2.8c0,2,0.4,4.5,0,7.3c0.9-3.7,2.5-2.4,3.2-6.6c0.8,4.7-0.2,6.9-1.2,8.6c-0.3,0.4-0.5,0.9-0.8,1.3
								c-0.3,0.4-0.6,0.9-0.9,1.4c-0.3,0.5-0.6,1.1-0.9,1.8c-0.1,0.3-0.3,0.7-0.4,1.1c-0.1,0.4-0.2,0.8-0.4,1.3
								c-0.3,2.3,0.2,1.4,1-0.2c0.7-1.6,1.4-4,1.9-4.5c-0.5,1.4-0.9,2.9-1.2,4.4c-0.4,1.4-0.9,2.9-1.2,4.4l-0.3,1.1
								c-0.1,0.4-0.2,0.7-0.4,1.1c-0.2,0.7-0.5,1.4-0.7,2.1c-0.2,0.7-0.5,1.4-0.7,2.1c-0.3,0.7-0.6,1.3-0.9,2
								c-0.6,1.3-1.1,2.6-1.8,3.8c-0.7,1.2-1.5,2.3-2.2,3.3c-0.7,1-1.7,1.8-2.6,2.5c-0.9,0.7-1.8,1.3-2.8,1.6c0,0,0.2-0.3,0.4-0.7
								c0.2-0.4,0.6-1,0.9-1.6c0.6-1.1,1.3-2.3,1.3-2.3c-1.9,1.5-3.2,2.7-4.1,3.5c-0.9,0.7-1.2,1.1-0.9,1.1c0.5-0.5,0.9-0.8,1.3-1
								c0.3-0.2,0.6-0.3,0.9-0.4c-2.2,2.8-4.6,5.1-7.2,6.6c-0.6,0.4-1.2,0.8-1.9,1.2c-0.7,0.3-1.3,0.6-2,0.9
								c-1.3,0.6-2.6,1.2-3.9,1.6c-1.3,0.4-2.7,0.8-4,1.2c-1.4,0.3-2.8,0.6-4.2,0.9c-0.4,0.1-0.7,0.2-1.1,0.3
								c-0.4,0.1-0.7,0.1-1.1,0.2c-0.7,0.1-1.5,0.3-2.3,0.4c-0.8,0.1-1.5,0.4-2.4,0.5c-0.8,0.1-1.7,0.3-2.5,0.4
								c1.1,0.5,3.2,0.5,3.4,1c-1.6,0.4-2.8,0.5-3.9,0.4c-1.1-0.1-2.1-0.3-3.1-0.7c-1.1-0.3-2.2-0.7-3.8-0.8c-0.7,0-1.7-0.1-2.8-0.1
								c-1.1,0-2.3,0.1-3.7,0.3l2.2,0.8c-3.8,0.5-6.6-0.7-6.1-0.9c-0.3,3.1-23.9-0.1-31.8,3.8c-5.5-1.7-21.4-3-26.3-2.1
								c-7,1.8,6.2,2,3.6,3.7c-5.4,0-8.3-1.7-16.4-1.1c-0.1-1.7,16-3.4,0.8-4.4l-2.1,0.9c1.6-0.1,3.8-0.5,6-0.2
								c4.4,1-2.6,1.1-3.7,1.6l-16.4-0.5c-1.2-1.8,8.6-1.4,9.6-1.8c-13,0.4-28.6,3-40.7,1.8l1.1,0.7c-15.4-1.5-9,3.3-21.2,0.4
								c-6.5,0.5,2.3,1.9-7.4,2.1c-2.8,0-1.1-0.7-0.6-0.9c-12-0.6-5.3,1.7-16.3,0.1l2.4,1.9c-6.6-0.7-13.3-1.8-19.9-2.7
								c-0.8-0.1-1.6-0.2-2.4-0.3c-0.8-0.1-1.6-0.2-2.4-0.3c-1.5-0.3-3-0.5-4.5-0.7c-1.5-0.2-2.9-0.6-4.2-0.8
								c-0.7-0.1-1.4-0.2-2.1-0.3c-0.7-0.1-1.3-0.3-2-0.4c0.1,0.8,1.8,1.7,3.9,2.2c1,0.3,2.1,0.6,3.1,0.9c1,0.3,1.9,0.5,2.6,0.8
								c-7.4-1.8-16.1-3.9-23.8-8.1c-3.8-2.1-7.5-4.5-10.5-7.3c-0.8-0.7-1.5-1.4-2.2-2.1c-0.7-0.7-1.3-1.5-1.9-2.2
								c-0.6-0.7-1.2-1.4-1.8-2.2c-0.5-0.8-1-1.5-1.4-2.3c1.7,1.2,1.3-0.5,1.3-1.7c0-1.2,0.3-1.9,3.1,1c-0.1,1.4,0.8,2.6,2.1,3.9
								c0.3,0.3,0.6,0.7,1,1c0.4,0.3,0.8,0.6,1.2,0.9c0.8,0.6,1.6,1.3,2.4,2.1c-0.3-1-0.9-2-1.7-3c-0.4-0.5-0.9-1-1.3-1.6
								c-0.4-0.6-0.9-1.1-1.4-1.7c-0.5-0.6-1-1.1-1.6-1.7c-0.5-0.6-1-1.3-1.5-1.9c-0.5-0.6-1.1-1.3-1.6-1.9c-0.5-0.7-1-1.4-1.5-2.1
								c-3.9-5.4-6.4-11.3-4.9-12.8l-1.9-1.4c-0.1-0.5-0.1-1.2-0.2-1.9c0-0.7,0.1-1.4,0.2-2c0.2-1.1,0.5-1.5,1,0.1
								c0,0-0.2-0.8-0.5-2.1c-0.1-0.6-0.3-1.4-0.5-2.2c-0.1-0.8-0.2-1.7-0.3-2.5c-0.1-0.9-0.2-1.7-0.3-2.6c-0.1-0.9-0.1-1.8-0.2-2.5
								c-0.1-1.5-0.1-2.5-0.1-2.5c-0.3,1.4-0.7,3.2-1,5.1c-0.3,1.7-0.6,3.7-0.8,5.6c0,1.9,0.1,3.7,0.2,5.3c0.3,1.5,0.8,2.8,1.4,3.5
								c-0.3,2.2-0.9,0.9-1.5-0.6c-0.7-1.5-1.4-3-1.8-1c-0.1-1.3,0.1-2.4,0.1-3.3c0-0.9,0-1.6-0.1-2.2c-0.1-0.6-0.2-1.1-0.3-1.5
								c-0.1-0.4-0.2-0.8-0.4-1.2c-0.3-0.8-0.6-1.6-0.9-2.9c-0.1-0.6-0.3-1.4-0.3-2.3c0-1,0-2.1,0-3.4c2.1,4.9,2.9-10.9,3.9-10.4
								c-0.4-3.6,0.6-11.5,1.3-14.6c0.2-6.3-1.5-20.8-0.8-30.9c-0.7,3.8-1.6,9.9-2.9,9.5c0.8-5,0.8-10.4-0.8-11.4
								c-2.9,17.6,3.6,5.7,1.8,21.6c-1.8,3.9-2.2,8.3-2.8,16.5c-1-3.7-1.5-2.1-2.7-3.6c3.8-10.1,0.4-26.2,2.3-39.3
								c1.1-5.5,3.5-1.4,3.9-13.9l1.2,10.8c-1.1-11.9,1.1-2.8,1.5-12.6l-1.2,3.9c-0.2-6,0-8.2,0.9-11.5l-1.9,5.1
								c-0.2-3.2-0.5-9.2,0.6-9.3c-0.5-0.8-0.8-1.1-1.2-1.1c0.3-0.6,0.5-2.2,0.5-5.9c-0.2,2.2-0.1,3.8-0.7,3.9
								c0.5-14.4-2.1-3.4-1.9-12.3c-0.4,1.4-1-1.1-1.2-4.3c3,0.2,3.4-17.5,5.1-22.2l0,0.1l1.2-12.1c-0.2,2.4-1.1-0.2-1.4-3.7l0,0.6
								c-0.5-3.8-3.3,4.6-2.4-6.9l0.9-6c-0.1,1.1-0.6,0-0.8-0.5l0.8-6.2c-1.4-4.8-1-9.3-0.4-14c0.3-2.4,0.6-4.8,0.8-7.3
								c0-0.7,0.1-1.2,0.2-1.8c0.1-0.6,0.1-1.2,0.1-1.8c0-0.6,0-1.2,0-1.9c0-0.3,0-0.6,0-1c0-0.3,0-0.6,0-1
								c-0.1,0.7-0.1,1.6-0.1,2.4c0,0.8-0.1,1.6-0.2,2.2c-0.2,1.3-0.5,1.9-0.9,0.9c-0.2-2,0.2-5.1,0.9-6.6l-0.4,0.5
								c0,0,0.3-1.2,0.7-3c0.2-0.9,0.6-1.9,1-3c0.4-1.1,0.8-2.3,1.2-3.4c0.5-1.1,1-2.2,1.5-3.3c0.2-0.5,0.5-1,0.7-1.5
								c0.3-0.4,0.5-0.9,0.8-1.3c0.9-1.6,1.5-2.6,1.5-2.6c-0.4,0.2-1,1-1.6,2c-0.3,0.5-0.7,1-1,1.6c-0.3,0.6-0.6,1.1-0.8,1.7
								c-1,2.1-1.9,3.5-1.6,0.9c-0.1-0.8,0.1-1.7,0.4-2.7c0.3-1,0.9-1.9,1.5-2.9l0.9-1.5c0.2-0.2,0.3-0.5,0.4-0.7
								c0.2-0.2,0.3-0.4,0.5-0.7c0.7-0.9,1.3-1.7,1.8-2.5c0.4,0.9-2.3,6.7,1.4,1.3c-0.1-1,3-6.4,0.8-4.4c0.6-0.6,1.2-1.3,1.8-2
								c0.6-0.7,1.4-1.3,2.1-2c0.7-0.7,1.4-1.4,2.2-2c0.8-0.6,1.6-1.2,2.4-1.8c3.2-2.4,6.8-4.1,9.6-5c1.4-1.3-1.2,0-2.1,0.4
								l-0.3,0.4c-0.5,0.2-0.8,0.3-1.1,0.4c-0.3,0.1-0.5,0.2-0.7,0.2c-0.4,0.1-0.7,0-1,0c-0.4,0-0.8,0.2-1.5,0.7
								c-0.4,0.2-0.8,0.6-1.3,1c-0.5,0.4-1,1.1-1.7,1.8c-0.6-0.4-0.3-1.1,0.4-2c0.7-0.9,2.2-1.9,3.7-3c0.8-0.6,1.7-1.1,2.6-1.6
								c0.9-0.5,1.9-1,2.8-1.5c1-0.4,2-0.9,2.9-1.3c0.9-0.4,1.8-0.9,2.6-1.2c0,0-0.2,0-0.5,0.1c-0.3,0.1-0.7,0.2-1.2,0.4
								c-1,0.3-2.4,0.7-3.8,1.1c-2.7,1-5.4,2.2-5.4,2.2c0.9-0.8,1.9-1.6,2.9-2.4c0.5-0.4,1-0.8,1.6-1.2c0.6-0.3,1.1-0.7,1.7-1
								c1.2-0.7,2.3-1.4,3.6-2c1.3-0.5,2.6-1.1,3.9-1.6l1-0.4l1-0.3c0.7-0.2,1.4-0.4,2.1-0.5c0.7-0.2,1.4-0.3,2.1-0.5
								c0.7-0.2,1.4-0.2,2.2-0.3c1.5-0.2,2.9-0.4,4.4-0.5c1.5,0,3,0,4.4,0c1.5,0,3,0.1,4.5,0.1c1.5,0.1,3,0.2,4.5,0.2
								c3,0.2,5.9,0.3,8.8,0.5c5.7,0.3,11.2,0.6,16.3,0.6c-5.9,0.8-10.9,0-10.2,2.1c12.5,1,10.9,0.5,23.4,0.9l-1.1-0.1
								c6.5-1,15.3,1,19.5-0.9c-2.8-1.1-9.2,1.1-9.3-1.2l15.8,0.2c-5-1.3-15.8-0.2-21.8-0.5c-4.3,0.1,8.7,0.3,6.7,1.8
								c-14.7-0.1-18.1-1.5-25.3-3.7c-4.4-1.6,6.4-1.6,9.2-1.6c9.4,2.3,23.1,3.4,37.7,2.4l8-1.7c7.2,1.6,4.2,4.6,17.2,4.2l-3.9-1.2
								c2.9-0.5,4.7-0.6,6.1-0.6c-5.6-0.9-11.7-2-16.7-3c7.4-2.6,21.3,1.3,32.3,1.8c-0.6-0.3-4.4-0.4-5.5-1.1
								c16.3-0.6,33.4,2.5,46,2.9c5.3-1.1-10.5-0.8-7.9-2.5c6.6,0.7,14.1-0.8,15.9,0.7c-2.9-2.3,15.2-0.2,2.5-2.3
								c6-0.2,12.1-0.3,18.3-0.2c1.6,0,3.1,0,4.7,0.1c1.6,0.1,3.2,0.2,4.7,0.4c1.6,0.2,3.1,0.5,4.7,0.8c0.8,0.2,1.6,0.2,2.3,0.5
								l2.3,0.7c1.5,0.5,3.1,0.8,4.5,1.5c1.5,0.6,2.9,1.2,4.3,1.9c1.4,0.7,2.8,1.5,4.1,2.2c1.3,0.8,2.6,1.7,3.9,2.6
								c5,3.6,9.4,7.9,12.9,12.6c-0.2-1.3,0.2-1.7,1.2-1.2c-2.7-3.1-6.1-6.8-9.7-9.8c-0.9-0.7-1.7-1.5-2.6-2.2
								c-0.9-0.7-1.7-1.3-2.4-1.9c-0.8-0.6-1.4-1.2-2.1-1.7c-0.6-0.5-1.2-1-1.7-1.4c0.7,0.2,1.4,0.4,2.1,0.7c0.7,0.3,1.3,0.7,2,1.2
								c1.3,0.9,2.5,1.8,3.5,2.8c2,2,3.5,3.7,4.3,4c-0.9-1.1-2.5-2.4-3.8-3.7c-0.3-0.3-0.6-0.6-0.9-0.9c-0.3-0.3-0.6-0.5-0.8-0.7
								c-0.4-0.4-0.6-0.8-0.5-1.1c0.9,0.4,1.7,0.7,2.4,1.1c0.7,0.4,1.4,0.9,2,1.3c0.6,0.4,1.2,0.9,1.7,1.4c0.3,0.2,0.5,0.5,0.8,0.7
								c0.2,0.3,0.4,0.5,0.7,0.7c1.7,2,3.2,3.8,4.7,5.9c0,0-0.6-0.4-1.1-0.8c-0.3-0.2-0.6-0.4-0.8-0.6c-0.2-0.2-0.4-0.2-0.4-0.2
								c2.4,3.2,3.8,5.3,4.4,7c0.7,1.7,1,2.8,1.3,3.9c0.5,2.3,1.6,4.3,4.9,11.5c3.2,5,1.1-0.4,2.6-1.2c0.2,1,0.7,2.4,1.3,4.1
								c0.5,1.7,1.1,3.7,1.7,5.7c0.4,2,0.7,4.1,0.9,5.9c0.1,1.8-0.1,3.4-0.5,4.4c0,0,0-0.6-0.1-1.6c-0.1-0.9-0.1-2.2-0.3-3.4
								c-0.4-2.5-0.8-4.9-0.8-4.9c0.1,1.7,0.3,3.5,0.5,5.1c0,0.4,0.1,0.8,0.1,1.2c0,0.4,0,0.8,0,1.2c0,0.8,0,1.6,0,2.4
								c0,0.8,0,1.5,0,2.3c0,0.7-0.1,1.5-0.1,2.1c-0.1,1.4-0.2,2.7-0.3,3.9c0.4-0.5,0.7-0.9,0.9-2.4c-0.5,5.5-0.4,12.5-1.5,15.3
								l1.8,1.5c-0.8-3.3-0.9-13,0.1-14.7c1.6,0.9,0.6,10.8,0.7,15.2c0.3-9.5,1.1-14.4,1.7-18.8c0.4-2.2,0.4-4.5,0.4-7.3
								c0-1.4-0.2-2.9-0.5-4.5c-0.1-0.8-0.3-1.7-0.5-2.6c-0.2-0.9-0.5-1.9-0.9-2.9c0,0,0,0.7,0.1,1.5c0,0.4,0,0.7,0,1
								c0,0.3,0,0.5,0,0.5c-0.4-1.3-0.9-2.5-1.3-3.8c-0.4-1.3-0.7-2.5-1.2-3.8c-0.4-1.2-0.8-2.5-1.2-3.8c-0.2-0.6-0.4-1.2-0.7-1.9
								c-0.2-0.6-0.5-1.2-0.7-1.8c-1.8-4.9-4.3-9.4-7.2-13.2c1.9,1.9,2.7,2,2.2,0.7l-1.3-1.5c-0.5-0.5-0.9-0.9-1.4-1.4l-2.8-2.8
								c-1-0.9-2-1.7-3-2.6c-1-0.9-2-1.7-3.1-2.5c-1.1-0.8-2.1-1.5-3.2-2.3c-0.5-0.4-1.1-0.7-1.7-1.1l-1.7-1l-1.7-1l-0.9-0.5
								l-0.9-0.4c-1.2-0.6-2.4-1.1-3.6-1.7c-1.2-0.6-2.5-1-3.8-1.5L369,95c-0.6-0.2-1.3-0.5-2-0.6c-2.7-0.6-5.3-1.5-8.1-1.7
								c-1.4-0.2-2.8-0.4-4.2-0.5c-1.4,0-2.8-0.1-4.3-0.1c-0.7,0-1.4,0-2.1,0c-0.7,0-1.4,0-2,0.1c-1.4,0-2.7,0.1-4.1,0.1l-6.7-1.8
								l-0.4,1.4c-10.9,0.6-2.4-1.9-9.4-1.8c2.7,0,2.2,0.2,2.7,0.6c-12.6-1.5-7,1.3-14.1,0.8c3.4,1.5,13.6,0.5,10.5,2.5
								c-12.6-1.5-32.1-0.7-34-4c-23.4,1.3-52.3-0.7-72-1c-2.7,0.6,1.7,0.5,0.6,0.9c-7.8-1.9-26.1,1.3-26.2-0.4
								c-3.8,0.5-5.3,1.7-6.3,2.2c-5-0.8-10.9-1.2-17.3-1.4l4.6,0.5l-0.5,0.2l-6.6-0.7l0.2-0.1c-4-0.1-8-0.2-12.2-0.2
								c-2.3,0.1-4.6,0.1-6.9,0.3c-2.3,0.3-4.6,0.5-6.9,1c-9.1,1.7-17.6,5.1-24.8,9c1-0.6,1.8-0.9,2.4-1.1c0.6-0.2,0.9-0.2,1.1-0.2
								c0.4,0.1,0.1,0.5-0.3,1c-0.8,1-2,2.2,0,1.4c-1.1,0.2-2.1,0.7-3.4,1.3c-1.2,0.6-2.6,1.3-3.9,2.1c-1.3,0.9-2.7,2-4.2,3.1
								c-1.4,1.2-2.7,2.6-4.1,4c-2.7,2.9-5.3,6.4-7.3,10.1l-0.8,1.4c-0.3,0.5-0.5,1-0.7,1.4c-0.4,1-0.9,1.9-1.3,2.9
								c-0.9,1.9-1.5,3.9-2.2,5.7c0.6,0.1,0.6,1.4,1.6-0.2c0,0-0.3,0.5-0.6,1.3c-0.4,0.8-0.9,1.8-1.3,2.9c-0.8,2.2-1.6,4.3-1.6,4.3
								l1-1c-0.5,2-0.7,4-1,6.1c-0.1,1-0.4,2-0.5,3.1c-0.1,1-0.2,2.1-0.3,3.1c-0.1,1-0.2,2.1-0.3,3.1c-0.1,0.9-0.1,1.8-0.2,2.8
								c-0.1,1.8-0.3,3.6-0.4,5.4c-0.5,7-1,13.5-0.3,18.3c0.3-6,0.9-6,1.8-6.6c-0.1,10.5-0.1,20.4-0.9,32.7c0.2-0.7,0.4-1.1,0.6-1.1
								c0.2,3.2-0.4,7.1-0.8,10.4l1.4,0.4c-0.6,6.3,0.1,14.4-1,21.9c1.5,2.9-1.4,18.1-0.8,26.7c-0.3,3.3,1.6-7.2,1.5,2.1
								c-2.9,1.3-0.1,12-3.2,12.7l1.2,8.1l-1.6,1.8c3,6.9-1.3,10.5-0.4,20.7c0.3-0.5,0.5-1.6,0.7-1.1c-0.3,3.3-0.5,10.9-1.3,5
								c0,5.4-0.7,24,1,15.7c-0.9,0.6-0.1-7,0.2-10.3c1.4,0.4,0.8,8.6,2.3,10.7c-0.1,0.3-0.4,1.3-0.6,2.1l0.8,1.2
								c-0.4,2.6-0.6,5.1-0.7,7.7c-0.1,1.3-0.1,2.5-0.2,3.8c0,0.6,0,1.2-0.1,1.8c0,0.6,0,1.4,0,2c0.1,2.7,0,5.4,0.3,7.8
								c0.1,1.2,0.1,2.5,0.2,3.6c0,0.6,0,1.2,0.1,1.7c0,0.6,0.1,1.1,0.1,1.7c0.3,0.2,0.6,0.8,1,1.8c0.2,0.5,0.4,1.1,0.6,1.9
								c0.2,0.7,0.6,1.6,0.9,2.5l-1.5,0.7c0,0,0.3,0.8,0.7,1.9c0.2,0.6,0.4,1.2,0.7,1.9c0.3,0.7,0.7,1.4,1,2.1
								c0.7,1.5,1.4,2.9,1.9,4c0.3,0.5,0.6,1,0.7,1.3c0.2,0.3,0.3,0.5,0.3,0.5s-0.1-0.4-0.1-1c-0.1-0.6-0.2-1.4-0.2-2.2
								c-0.1-1.6-0.1-3.2-0.1-3.2c3,6.1,5.9,11.2,8.9,15.9c1.6,2.3,3.1,4.7,5,6.7c0.9,1,1.9,2.1,2.9,3.1c1.1,0.9,2.1,1.9,3.3,2.8
								c0.5-0.1,1.2,0.1,1.9,0.5c0.8,0.4,1.7,0.8,2.8,1.4c1,0.6,2.2,1.3,3.4,2.1c1.3,0.7,2.7,1.4,4.1,2.2c0.7,0.4,1.4,0.8,2.2,1.1
								c0.8,0.3,1.5,0.6,2.3,0.9c0.8,0.3,1.6,0.6,2.4,0.9c0.8,0.3,1.6,0.6,2.4,0.8c3.2,0.8,6.2,1.4,8.8,1c0,0-0.5-0.1-1.3-0.3
								c-0.4-0.1-0.9-0.2-1.4-0.3c-0.5-0.2-1-0.3-1.5-0.5c-2.1-0.7-4.2-1.4-4.2-1.4c2.3,0.6,4.3,1.2,6.2,1.6
								c1.9,0.3,3.6,0.5,5.2,0.7c1.6,0.2,3,0.2,4.4,0.2c1.4,0,2.7,0,4,0c4.6-0.2,9.1-0.4,16.7,0.1c-6.5,0.5-9.7,0.6-13.7,0.8
								c-1,0.1-2.1,0.1-3.2,0.2c-1.3,0-2.8,0.1-4.4,0.2c-0.8,0-1.7,0.1-2.7,0.1c-0.9,0-1.9-0.1-3-0.1c-1.1-0.1-2.2-0.1-3.5-0.2
								c-1.2-0.1-2.5-0.3-3.9-0.5c1.4,0.2,2.7,0.6,4.1,0.8c1.3,0.2,2.7,0.3,4,0.5c2.6,0.4,5.1,0.4,7.6,0.6c0.6,0,1.2,0.1,1.8,0.1
								c0.6,0,1.1,0,1.6,0.1c1,0,2.1,0.1,3.1,0.1c2,0.1,4,0.2,6,0.3c8,0.3,15.8,0.6,24.4-0.2c-1.2-0.7-5.5-1.1-1.3-1.8
								c3.4,1.5,16.3-0.1,13.8,1.7c5.4-0.6,6.3-2.2,9.6-2.4l18.1,2.1l-0.6-0.3c30.7-3.9,57.4,2.6,88.2,1l-0.6-0.9l7.7,1.3
								c-6.1-0.9,2.6-1.1,3.1-1.9l19.8,2C348.8,419.3,347.7,417.4,342.8,417.8z M91.2,372c0,0-0.4-1.3-0.8-2.6
								c-0.2-0.6-0.3-1.3-0.4-1.8c-0.1-0.5-0.2-0.8-0.2-0.8c-0.3-1-0.6-2.1-0.7-3.3l0.7,3.3C90.5,369.5,92,371.1,91.2,372z
								 M279.4,90.6c2.3,0.8-3.2,0.2-4.8,0.4l7.6,0.2C283.2,90.7,280.5,90.7,279.4,90.6z M101.4,368.1l1.9,2c0,0,0,0.8,0.2,1.6
								c0.1,0.8,0.3,1.6,0.3,1.6s-0.2-0.3-0.4-0.8c-0.2-0.5-0.6-1.1-0.9-1.8C102,369.4,101.4,368.1,101.4,368.1z M149,405.6
								c0,0-1.6-0.4-3.1-0.8c-0.8-0.2-1.5-0.4-2.1-0.6c-0.6-0.2-0.9-0.3-0.9-0.3l0.6-0.1c0,0,0.1,0,0.3,0.1c0.2,0.1,0.4,0.2,0.7,0.2
								c0.6,0.1,1.3,0.3,2.1,0.5c1.5,0.4,3.1,0.8,3.1,0.8L149,405.6z M222.5,415.1c-0.4-0.1-0.8-0.1-1.3-0.2
								C221.6,414.9,222,415,222.5,415.1c5.1,0.8,7.1-1.2,11.3,0.8C228.7,417.6,225.4,415.8,222.5,415.1z M106.1,393.6
								c-0.8-1-1.3-1.7-1.8-2.4c-0.5-0.7-0.9-1.3-1.5-2c0.1,0.4,0.2,0.9,0.4,1.5c0.1,0.3,0.2,0.6,0.3,0.9c0.1,0.3,0.2,0.6,0.3,0.8
								c0.4,1,0.4,1.4-1,0.1c-0.5-1.3-2-3.7-3.2-5.8c-1.1-2.3-1.9-4.3-1.4-4.6c0.7,1.7,1.5,3.3,2.5,4.5c1,1.2,2,2.2,2.8,3
								c0.4,0.4,0.8,0.8,1.2,1.2c0.4,0.3,0.7,0.7,0.9,1C106.1,392.3,106.3,392.9,106.1,393.6z M89.8,236.4l0.1,1.7l0.9-6.1
								L89.8,236.4z M90.9,208c1.5-3.4,1.2-12.1,1.5-18.1c-1.3-1.6-2.7,4.5-2.6,11.6C88.8,209.9,91.8,204.7,90.9,208z M156.8,413
								l-1.7-1c0,0,0.4,0,0.8,0c0.4,0,0.8-0.1,0.8-0.1s-0.4,0-1-0.1c-0.6-0.1-1.5-0.2-2.4-0.3c-1.7-0.2-3.4-0.5-3.4-0.5
								c2.3-0.2,4.4-0.2,6.3-0.1c1.9,0.1,3.6,0.3,5.2,0.5c3.2,0.5,5.8,1.3,8,1.5C165.5,412.7,155,410.2,156.8,413z M92.3,147
								c0.2-0.8,0.5-1.6,0.7-2.6c0.1-0.4,0.3-0.9,0.4-1.4c0.1-0.5,0.3-0.9,0.5-1.4c0.4-0.9,0.7-1.9,1.1-2.8c0.4-0.9,0.6-1.8,1.1-2.6
								c1.7-3.2,3-5.4,3.3-4.7c-0.8-0.6-2.2,1.2-3.5,3.5c-0.3,0.6-0.7,1.2-0.9,1.8c-0.2,0.6-0.5,1.3-0.7,1.9c-0.4,1.2-0.7,2.3-0.9,3
								c-0.2,0.8-0.3,1.5-0.4,2.3C92.8,145,92.6,145.9,92.3,147z M95.8,147.8c-0.1,0.5-0.3,1.1-0.4,1.5c-0.1,0.5-0.2,0.9-0.3,1.4
								c-0.2,0.9-0.3,1.7-0.5,2.4c-0.3,1.4-0.6,2.6-0.9,3.6c-0.6,2.1-1.2,3.9-2.1,7.3c-0.4-4.4,0-7.1,0.7-8.7
								c0.7-1.6,1.6-1.9,2.1-1.4c1.1-6.1,0-5,0.2-8.4L95.8,147.8z M89.9,157l0.3,3.6c0.8,4.2,3,5.1,0.8,11l-0.8-11
								C90,159.6,89.8,158.4,89.9,157z M132.7,94.2c0,0-1,0.2-2,0.4c-1,0.2-2,0.5-2,0.5c0.9-0.4,1.6-0.6,2.2-0.8
								c0.6-0.2,1-0.3,1.3-0.3C132.8,93.8,132.8,94,132.7,94.2l3.3-0.6C128.2,97.1,132.1,95,132.7,94.2z M92.9,138.2
								c0,0-0.2,0.7-0.5,1.7c-0.2,1-0.7,2.4-0.9,3.8c-0.2,1.4-0.5,2.8-0.6,3.8c-0.1,0.5-0.2,1-0.2,1.3c-0.1,0.3-0.1,0.5-0.1,0.5
								C91.6,148.7,92,141.8,92.9,138.2z M130.9,96.6c-1.1,0.4-2.5,1.2-4.1,2c-0.8,0.4-1.6,0.8-2.4,1.3c-0.8,0.5-1.5,1-2.3,1.4
								c-0.7,0.5-1.4,0.9-2,1.3c-0.6,0.4-1.1,0.8-1.5,1.1c-0.8,0.6-1.1,0.8-0.8,0.6c0.1-0.4,0.7-1.1,1.6-1.9c1-0.7,2.4-1.6,3.8-2.5
								c1.4-0.9,3-1.5,4.4-2.1C129,97.2,130.2,96.7,130.9,96.6z M361,95.8c0,0-0.1,0-0.3-0.1c-0.2,0-0.4-0.1-0.7-0.1
								c-0.6-0.1-1.4-0.2-2.3-0.4c-0.8-0.1-1.7-0.3-2.3-0.4c-0.6-0.1-1-0.1-1-0.1s0.2-0.1,0.5-0.2c0.3-0.1,0.7-0.2,1.2-0.3
								c0.9-0.2,1.7-0.4,1.7-0.4s0.8,0.5,1.6,1c0.4,0.2,0.8,0.5,1.1,0.7C360.8,95.7,361,95.8,361,95.8z M284.1,95.6l1.6-0.7l3.8,0.1
								L284.1,95.6z M213.4,95.7c0.3-0.3,0.2-0.7-0.4-1c-1.1-0.1-2-0.3-2.5-0.6c1,0,1.9,0.2,2.5,0.6c2.8,0.3,7,0.1,9-0.3
								c-1.1-0.7-5.5-0.5-7.2-1c6.5-1.6,21,3.2,16.8-1.4c2.7,0.6,12.1,1.8,8.9,2.6C233.1,94.3,219.1,94.8,213.4,95.7
								c-0.3,0.2-0.9,0.4-2.2,0.5C211.6,96,212.4,95.8,213.4,95.7z M120.8,107.7c-2.2,1.5-3.2,2-3.7,2.3c-1.9,1.3-3.6,2.1-3.5,1.2
								c4.6-3.4,2.2-0.6,3.5-1.2C118.3,109.2,119.6,108.5,120.8,107.7z M109,119.4c0,0,0.4-0.4,0.9-1c0.6-0.6,1.4-1.3,2.2-2
								c0.8-0.7,1.6-1.4,2.2-2c0.6-0.5,1.1-0.8,1.1-0.8s-0.2,0.1-0.6,0.3c-0.2,0.1-0.4,0.2-0.6,0.3c-0.2,0.1-0.4,0.3-0.7,0.5
								c-0.9,0.6-1.8,1.3-1.8,1.3s0.6-0.5,1.6-1.3c0.2-0.2,0.5-0.4,0.8-0.6c0.3-0.2,0.6-0.4,0.9-0.6c0.6-0.4,1.3-0.9,2-1.3
								c0.7-0.4,1.3-0.9,2-1.3c0.7-0.4,1.3-0.7,1.8-1c1.1-0.6,1.8-0.9,1.8-0.9c-0.7,0.6-1.4,1.2-2.1,1.8c-0.4,0.3-0.7,0.6-1.1,0.9
								c-0.4,0.3-0.7,0.6-1,0.9c-0.7,0.6-1.4,1.2-2,1.7c-0.7,0.5-1.4,1-1.9,1.6c-1.2,1-2.3,1.9-3.3,2.5
								C110.1,118.9,109.4,119.4,109,119.4z M107.9,122.3c0,0-0.5,0.2-1,0.4c-0.5,0.2-0.9,0.5-0.9,0.5s0.1-0.1,0.4-0.3
								c0.2-0.2,0.5-0.4,0.8-0.6c0.6-0.4,1.3-0.8,1.3-0.8L107.9,122.3l0.4-0.2c0,0-0.1,0.2-0.4,0.5c-0.1,0.2-0.3,0.3-0.4,0.5
								c-0.2,0.2-0.3,0.5-0.5,0.8c-0.7,1.1-1.7,2.6-2.7,4.1c-0.8,1.6-1.7,3.2-2.3,4.4c-0.3,0.6-0.5,1.1-0.7,1.5
								c-0.1,0.4-0.2,0.6-0.2,0.6s0.1-0.2,0.2-0.6c0.2-0.4,0.3-0.9,0.6-1.5c0.6-1.2,1.4-2.7,2.2-4.3c0.9-1.5,1.9-3,2.5-4.1
								C107.4,123,107.9,122.3,107.9,122.3z M95.4,269.8c3.8,5.5,2.7-13,4.5-15.9c-1.3-0.6-3.3-6.2-3.2,8.2
								c-1.3-12.4,2.5-7.8-0.7-15.2c0.2,6-0.8,13.1-0.9,14.2l-0.1-7C92.7,258,96.2,264.8,95.4,269.8z M96,345.4c0,0,0,0.6,0,1.4
								c0,0.9,0,2,0,3.2c0.1,2.3,0.2,4.6,0.2,4.6s0-2.2-0.1-4.4c0-0.5,0-1.1,0-1.6c0-0.5,0-1,0-1.4c0-0.8,0-1.4,0-1.4L96,345.4z
								 M286.5,407.1c-0.7-0.9,11.2-2.5,14.1-0.8C294.6,406.5,288,406.4,286.5,407.1z M382,397.2c0,0-0.1,0.1-0.4,0.2
								c-0.3,0.1-0.6,0.3-1,0.5c-0.9,0.4-2,1-3.1,1.6c-0.3,0.1-0.6,0.3-0.8,0.4c-0.3,0.1-0.6,0.2-0.9,0.3c-0.6,0.2-1.1,0.4-1.5,0.6
								c-0.9,0.3-1.5,0.6-1.5,0.6c0.2-0.7,0.8-1.2,1.7-1.8c0.4-0.3,0.9-0.5,1.5-0.7c0.5-0.3,1.1-0.6,1.6-0.8
								c1.2-0.6,2.4-1.1,3.6-1.7c1.1-0.7,2.3-1.4,3.1-2.2C386.2,394,382.8,395.7,382,397.2z M407.2,338.9l0.3-3.3l-2,3.5
								L407.2,338.9z M404.5,343.5c-0.5-1-0.8,0.2-1,1.9c-0.1,0.9-0.2,1.8-0.2,2.7c0,0.9-0.1,1.5-0.1,1.9
								C403.3,350.2,404.5,343.5,404.5,343.5z M402.7,282.6l0.1,4.3l1.8-3.9L402.7,282.6z M404.8,289.5c-1.3,1-3,0.6-2.2,10.5
								c1.4,0.4,1.3-2.3,2.9,1.4c0.3-3.3-0.2-6-0.4-7.6c-0.2,2.2,0.4,4.9-0.5,5.5C404.2,295.6,404.3,291.8,404.8,289.5
								c0.5-0.3,0.9-0.9,1.1-2.2C405.5,287.3,405.1,288.2,404.8,289.5z M406.2,325.6c0.2,1.3,0.3,2.5,0.6,3l-0.3,0.6
								C405.9,327.8,406,326.7,406.2,325.6c-0.2-1.4-0.3-3.1-0.5-4.8c-1.1-1.1-1.9,5.7-2.6,7.5c0.3-3.2,1.4-6.1,0.8-10.4
								c-0.3,0.6-0.6,0-0.6,2.7l-0.2-5.9c1.6-6.8,2.1-0.3,2.6,6c0.3,0.2,0.5,0.7,0.8,1.9C406.7,323.7,406.5,324.6,406.2,325.6z
								 M408.8,277.9l-0.3,3.3c-0.4,1.7-0.9,0.6-1.2,1.2C407.3,278.5,408.1,273.5,408.8,277.9z M317.6,409.4
								c2.2-0.3-2.8-1.7-7.7-1.3l2.6-1.7c0.1,1.1,9.9,1,11,1.1C325.2,409,321.4,408.4,317.6,409.4z M101.6,377.1
								c0.3-0.7,0.1-1.8-0.4-3.2c-0.2-0.7-0.6-1.4-0.8-2.3c-0.3-0.8-0.5-1.7-0.8-2.6c-0.3-0.9-0.6-1.7-0.9-2.6
								c-0.2-0.9-0.4-1.7-0.6-2.5c-0.4-1.5-0.7-2.8-0.7-3.5c0.5,1.6,1.1,3.6,1.7,5.7c0.4,1,0.8,2.1,1.2,3.1c0.4,1,0.7,2,1.1,2.9
								C102.8,375.8,103.5,378.4,101.6,377.1z M94.4,356.2c-0.1-0.4-0.1-0.8-0.2-1.2c0-0.4,0-0.7-0.1-1c0-0.6,0-1,0-1.3
								c0.1-0.6,0.3-0.8,0.8-0.7c0.2-0.9,0.1-1.9,0-3.1c-0.1-1.1-0.1-2.2,0.1-3c0.4,3.3,0.4,4.9,0.1,6.1c-0.2,0.6-0.4,1.2-0.5,1.8
								c-0.1,0.3-0.2,0.7-0.2,1C94.4,355.3,94.4,355.7,94.4,356.2c0.1,0.9,0.3,1.9,0.4,3.2C94.5,358.1,94.4,357.1,94.4,356.2z
								 M201.8,410.4l4.5,1.6l7.1-0.1L201.8,410.4z M277.7,413.3c-0.6-0.9,7.5-0.9,9.2-0.5c-0.5-1.2-6-1-10.3-1.2
								c-0.6-0.1-1.5-0.2-2.8-0.2c0.8,0.1,1.8,0.1,2.8,0.2c1.6,0.3,0.5,0.9,0.5,1.3l-2.2,0.3l6,0.3L277.7,413.3z M405.8,381.6
								c0.5-1.2,0.8-2.3,1.1-3.1c0.3-0.8,0.6-1.5,0.8-2c0.5-1.1,1.2-2,1.9-3.7c0,0.3-0.1,0.8-0.2,1.5c-0.2,0.7-0.5,1.4-0.9,2.2
								c-0.4,0.8-0.8,1.7-1.2,2.6c-0.2,0.4-0.4,0.9-0.7,1.3C406.3,380.8,406,381.2,405.8,381.6z M237.5,414.3
								c8.2-0.6-3.9-1.8,1.4-2.4l-4.3,0.1c6.9-1.3,5,1.3,9.8,1l-3.3,0.2c-2.6,1.1,5,0.8,5.6,1.7C243,415.4,234.2,414.5,237.5,414.3z
								 M410.2,374.2c0.5-2.2,1-3.7,1.4-4.9c0.2-0.6,0.4-1,0.6-1.4c0.2-0.4,0.4-0.7,0.6-1.1c0.8-1.3,1.7-2,2.4-4.8
								c-0.3,3.7-1,5.2-1.8,6.5C412.6,369.9,411.5,371.1,410.2,374.2z M288.9,417.7l-0.5,0.2l6.6,0.7l0.5-0.2L288.9,417.7z"/>
							<path class="st1" d="M401.8,360.9c0.1-0.5,0.2-0.9,0.2-1.2c0-0.4,0.1-0.7,0.1-1.1c0.1-0.7,0.2-1.2,0.3-1.7
								c-0.1,0.6-0.1,1.3-0.2,2c0,0.3-0.1,0.7-0.2,1C402,360.3,401.9,360.6,401.8,360.9z"/>
							<path class="st1" d="M102,336.2c-0.3-0.2-0.5-0.9-0.6-1.8C101.6,334.5,101.8,335,102,336.2z"/>
							<path class="st1" d="M102.7,320.4c0-0.2,0-0.4,0-0.6c0-0.1,0.1-0.3,0.1-0.5L102.7,320.4z"/>
							<path class="st1" d="M405.2,161.2c-1.5,3.4-0.2-3.3-0.3-6C405,157.9,405.9,159,405.2,161.2z"/>
							<path class="st1" d="M405.5,140c0,0.8,0,1.8,0.2,2.9c0,0.3,0.1,0.6,0.1,0.9c0,0.3,0,0.6,0,0.9c0,0.6,0.1,1.3,0.2,2
								c-0.1-0.9-0.3-1.7-0.3-2.8C405.6,142.8,405.5,141.6,405.5,140z"/>
							<path class="st1" d="M407,157.2c0-0.5-0.1-1-0.1-1.5c-0.1-0.5-0.1-1-0.2-1.5c-0.1-1-0.2-1.9-0.2-2.7c0-1.8-0.3-3.3-0.5-4.8
								C406.5,149.3,407.2,151.6,407,157.2z"/>
							<path class="st1" d="M368,100.3c1.4,1,3.7,1.8,5.4,2.7c0.9,0.4,1.7,0.8,2.3,1c0.3,0.1,0.5,0.2,0.7,0.3
								c0.2,0.1,0.3,0.1,0.3,0.1c-6.4-2.6-5.9-1.9-3.8-0.4c0.5,0.4,1.2,0.8,1.8,1.2c0.3,0.2,0.7,0.4,1,0.6c0.3,0.2,0.6,0.5,0.9,0.7
								c1.2,0.9,2.1,1.7,2.2,2c-0.9-0.6-1.6-1.1-2.3-1.5c-0.3-0.2-0.6-0.5-0.9-0.7c-0.3-0.2-0.6-0.4-0.8-0.5c-1-0.7-1.8-1.3-2.5-1.9
								C371,102.6,370.1,101.7,368,100.3z"/>
							<path class="st1" d="M349.9,96.6c1.4,0.1,2.8,0.1,3.9,0C352.4,96.8,351.1,96.8,349.9,96.6z"/>
							<path class="st1" d="M344.7,97.4c-4.9-0.2-6.6-1.2-8.8-2c3-0.4,5.4-0.1,7.6,0.2c1.1,0.2,2.2,0.4,3.2,0.5
								c1.1,0.2,2.1,0.3,3.2,0.5c-1.7-0.1-3.4-0.1-4.5,0C344.3,96.7,343.9,97,344.7,97.4z"/>
							<path class="st1" d="M194.2,102.3c1.1,0.1,3.8,0.1,3.9,0.7l-8.2,0C186.7,102.7,192.6,102.4,194.2,102.3z"/>
							<path class="st1" d="M164.1,99.6c-6.5-0.1-3.1,1.4-6.4,1l0.4-1.9L164.1,99.6z"/>
							<path class="st1" d="M167.7,89.8l1.9,0.2c-0.7,0-1.4,0-2.2-0.1L167.7,89.8z"/>
							<path class="st1" d="M135.1,105.3c0,0,1.1,0.2,2.3,0.3c1.1,0.2,2.2,0.3,2.2,0.3C135,107.1,134.2,105.6,135.1,105.3z"/>
							<path class="st1" d="M117.4,118.7c0,0,0.7-0.5,1.4-1c0.7-0.4,1.5-0.9,1.5-0.9s-0.5,0.4-1.3,1c-0.8,0.6-1.7,1.6-2.6,2.5
								c-0.5,0.5-0.9,0.9-1.4,1.4c-0.5,0.4-0.8,0.9-1.1,1.3c-0.6,0.8-1.1,1.3-1.1,1.3s0.3-0.4,0.7-0.9c0.2-0.3,0.4-0.6,0.7-0.9
								c0.2-0.3,0.5-0.7,0.8-1C116.2,120.1,117.4,118.7,117.4,118.7z"/>
							<path class="st1" d="M103.6,141.4l0.2,1c0,0-0.1,0.4-0.4,1.1c-0.1,0.3-0.2,0.7-0.4,1.1c-0.1,0.4-0.2,0.9-0.3,1.3
								c-0.4,1.8-0.8,3.7-0.8,3.7s0.3-2.1,0.7-4.2c0-0.3,0.1-0.5,0.1-0.8c0.1-0.3,0.1-0.5,0.2-0.7c0.1-0.5,0.2-0.9,0.3-1.3
								C103.5,141.9,103.6,141.4,103.6,141.4z"/>
							<path class="st1" d="M179.5,404.3c1.2,1.8-11.9,1.1-15.7,1.5C166.5,403.5,174.3,406.6,179.5,404.3z"/>
							<path class="st1" d="M399.4,371.2c0,0-0.3,0.6-0.8,1.6c-0.2,0.5-0.5,1.1-0.9,1.7c-0.2,0.3-0.3,0.6-0.5,0.9
								c-0.2,0.3-0.4,0.6-0.6,0.9c-0.8,1.2-1.6,2.4-2.2,3.3c-0.7,0.9-1.1,1.4-1.1,1.4c0.3-0.5,0.6-0.9,0.8-1.3
								c0.2-0.4,0.4-0.8,0.5-1.1c0.3-0.6,0.6-1.1,0.7-1.4c0.4-0.7,0.6-0.9,0.8-1.2c0.2-0.2,0.5-0.4,1-1.1
								C397.7,374.4,398.3,373.3,399.4,371.2z"/>
						</g>
					</g>
				</g>
				<g>
					<g>
						<g>
							<path class="st1" d="M421.9,8.4c-0.8-0.4-2.1-0.9-3.1-1.3c1.5,0.5,2.7,0.9,3.3,1.1C422.6,8.4,422.6,8.5,421.9,8.4z"/>
							<path class="st1" d="M377.6-0.6c5.9,0,13.5,0.5,21,1.8c1.9,0.4,3.7,0.7,5.6,1.1c1.8,0.5,3.6,0.9,5.3,1.4
								c1.7,0.6,3.4,1.1,4.9,1.6c1.6,0.5,3,1.2,4.4,1.7c-1.2-0.4-2.7-0.9-4.4-1.3c-1.7-0.4-3.6-0.9-5.6-1.4c-2-0.4-4.2-0.9-6.3-1.3
								c-2.2-0.3-4.4-0.8-6.5-1c-2.2-0.2-4.3-0.6-6.2-0.8c-2-0.2-3.8-0.4-5.5-0.6C380.9,0.3,378.5-0.1,377.6-0.6z"/>
							<path class="st1" d="M422.6,12.4c0,0-0.8-0.4-2-0.9c-1.2-0.6-2.9-1.1-4.5-1.8c-1.6-0.7-3.3-1.2-4.6-1.6
								c-1.3-0.4-2.1-0.7-2.1-0.7c2,0.4,3.5,0.8,4.6,1.1c1.1,0.3,1.8,0.7,2.6,1.1C417.9,10.2,419.2,10.9,422.6,12.4z"/>
							<path class="st1" d="M418.4,8.7l1-0.5c0,0,0.4,0.2,1.1,0.5c0.7,0.3,1.5,0.8,2.4,1.2c0.9,0.4,1.7,0.9,2.4,1.2
								c0.6,0.3,1.1,0.6,1.1,0.6s-0.5-0.2-1.2-0.5c-0.7-0.3-1.7-0.7-2.7-1.1C420.4,9.3,418.4,8.7,418.4,8.7z"/>
							<path class="st1" d="M239.6,510.5c1.5,0.3,2.4,0.7,1.7,1.2L239.6,510.5z"/>
							<path class="st1" d="M205.8,506.9c-3-0.1-5.1-0.2-7-0.2C201,506.6,202.7,506.7,205.8,506.9z"/>
							<path class="st1" d="M270.2,510.2l-6,0.1C266.1,510.2,268.2,510.1,270.2,510.2z"/>
							<path class="st1" d="M507.4,309.6c0.6-5.6,1.1-10.9,1.5-14.9C509.4,305.6,508.1,306.6,507.4,309.6z"/>
							<path class="st1" d="M60.2,474.9l-1.5-0.3C57.7,473.5,57.3,472.9,60.2,474.9z"/>
							<path class="st1" d="M197.8,496.3c0.1,0.4-0.2,0.6-0.8,0.8c-0.6-0.1-1.2-0.1-1.7-0.2L197.8,496.3z"/>
							<path class="st1" d="M294,508.9c0.1,0,0.2,0,0.3-0.1l4.9,0.4C296.6,509.3,294.9,509.2,294,508.9z"/>
							<path class="st1" d="M30,443.4c-0.8-1.8-1.4-3.6-1.8-5.3c1,1.8,1.6,3.2,1.9,4.2C30.4,443.2,30.4,443.6,30,443.4z"/>
							<path class="st1" d="M198.1,506.7C198,506.7,198.1,506.7,198.1,506.7c0.2,0,0.6,0,0.8,0C198.6,506.7,198.4,506.7,198.1,506.7
								z"/>
							<path class="st1" d="M246.5,497c-2.6-0.1-5-0.2-7.7-0.3C242,496.5,244.8,496.7,246.5,497z"/>
							<path class="st1" d="M507.4,309.6c-0.2,1.6-0.3,3.1-0.5,4.7C506.9,312.1,507.1,310.8,507.4,309.6z"/>
							<path class="st1" d="M456.7,26.5c0.9,0.7,1.7,1.3,2.3,1.9c0.6,0.6,1,1,1.3,1.4c0.6,0.8,0.9,1.3,1.1,1.7
								c-0.9-0.9-1.8-1.8-2.5-2.7C458,27.9,457.3,27.2,456.7,26.5z"/>
							<path class="st1" d="M366.1-3.9l1.9,0C367.2-3.9,366.6-3.9,366.1-3.9z"/>
							<path class="st1" d="M185.6-5.6c-0.8-0.1-1.7-0.3-2.4-0.5C184.8-6.3,185.7-6,185.6-5.6z"/>
							<path class="st1" d="M39,49.3c3.3-4.4,7.4-8.2,11.7-11.3c0.5-0.4,1.1-0.8,1.6-1.2c0.6-0.4,1.1-0.7,1.6-1.1
								c1.1-0.7,2.2-1.5,3.2-2.2c2.2-1.3,4.2-2.7,6.2-3.9c0,0-0.8,0.3-1.6,0.5c-0.4,0.1-0.8,0.3-1.1,0.4c-0.3,0.1-0.5,0.2-0.5,0.2
								s0.5-0.3,1.3-0.8c0.8-0.4,1.8-1,2.9-1.6c1-0.6,2.1-1.2,2.9-1.5c0.8-0.4,1.3-0.7,1.3-0.7l-0.7-0.9c7-3.8,15-7.5,22.2-9.8
								c0.4-0.2,0.9-0.3,1.3-0.5c0.4-0.1,0.9-0.2,1.3-0.4c0.9-0.2,1.7-0.5,2.6-0.7c1.6-0.5,3.2-0.8,4.6-1c2.8-0.6,5.2-0.6,6.7-0.5
								l-2.1-1.5c0,0,1.1-0.1,2.6-0.2c0.4,0,0.8-0.1,1.3-0.1c0.5,0,0.9,0,1.4-0.1c1,0,2-0.1,3.1-0.1c1-0.1,2.1-0.1,3.1,0
								c1,0,1.9,0,2.7,0c1.6,0,2.6,0.1,2.6,0.1s-0.2,0-0.4,0c-0.3,0-0.6-0.1-1.1-0.1c-0.9,0-2.1-0.1-3.3-0.2
								c-1.2-0.1-2.4-0.1-3.3-0.1c-0.9,0-1.5,0-1.5,0c2.3-0.4,4.9-0.6,7.4-0.8c1.3-0.1,2.6-0.1,4-0.1c0.7,0,1.3,0,2,0
								c0.7,0,1.4,0,2.1,0c5.8,0.1,11.7,0.2,17.2,0.4c10.8,0.3,19.7,0.7,21.8,0.6l-1.8-0.7c3.3-0.3,6,0.1,9.4,0.3l-2.7-1
								c30.7,0.3,39.1-2,73.4-0.9c9.3-0.2-5.2-0.3-5.3-0.9c5.1-0.8,17.1,0,19.7,0.4c-2.7-1.6-17.2-1.1-6.2-2.4
								c7.8,0.8-5.3-1.5,8.4-1.2l5.4,2c7.6-0.4,1.5-1.6,13.6-1.4c13.8,0.9-16.8,2.3,5.3,2.6c11.1-0.1,23.4-4.7,44.9-3.6
								c18.6-1.1-9.8-3.2,15.9-2.6l-16.5-1.3c4.3-0.6,1.6-1.6,12.7-1.2c3.5,0.8,10.4,1.8,16.4,1.9C334.9-1.2,380.1-2,357.7-4
								l8.4,0.1c-1-0.1-1.3-0.3-0.8-0.4l11.1-0.1c-6.8-0.4-23.1-0.6-15.6-2.1L376.9-7c-4.3-1.1,1.6-1.6,0.7-2.5l-47.3-2.2
								c1.9,0.7,8.7,1.1,6.1,1.8c-12.6,0.6-10.3-1.2-22.2-0.3l5.2,0.9c-0.9-0.3-2.6-0.4,0-0.6c4.2-0.6,6,0.1,6,0.7
								c-4.2,1.1-16.1,0.4-19.7-0.4c-15.4,0.1-3.2,2-6.5,2.4c-7.9-1.9-25.6,0-35.2-0.8l6.1,1.2c-11.7,1.5-22.2,0.3-29-0.2l2.7,1
								c-16.3-0.2-24.3,3.2-36.7-0.4l1.7,0.7c-6.7,0.3-16.8,1.1-23.2,0c-0.1,0.4-1.3,0.9-4,1.1c-3.6-1.4-10.6-0.3-20.4-0.1
								c6.5,0.4,4.4,2.2,11.3,2.6c-15.2,1.8-13.9-2-26.7-2c-7.6,0.9,6.9,1,8.7,1.7c-9.9-0.5-20,0.5-29.2,1.3
								c-9.3,0.8-17.4,2.2-23.9,1.7c0,0,2.1-0.7,4.1-1.3c1-0.4,2.1-0.6,2.9-0.8c0.8-0.2,1.3-0.3,1.3-0.3c-1,0-2,0.1-2.8,0.1
								c-0.9,0.1-1.7,0.2-2.5,0.2c-1.5,0.2-2.8,0.3-3.8,0.5c-1.9,0.3-2.7,0.7-2.2,0.7c2.5-0.7,3.4-0.5,4.4-0.3
								c-0.7,0.2-1.5,0.4-2.2,0.5c-0.7,0.2-1.4,0.4-2.1,0.6c-1.4,0.4-2.7,0.8-4.1,1.1c-2.6,0.7-5.1,1.5-7.6,2.2
								c-2.4,0.8-4.8,1.3-7.1,2.1c-1.2,0.4-2.3,0.7-3.4,1.1c-1.1,0.4-2.3,0.8-3.4,1.2c-1.1,0.4-2.3,0.8-3.4,1.2
								c-1.1,0.5-2.2,0.9-3.4,1.4c-2.3,0.9-4.5,2-6.8,3.2c-1.2,0.6-2.3,1.3-3.4,1.9c-1.1,0.7-2.3,1.4-3.5,2.1
								c-2.3,1.6-4.7,3.2-7.1,5.3c0.9-0.3,2.1-1,3.1-1.5c1-0.5,1.9-0.9,2.1-0.7c-2.2,1.7-3.9,3-5.5,3.9c-1.7,0.9-3.1,1.7-4.7,2.6
								c-0.8,0.4-1.7,0.9-2.6,1.5c-0.9,0.6-1.9,1.4-2.9,2.2c-1.1,0.9-2.2,1.9-3.4,3.2c-1.2,1.3-2.6,2.8-4,4.7c0,0,0.7-0.6,1.5-1.1
								c0.8-0.5,1.5-1,1.5-1c-1,1.2-1.9,2.3-2.8,3.2c-0.9,0.9-1.7,1.7-2.4,2.3c-1.3,1.2-2.2,1.8-2,1.4c1.1,1.2-5.2,8.6-10.6,18.5
								c-5.7,9.7-9.8,22-9.6,28.6c-2.1,4-4.8,12.2-6.2,20.6c-0.7,4.2-1.1,8.4-1.2,12.1c0,0.9,0,1.8-0.1,2.6c0,0.8,0,1.6,0,2.3
								c0,1.4,0.1,2.6,0.2,3.6c1.8,10.9,2-9.7,3.7-5.6c0,8.5-1.7,13-1.1,25.8c-1.7,0.2-3.4-25.2-4.4-1.2l0.9,3.4
								c-0.1-2.5-0.5-5.9-0.2-9.4c1-6.9,1.1,4.2,1.6,5.7l-0.5,25.7c-1.8,1.9-1.4-13.5-1.8-15.1c0.4,20.4,3,44.9,1.8,63.8l0.7-1.8
								c-1.5,24.1,3.3,14.1,0.4,33.3c0.5,10.1,1.9-3.7,2.1,11.7c0,4.3-0.7,1.8-0.9,1c-0.6,18.8,1.7,8.3,0.1,25.6l1.9-3.7
								c-1.3,20.7-4.7,42.4-3.8,60.3c1.5-1.1,1.3-12.1,2.5-16.5c-1.3,12.1-1.4,26.6-1.3,40.9c0,1.8,0.1,3.6,0.1,5.4
								c0,0.9,0.1,1.8,0.1,2.7c0,0.9,0.1,1.8,0.2,2.7c0.2,1.8,0.2,3.5,0.5,5.3c0.2,1.7,0.4,3.5,0.7,5.1c1,6.8,2.4,13,3.8,18.6
								c-1.5-3.1-1.5-0.3-1.7,1.6c-0.1,0.9-0.2,1.7-0.6,1.3c-0.2-0.2-0.6-0.7-1-1.5c-0.4-0.9-0.9-2.2-1.6-3.9c0.3-2.1-0.1-4.8-0.9-8
								c-0.4-1.6-0.7-3.3-1.1-5.1c-0.4-1.8-0.7-3.7-0.9-5.7c-1.3,6.7,1.8,20.4,7.1,31.8c5.1,11.5,11.7,20.8,11.3,23.4l3.1,2.1
								c1,1.5,2.5,4.3,3.4,6.1c0.9,1.8,1.1,2.6-1.1,0.2c0,0,1.1,1.3,2.7,3.1c0.8,0.9,1.7,2,2.8,3.1c1.1,1.1,2.2,2.3,3.3,3.5
								c2.3,2.3,4.7,4.6,6.5,6.2c0.9,0.8,1.7,1.5,2.2,2c0.5,0.5,0.9,0.7,0.9,0.7c-3-3.5-7.5-9-11.2-14.5c-3.8-5.4-7.2-10.6-9.4-12.7
								c-1.3-3.5,0.3-1.4,2,0.7c1.8,2.1,3.7,4.1,2.6,1c1.9,3.8,3.5,6.1,4.7,7.7c1.2,1.6,2.3,2.5,3.3,3.3c1.1,0.8,2.2,1.7,3.8,3
								c0.8,0.7,1.7,1.5,2.8,2.6c1.1,1,2.4,2.3,3.9,3.8c-3.6-2-1,1.7,2.7,5.5c0.9,1,1.9,1.9,2.9,2.9c1,0.9,1.9,1.8,2.7,2.6
								c1.6,1.5,2.7,2.5,2.4,2.6c1.2,0.8,2.8,1.9,4.6,3c0.9,0.6,1.8,1.2,2.7,1.9c0.9,0.7,1.9,1.3,2.9,1.9c1,0.6,1.9,1.3,2.8,1.9
								c0.9,0.6,1.9,1.2,2.7,1.7c1.7,1.1,3.2,2.1,4.3,2.7c4.7,2.4,12.8,5.2,21.9,7.4c2.3,0.6,4.6,1,7,1.5c2.3,0.4,4.7,0.8,7.1,1.2
								c2.3,0.3,4.7,0.6,6.9,0.9c2.3,0.2,4.4,0.4,6.5,0.7c-6.3-0.9-15.9-3.3-14.9-4.6c7.7,2.1,16.6,2.6,18.2,0.9
								c-7-0.9-11-1.6-13.5-1.8c-2.6-0.1-3.7,0.1-4.7,0.5c-1,0.3-2,0.7-4.3,0.6c-2.3-0.2-5.9-0.9-11.9-3.2c-1.4-0.9-2.8-1.8-4.4-2.6
								c-1.6-0.8-3.2-1.8-5.1-2.7c-3.7-1.9-8.2-4.2-13.8-7.5c5.7,1.8,3.6,0.2,6.3,0.2c1.5,1.3,3.3,2.5,5.2,3.7
								c1.9,1.2,4.1,2.1,6.3,3.2c4.6,1.8,9.6,3.5,15,4.6c5.3,1.2,10.9,1.9,16.4,2.5c2.8,0.2,5.5,0.5,8.2,0.6c1.3,0.1,2.7,0.2,4,0.3
								c1.3,0.1,2.6,0.2,3.9,0.3c8.7,1.1,2.2,3.5,21.9,3.9l-16.9,1.2c18.6-1.1,4.4,1.1,19.8,1.5l-6.1-1.2c9.4-0.2,12.9,0,18.1,0.9
								l-8-1.9c5.1-0.2,14.5-0.5,14.6,0.6c1.3-0.5,1.8-0.8,1.8-1.2c1,0.3,3.4,0.5,9.3,0.5c-3.5-0.2-6-0.1-6.1-0.7
								c22.6,0.5,5.3-2.1,19.3-1.9c-2.2-0.4,1.8-1,6.8-1.2c-0.3,3,27.5,3.4,34.8,5.1l-0.1,0l18.9,1.2c-3.8-0.2,0.3-1.1,5.8-1.4
								l-0.9,0c6-0.5-7.2-3.3,10.9-2.4l9.5,0.9c-1.7-0.1-0.1-0.6,0.8-0.8l9.8,0.8c14.9-2.8,28.2,1.6,45.8,0.2
								c-5.1,0.2-12.8,0-9.5-0.9c3.4-0.3,8.5,0,11.2,0.4l-0.9-0.3l33.5,1.9c-2.7-1-21.5-1.1-13.1-2.2c2.5-0.7,6.1-0.7,9.9-0.5
								c1.9,0.1,3.8,0.3,5.6,0.4c1.8,0.1,3.6,0.2,5.2,0.2c-0.8,0.8-12.2,1.7-0.6,1.9c1.5-0.3,12.4-2,7.2-2.2c1.5,0,3.1,0,4.7-0.2
								c1.6-0.1,3.3-0.2,5-0.4c1.7-0.2,3.5-0.4,5.2-0.7c1.8-0.2,3.5-0.6,5.3-0.9c7-1.3,13.9-3.1,19.1-4.5c3.1-1.6-2.1,0.1-3.8,0.6
								l-0.7,0.5c-3.5,1-3.9,0.6-5.1,0.6c-0.6,0-1.4,0.2-2.9,0.5c-0.7,0.2-1.6,0.5-2.8,0.8c-0.6,0.2-1.2,0.4-1.9,0.6
								c-0.7,0.2-1.5,0.4-2.3,0.7c-0.4-0.6,0.6-1.2,2.5-1.9c0.9-0.4,2.1-0.8,3.5-1.2c0.7-0.2,1.4-0.4,2.1-0.6
								c0.7-0.2,1.5-0.5,2.3-0.8c6.4-2,14.3-4.9,19.6-8.1c0,0-1.1,0.5-2.8,1.1c-1.7,0.7-4,1.5-6.3,2.3c-2.3,0.8-4.7,1.4-6.4,1.9
								c-0.9,0.3-1.6,0.4-2.1,0.6c-0.5,0.1-0.8,0.2-0.8,0.2c7.4-3.5,15.2-7.5,22.9-12.3c7.7-4.7,15.4-10.3,22.4-16.6
								c7-6.3,13.5-13.3,18.9-20.7c5.4-7.4,9.7-15.1,12.8-22.6c-2.9,9.1-7.8,15.6-5.4,15.6c1.4-2.1,2.5-4,3.4-5.7
								c0.5-0.8,0.9-1.6,1.3-2.3c0.4-0.7,0.7-1.4,1.1-2.1c0.6-1.3,1.2-2.5,1.7-3.6c0.5-1.1,0.9-2.1,1.3-3.2c0.4-1,0.9-2,1.3-3.2
								c0.4-1.1,0.8-2.4,1.3-3.7c0.2-0.7,0.5-1.4,0.8-2.2c0.2-0.8,0.5-1.7,0.8-2.6c0.3-0.9,0.6-1.9,0.9-3c0.3-1.1,0.6-2.2,0.9-3.5
								l-0.5,1.7c0.2-1.3,0.4-2.7,0.7-4.1c0.3-1.4,0.5-2.8,0.8-4.3c0.6-2.9,1-5.9,1.5-8.7c0.2-1.4,0.3-2.9,0.4-4.2
								c0.1-1.4,0.2-2.7,0.2-3.9c0-2.5-0.2-4.7-0.6-6.4c-0.3,1.1-0.4,2.6-0.4,4.2c0,0.8,0,1.6,0,2.5c0,0.8,0,1.7-0.1,2.5
								c-0.1,1.6-0.1,3.1-0.4,4.1c-0.2,1.1-0.6,1.7-1.2,1.7c0,0,0.2-1.6,0.4-3.9c0.1-1.2,0.2-2.6,0.3-4.1c0.1-1.5,0.1-3.1,0.2-4.7
								c0.1-1.6,0.1-3.2,0.1-4.6c0-1.5,0-2.8,0-4c0-2.3,0-3.9,0-3.9c-0.7,3.9-0.6,10-0.8,16.6c-0.3,6.5-0.9,13.3-2,18
								c-0.6,3.4,0.1,0,1.1-3.9c0.8-3.9,1.7-8.3,2.3-6.5c-0.4,3-0.7,5.7-1.2,8.1c-0.5,2.4-0.9,4.6-1.5,6.5c-1,3.9-2.2,7-3.3,9.7
								c-2.4,5.3-4.7,9-8,13.8c-2.2,2.8-1.5,0.4-0.1-3.3c0.6-1.9,1.4-4,2.1-6c0.7-2,1.2-3.7,1.6-4.8c3.3-6.6,6.3-15.4,7.7-25.5
								c0.1-1.3,0.3-2.6,0.4-3.9c0.1-0.7,0.1-1.3,0.2-2c0-0.7,0.1-1.3,0.1-2c0.1-1.3,0.1-2.7,0.2-4.1c0-1.4,0-2.7,0-4.1
								c0-5.5-0.1-11.1-0.4-16.8l-1.7-12.6c1.6-11.4,4.6-6.5,4.2-27l-1.2,6.1c-0.5-4.5-0.6-7.4-0.6-9.6c-0.9,8.8-2,18.3-3,26.3
								c-2.6-11.7,1.3-33.5,1.8-50.6c-0.3,0.9-0.4,6.9-1.1,8.7c-0.6-25.6,2.5-52.4,2.9-72.1c-1.1-8.3-0.8,16.4-2.5,12.3
								c0.7-10.4-0.8-22.1,0.7-24.9c-2.3,4.5-0.2-23.9-2.3-4c-0.5-18.7-0.2-38.4,0.3-58.1c0.2-4.9,0.3-9.9,0.5-14.8
								c0.1-2.5,0.2-4.9,0.3-7.4c0-1.2,0.1-2.5,0.1-3.7l0-3.7c0-9.8-1.1-19.6-3.4-28.9c-0.1,1-0.2,1.5-0.5,1.6
								c-0.3,0.1-0.6-0.2-1.1-0.9c1.7,6.2,3,14,3.3,21.1c0,1.8,0.1,3.5,0.1,5.2c-0.1,1.7-0.1,3.2-0.2,4.7c-0.2,2.9-0.6,5.5-1,7.2
								c-0.3-2.1-0.3-4.4-0.3-6.7c0-2.2,0.2-4.5,0.3-6.6c0-2.1,0.1-4,0.1-5.5c-0.1-1.5-0.2-2.7-0.4-3.3c0.2,4.3,0.6,12.6-0.6,12.8
								c-0.3-2.7-0.7-5-0.9-7.2c-0.1-2.2-0.4-4.1-0.4-6c-0.1-1.9-0.2-3.7-0.3-5.5c-0.1-0.9-0.2-1.8-0.3-2.7
								c-0.1-0.9-0.3-1.8-0.5-2.7c0,0,0.4,1,0.8,1.9c0.2,0.5,0.4,1,0.5,1.3c0.1,0.4,0.2,0.6,0.2,0.6c-0.1-1.5-0.4-2.8-0.6-4
								c-0.2-1.2-0.3-2.3-0.5-3.4c-0.3-2-0.6-3.6-0.8-5c-0.2-1.4-0.3-2.5-0.5-3.5c-0.1-1-0.2-1.9-0.3-2.8c-0.2-1.8-0.7-3.6-1.6-6.4
								c-1-2.8-2.7-6.7-5.9-12.3c-5.9-7.4-0.9,0.6-2.4,1.6c-0.6-1.4-1.7-3.4-3.2-5.7c-1.5-2.3-3.3-4.9-5.2-7.4
								c-0.5-0.6-0.9-1.3-1.4-1.9c-0.5-0.6-1-1.2-1.4-1.8c-1-1.2-1.8-2.4-2.7-3.5c-1.8-2.1-3.1-4.1-3.8-5.5c0,0,0.7,0.7,1.6,1.8
								c0.9,1.1,2.3,2.5,3.5,4c1.2,1.5,2.4,3,3.3,4.1c0.9,1.2,1.4,1.9,1.4,1.9c-5.9-9.1-13.1-16.4-18.4-21.8
								c0.3,0.8,0.6,1.4,2.1,3.1c-0.4-0.4-0.7-0.8-1.1-1.2c-0.4-0.4-0.8-0.8-1.2-1.2c-0.8-0.8-1.7-1.6-2.5-2.4
								c-1.7-1.6-3.5-3-5.2-4.4c-1.7-1.4-3.4-2.6-4.7-3.8c-1.4-1.1-2.6-2.1-3.4-2.9c0,0-0.8,0.1-1.5,0.1c-0.4,0-0.7,0.1-1,0.1
								c-0.3,0-0.5,0.1-0.5,0.1c1.2,0.5,2.9,1.4,4.8,2.5c1.9,1.1,3.9,2.5,5.9,3.9c1.9,1.5,3.7,2.9,5.1,4.2c1.3,1.3,2.3,2.4,2.6,3
								c-0.5,0.1-1.6-0.6-3-1.6c-1.4-1-3.2-2.4-5.1-3.9c-0.9-0.8-2-1.5-3-2.2c-1-0.7-2-1.5-3-2.2c-2-1.3-3.8-2.6-5.3-3.4
								c1.6,0.9,3,2,4.4,2.9c1.4,0.9,2.6,1.8,3.7,2.7c1.1,0.9,2.2,1.7,3.2,2.6c1,0.9,1.9,1.7,2.7,2.4c3.3,3.1,5.8,5.8,8,8.4
								c1.2,1.3,2.2,2.6,3.3,3.9c0.6,0.7,1.1,1.3,1.7,2c0.6,0.7,1.2,1.4,1.8,2.2c0.6,0.8,1.3,1.5,2,2.4c0.7,0.8,1.4,1.7,2.1,2.7
								c1.6,1.8,3.2,4,5.1,6.4l-2-3.7c5.1,5.8,9,12.7,11.9,19.7c2.9,7,4.9,14.1,6.7,20.5c-1.4-3.5-2.2-4-2.1-2.3
								c2.5,6.9,4.2,14.1,5.1,21.4c0.4,3.7,0.8,7.4,0.8,11.1c0.1,1.8,0.1,3.8,0.1,5.7c0,1.9,0,3.9,0,5.9c0,15.7,0,31.9,0.4,49.3
								l-1.8,10.5l1.4,0.6c0.6,17-1.9,3.7-1.8,14.7c0-4.2,0.2-3.4,0.6-4.3c-1.5,19.8,1.3,11,0.8,22.1c1.5-5.3,0.5-21.4,2.5-16.5
								c-1.5,19.7-0.7,50.4-4,53.3c0.7,18.3,0.5,38.8,0.1,58.6c-0.2,9.9-0.4,19.6-0.6,28.8c-0.1,4.6-0.2,9-0.3,13.3
								c-0.1,4.2-0.1,8.3-0.2,12.1c0.5,4,0.5-2.5,0.9-0.9c-0.3,1.4-0.5,3.1-0.6,5c-0.1,1.8-0.4,3.8-0.5,5.9
								c-0.1,2.1-0.5,4.2-0.6,6.4c-0.2,2.1-0.6,4.3-0.8,6.3c-1.3,8.2-3.3,14.8-4.1,14.6c-0.6,2.7-1,4.7-1.1,6.2
								c-0.2,1.5-0.1,2.6-0.2,3.4c-3.7,6.6-8.3,14.3-14,21.8c0,0,1.1-1.3,2.2-2.7c1-1.4,2.1-2.8,2.1-2.8l-0.2,0.8
								c0,0-0.4,0.5-0.9,1.2c-0.5,0.8-1.3,1.7-2.1,2.7c-0.8,1-1.6,1.9-2.1,2.6c-0.3,0.4-0.6,0.6-0.7,0.8c-0.2,0.2-0.3,0.3-0.3,0.3
								l0.1-0.4c-7.3,9.2-16.4,18.2-26.6,25.2c-5.1,3.5-10.4,6.6-15.7,9c-5.3,2.4-10.7,4.3-15.8,5.5c1.5-0.4,2.6-0.6,3.3-0.7
								c0.7-0.2,1.2-0.2,1.4-0.1c0.4,0.1,0,0.5-0.7,1c-1.3,1-3.5,2.1-0.6,1.5c-5.6,0.6-14.5,2.7-24.8,3.7c-1.3,0.1-2.6,0.3-3.9,0.4
								c-1.3,0.1-2.7,0.2-4,0.2c-0.7,0-1.4,0.1-2,0.1c-0.7,0-1.4,0-2,0c-1.4,0-2.7,0.1-4.1,0.1c-5.8,0-11.7,0-17.3,0.1
								c0.1,0.6-1.6,1,1,1.5l-12.9-1.1l1.7,0.7c-23,0.5-48.1-2.5-63.3-1.2c9.4,0.3,9.4,0.9,10.4,1.8c-16.5-0.1-32-0.1-51.3-0.9
								c1,0.2,1.7,0.4,1.7,0.6c-5,0.2-11.1-0.4-16.3-0.8l-0.7,1.4c-9.9-0.6-22.6,0.1-34.3-1c-4.6,1.5-28.4-1.4-41.9-0.8
								c-5.2-0.3,11.3,1.6-3.2,1.5c-2.1-2.9-18.8-0.1-20-3.2c0,0-3.1,0.3-6.3,0.6c-1.5,0.1-3,0.2-4.1,0.3c-1.1,0.1-1.9,0.1-1.9,0.1
								l-2.5-1.8c-2.5,0.6-4.8,0.6-6.9,0.3c-0.5-0.1-1.1-0.1-1.6-0.2c-0.5-0.1-1-0.2-1.5-0.4c-1-0.3-2.1-0.6-3.1-0.9
								c-1.1-0.3-2.1-0.8-3.3-1.2c-1.1-0.4-2.3-0.8-3.6-1.3c-1.3-0.5-2.6-1-4.1-1.4c-1.5-0.4-3.1-1-4.9-1.5c0.6,0.6,2.1,1.2,1.3,1.2
								c-1.1-0.5-2.6-1-4-1.7c-1.4-0.7-2.8-1.3-3.9-1.8c-1-0.5-1.6-1-1.5-1c0.1-0.1,1,0.2,3.1,0.7c-0.5-0.2-1-0.4-1.5-0.6
								c-0.6-0.3-1.2-0.5-1.8-0.9c-0.7-0.3-1.4-0.6-2.1-1c-0.7-0.3-1.5-0.7-2.2-1.1c-1.5-0.8-3.1-1.6-4.6-2.4
								c-1.5-0.9-2.9-1.7-4.3-2.5c-2.6-1.7-4.7-2.9-5.5-3.3c-0.4-0.2-0.6-0.2-0.3,0.2c0.2,0.3,0.9,1,2,2c-0.1-0.3,0.4-0.1,1.3,0.4
								c0.9,0.5,2,1.3,3.4,2.2c1.4,0.8,2.9,1.9,4.3,2.7c1.5,0.9,2.8,1.7,3.8,2.3c-0.3,0.2-1.1,0-2.3-0.4c-1.2-0.4-2.7-1-4.2-1.8
								c-1.5-0.8-3.2-1.5-4.6-2.2c-1.4-0.7-2.6-1.2-3.5-1.3c-0.1-0.2-0.5-0.5-0.9-0.9c-0.4-0.4-0.9-0.9-1.3-1.3l-1.9-0.3
								c-5.7-5-11.3-10.1-16-15.4c-4.7-5.2-8.6-10.5-10.9-15.5c-0.4-0.1-1-0.7-1.8-1.8c-0.8-1.1-2-2.7-3.2-4.9l1.4-1
								c0,0-0.5-0.8-1.2-2.1c-0.7-1.3-1.6-3-2.5-4.8c-0.9-1.7-1.6-3.5-2.3-4.9c-0.3-0.7-0.6-1.2-0.7-1.6c-0.2-0.4-0.2-0.6-0.2-0.6
								s0,0.5,0.1,1.2c0.1,0.7,0.2,1.7,0.3,2.6c0.1,1,0.2,1.9,0.3,2.7c0.1,0.7,0.2,1.2,0.2,1.2c-4.1-7.8-6-15.1-7.1-22
								c-1.1-7-1.3-13.6-1.7-20.6c-0.4-0.4-0.7-1.2-0.9-2.2c-0.3-1-0.3-2.3-0.4-3.8c0-0.7-0.1-1.5-0.1-2.4c0-0.8,0-1.8,0-2.8
								c0.1-2,0.1-4.1,0.2-6.2c0.3-8.7,0.7-18.5-0.6-25.2l-0.8,12c0.5-25.7-1.2-29.8-0.2-53.8c0.9,20.3,0.4,20.5,2.7,50.1
								c-1.2-29.7,1.6-51.4,0-78.6c-0.7,1.8-1.1,8.7-1.8,2c1.5-5.3-0.1-25.6,1.7-21.6c-0.6-8.5-2.2-9.9-2.4-15.1l2.1-28.4l-0.3,0.9
								c-2-24.1-1.3-46.6-0.4-69.2c0.2-5.6,0.5-11.2,0.7-16.9c0.2-2.6,0.3-5.2,0.7-7.8c0.2-1.3,0.3-2.6,0.5-3.9
								c0.2-1.3,0.4-2.6,0.6-3.9c0.9-5.1,2-10.3,3.6-15.4c0.7-2.6,1.6-5.1,2.4-7.7c1-2.5,1.8-5.1,2.9-7.6l-1.2,0.4
								c0,0,0.4-0.6,0.9-1.5c0.5-0.9,1.2-2.1,2.1-3.2c0.8-1.1,1.6-2.3,2.1-3.2c0.6-0.8,1-1.4,1-1.4c-1.3,1.7-1.8,2.5-2,2.4
								c-0.2,0,0.1-0.8,0.4-1.8c0.8-2,2.2-5,2.1-5.4c0,0,1.1-1.4,2.7-3.6c1.7-2.1,3.9-4.9,6.3-7.5c1.2-1.3,2.4-2.6,3.6-3.8
								c0.6-0.6,1.1-1.2,1.7-1.7c0.6-0.5,1.1-1,1.6-1.4c1-0.9,1.8-1.6,2.4-2.2c0.6-0.5,0.9-0.8,0.9-0.8c0-0.5-0.7-0.8-1.9-0.3
								c-0.6,0.3-1.3,0.7-2.2,1.5C41.1,46.9,40.1,47.9,39,49.3z M24.3,436.1c0,0,0.8,1.5,1.7,3c0.9,1.5,1.8,2.9,1.8,2.9
								c0.4,0.6,0.8,1.1,1.2,1.7c0.4,0.6,0.8,1.2,1.2,1.9c0,0-0.6-0.9-1.2-1.8c-0.6-0.9-1.2-1.8-1.2-1.8c-1-1.4-2.1-2.6-2.7-3.5
								C24.4,437.4,24.1,436.6,24.3,436.1z M498.8,284c0.8-3.5,0.2,5.1,0.4,7.6l0.2-12C498.9,278,498.9,282.3,498.8,284z M15,441.9
								c0,0-0.8-0.8-1.5-1.5c-0.8-0.8-1.5-1.6-1.5-1.6l-1.7-5.2c0,0,1.1,2.1,2.3,4.2c0.6,1.1,1.2,2.1,1.6,2.8
								C14.7,441.4,15,441.9,15,441.9z M-2.2,339.7L-2.9,350l-0.2-0.9l0.7-10.3L-2.2,339.7z M6.9,223.9c-0.1,0.7-0.1,1.3-0.2,2
								C6.7,225.3,6.8,224.6,6.9,223.9c0.8-8-1.2-11.2,0.8-17.7C9.4,214.2,7.6,219.3,6.9,223.9z M10.1,405.1
								c0.5,3.3,0.9,4.8,1.7,7.1c0.1-0.9-0.1-3-0.1-4.3c0-0.6,0.1-1.1,0.2-1.1c0.1,0,0.3,0.5,0.7,1.6c0,0.8,0.2,2.2,0.5,3.6
								c0.2,1.5,0.7,3.1,1.1,4.7c0.2,0.8,0.4,1.6,0.5,2.3c0.2,0.7,0.4,1.3,0.5,1.9c0.2,1.1,0.3,1.9,0.1,2c-0.3-1.2-0.7-2.3-1.1-3.4
								c-0.4-1.1-0.7-2.1-1.1-3c-0.4-1-0.8-1.9-1.1-2.7c-0.3-0.9-0.7-1.7-1-2.4c-0.6-1.5-1.1-2.8-1.3-3.8
								C9.6,406.5,9.6,405.7,10.1,405.1z M202.2,498l-2.6,0.1l9.6,0.9L202.2,498z M246.8,499.1c5.3,1.5,18.9,1.2,28.3,1.5
								c2.4-1.3-7.1-2.7-18.2-2.6C243.9,497,252,500,246.8,499.1z M4.8,326.9l-1,2.6l-0.1-2.5L3,337.4c-1.4-13.5,1.2-23.2,1.6-30.1
								C4.5,313.3,2,329.8,4.8,326.9z M341.7,499.9c9.5,0.9,26.6,2,25,3c0.6-1.9-13.1-2.8-17.4-2.8
								C346.8,500.2,345,500.1,341.7,499.9z M341.2,503.5c-13.8-0.9-14.7-1.8-25.2-3.6c13.6-0.8,17.3,1.7,15.7,2.7
								c9.5,0.9,7.7-0.4,12.7-0.6L341.2,503.5z M326.9,498.1l-5.6,0.3c-6.6,0.8-8,3-17.3,0.8l17.3-0.8
								C322.8,498.2,324.6,498,326.9,498.1z M436.9,482.7c0,0-0.3,0.1-0.8,0.3c-0.5,0.2-1.1,0.5-1.7,0.7c-1.3,0.5-2.5,0.9-2.5,0.9
								c2.4-1.2,3.7-1.8,4.4-2.1C436.9,482.3,437,482.4,436.9,482.7c0,0,1-0.4,2.1-0.9c0.5-0.2,1-0.4,1.4-0.6
								c0.4-0.2,0.6-0.3,0.6-0.3c-4.9,3.3-6.2,4-6.1,3.7C435.1,484.4,436.5,483.3,436.9,482.7z M354.4,498.7l-16.3-0.2
								C339,499.4,349.2,498.9,354.4,498.7z M434.6,485.9c-1.5,0.8-3.5,1.9-5.8,3c-1.1,0.5-2.3,1.1-3.5,1.6c-1.2,0.5-2.4,1-3.5,1.4
								c-2.2,1-4.3,1.6-5.6,2.1c-1.3,0.5-1.9,0.7-1.3,0.4c0.6-0.8,4.6-2.2,8.9-4c1.1-0.4,2.2-0.9,3.2-1.3c1.1-0.4,2.1-0.9,3.1-1.3
								C432,487,433.6,486.2,434.6,485.9z M502.8,156.3l-0.1,10.3l-1.4-5L502.8,156.3z M503.8,276.6l-0.7-2.5l0.1-6L503.8,276.6z
								 M503.5,387.4c-0.3-0.6-0.6-0.3-1,0.6c-0.1,0.8-0.3,1.6-0.4,2.2c-0.2,0.6-0.4,1.2-0.5,1.5c0.2-1.5,0.5-2.9,0.9-3.7
								c0.2-1.1,0.3-2.3,0.4-3.6c0.1-1.3,0.1-2.6,0.1-3.9c0-2.5-0.1-5-0.3-6.5c-0.6,1.8-0.6,8.6-1.2,11.1c-0.1-1.2-0.2-2.7-0.2-4.2
								c0-1.5,0.1-3.2,0.2-4.9c0.2-3.5,0.5-7.1,0.7-10.1c0.4-6.1,0.5-10.2-1.8-7c0.6-4.3,1.8-19,2.6-13.9
								c-0.1,5.8-0.1,14.2,0.1,22.3c0.1,4,0.3,8,0.4,11.4c0.1,1.7,0.1,3.4,0.1,4.8C503.5,385,503.4,386.3,503.5,387.4
								c0.2,0.5,0.3,1.5,0.2,3.5C503.6,390.3,503.5,389,503.5,387.4z M416.8,498.6c-1,0.3-1.9,0.5-2.6,0.7c-0.8,0.2-1.4,0.3-1.9,0.4
								c-1.1,0.2-1.7,0.3-2.1,0.4c-3.6,0.5-6.4,0.6-5.5-0.2c4.3-0.7,5.1-0.6,5.1-0.4c0,0.3-0.8,0.7,0.3,0.6c1.1-0.2,2.2-0.4,3.3-0.7
								C414.6,499.2,415.8,498.9,416.8,498.6z M391,504.3c0,0,0.9-0.1,2.2-0.1c1.3-0.1,3-0.2,4.8-0.3c1.7-0.2,3.4-0.4,4.7-0.5
								c1.3-0.1,2.2-0.3,2.2-0.3s-0.4,0-1.1,0.1c-0.7,0-1.5,0.1-2.4,0.1c-1.8,0.1-3.5,0.1-3.5,0.1s1.3-0.1,3.2-0.3
								c1-0.1,2.1-0.2,3.3-0.3c1.2-0.2,2.5-0.3,3.8-0.5c0.7-0.1,1.3-0.2,1.9-0.3c0.6-0.1,1.3-0.2,1.9-0.4c1.2-0.2,2.3-0.4,3.3-0.6
								c1-0.2,1.8-0.4,2.3-0.5c0.6-0.1,0.9-0.2,0.9-0.2c-0.7,0.3-1.4,0.6-2.1,0.9c-0.7,0.3-1.5,0.5-2.2,0.7c-1.5,0.5-3,0.9-4.4,1.3
								c-3,0.7-5.9,1.3-8.5,1.5c-1.3,0.1-2.5,0.2-3.7,0.3c-1.1,0-2.2,0-3.1,0C392.7,504.7,391.5,504.6,391,504.3z M386.2,505.6
								c0,0-0.7-0.2-1.5-0.4c-0.7-0.3-1.4-0.5-1.4-0.5s0.3,0.1,0.7,0.2c0.4,0.1,1,0.2,1.5,0.3c1.1,0.2,2.2,0.4,2.2,0.4L386.2,505.6
								l0.7,0.2c0,0-0.4,0-1,0c-0.6,0-1.6,0.1-2.7,0.1c-2.2,0-5.1,0-8-0.1c-5.8-0.2-11.6-0.3-11.6-0.3s5.6,0.1,11.2,0.2
								c2.8,0.1,5.6,0,7.8,0C384.8,505.7,386.2,505.6,386.2,505.6z M149.9,503.6c-8.7,3.8,20.4,2.7,25,4.5c1-1.3,9.7-3.3-12.8-3.2
								c19.5-1.3,12.2,2.5,23.8-0.7c-9.3,0.2-20.6-0.8-22.3-0.9l11-0.1C168.4,500.9,157.7,504.4,149.9,503.6z M40,470
								c0,0-0.7-0.6-1.6-1.6c-1-0.9-2.2-2.2-3.5-3.6c-0.6-0.7-1.2-1.3-1.8-1.9c-0.6-0.6-1.1-1.2-1.5-1.8c-0.9-1-1.5-1.7-1.5-1.7
								s0.5,0.7,1.4,1.6c0.4,0.5,0.9,1.1,1.4,1.7c0.5,0.6,1.1,1.2,1.7,1.9c1.2,1.3,2.3,2.6,3.2,3.4c0.9,0.9,1.5,1.5,1.5,1.5L40,470z
								 M-1,123.4c-0.2,0.3-0.5-0.7-0.7-2.4c-0.2-1.7-0.2-4.1-0.2-6.7c0-1.3,0.2-2.6,0.3-3.9c0.1-1.3,0.3-2.6,0.5-3.8
								c0.5-2.4,1.1-4.3,1.7-5.4C-1.1,110.6-1.8,121-1,123.4z M85.3,6.3c0,0-1,0.3-2.5,0.7c-1.5,0.5-3.4,1.2-5.3,1.8
								c-1.9,0.7-3.8,1.5-5.3,2.1c-0.7,0.3-1.3,0.5-1.7,0.7c-0.4,0.2-0.6,0.3-0.6,0.3c0.5-0.8,1.6-1.6,3-2.4
								c1.5-0.8,3.3-1.6,5.4-2.2c2-0.7,4.2-1.4,6.4-2c2.1-0.6,4.2-1.3,6.1-1.8C93.5,3.7,87.5,4.7,85.3,6.3z M190.7-0.6l5.2,0.3
								l-5.4-2L190.7-0.6z M183.6-3.3c3.3-0.9-7.9-1.3-10.5-1.2L183.6-3.3z M279-5.1L272.2-5l6.1,1.8L279-5.1z M268.2-3
								c-1.6-1.3-0.9-3-16.6-2.2c-0.6,1.4,3.6,1.3-2.2,2.9c5.1,0.3,9.4-0.2,11.9-0.4c-3.5-0.2-7.6,0.4-8.6-0.5
								C258.6-3.6,264.6-3.5,268.2-3c0.5,0.5,1.4,0.9,3.5,1.1C271.6-2.3,270.3-2.7,268.2-3z M211.6-1.6c-2.1,0.2-3.8,0.3-4.7,0.6
								L206-1.3C208.1-1.9,209.9-1.8,211.6-1.6c2.3-0.2,4.9-0.3,7.6-0.5c1.7-1.1-9-1.9-11.8-2.6c5.1,0.3,9.5,1.4,16.3,0.8
								c-0.9-0.3,0-0.6-4.3-0.6l9.3-0.2c10.7,1.6,0.5,2.1-9.5,2.6c-0.3,0.3-1.1,0.5-3,0.8C214.6-1.1,213.2-1.3,211.6-1.6z M286.5,1
								l-5.1-0.3c-2.6-0.4-1-0.9-1.9-1.2C285.5-0.5,293.3,0.3,286.5,1z M11.7,76.5c0.5-1.6-0.3-0.8-1.6,1.4C9.5,79,8.8,80.4,8,82
								c-0.4,0.8-0.7,1.7-1,2.5c-0.3,0.9-0.6,1.8-0.9,2.7l-0.3-4.4c0.3,0,0.8-0.8,1.5-2.2c0.3-0.7,0.7-1.5,1.1-2.3
								c0.4-0.9,0.8-1.8,1.3-2.7c0.9-1.8,1.7-3.8,2.6-5.2c0.8-1.5,1.4-2.6,1.6-3c1.3-0.8,1.1,0,0.4,1.8c-0.4,0.9-0.9,2-1.4,3.2
								C12.6,73.7,12.1,75.1,11.7,76.5z M12,428.6c-0.2,0.8,0.2,2.6,1,4.7c0.9,2.1,2.1,4.7,3.6,7.2c2.8,5.1,6.4,9.8,7.5,11.7
								c-3.3-3.9-7.9-10.9-10.6-16.5c-1.4-2.8-2.3-5.2-2.6-6.6C10.5,427.7,10.8,427.4,12,428.6z M30.3,456.5c3.4,4,4.5,5,3.4,5.3
								c1.4,2.2,4.7,4.8,6.3,6.9C31.9,462.1,33.8,461.2,30.3,456.5c-0.8-1.1-1.8-2.3-2.9-3.9C28.7,454.2,29.6,455.4,30.3,456.5z
								 M2.2,256.4l1.6-7.1l-0.1-11.1L2.2,256.4z M5.1,137.3c-0.5,0.5-0.7-2.5-0.7-5.9c0-1.7,0-3.5,0-5.1c0.1-1.5,0.2-2.7,0.3-3.4
								c-0.3,0.2-0.5,0.8-0.7,1.8c-0.1,0.5-0.2,1.1-0.2,1.7c-0.1,0.7-0.1,1.4-0.1,2.2c-0.1,3.1-0.1,6.9-0.2,10.3
								c-0.1,0.9-0.2,2.3-0.2,4.5c0.1-1.3,0.1-2.8,0.2-4.5c0.3-2.5,0.9-0.8,1.3-0.8l0.3,3.4l0.3-9.4L5.1,137.3z M126.6,6.5
								c7.6-0.9,8.5-0.6,13.6-0.3C138.6,6.7,131.8,6.9,126.6,6.5z M6.1,200.4c-0.6-12.8-1.8,6.2-2.4-2.2l0.1,6.7
								c-1.3-10.9,1.3-7.8,1-15.4l0.2,5.1c1.1,4.1,0.8-7.8,1.7-8.8C7.2,191.7,6.3,205.5,6.1,200.4z M138.6,7.3
								c12.7-1.2,10.4,1.2,18.1,1.4C146.6,9.8,148.1,7.6,138.6,7.3z M9.7,120.2c0,0,0,0.2,0.1,0.4c0.1,0.2,0.1,0.4,0.1,0.4
								s0-0.1,0-0.4c0-0.3,0.1-0.6,0.2-1.1c0.1-0.9,0.3-2.1,0.5-3.2c0.1-0.6,0.2-1.2,0.3-1.7c0.1-0.5,0.2-1.1,0.3-1.5
								c0.2-0.9,0.3-1.5,0.3-1.5l-0.1-0.8c0,0-0.1,0.6-0.3,1.5c-0.2,0.9-0.5,2-0.6,3.2C10.1,117.9,9.7,120.2,9.7,120.2z"/>
							<path class="st1" d="M154.4-4.6c3.1-0.1,5.2-0.1,6.9,0C159.1-4.6,156.8-4.6,154.4-4.6z"/>
							<path class="st1" d="M47.5,484c0.4-0.1,1.5,0.5,2.8,1.3C50,485.3,49.3,485,47.5,484z"/>
							<path class="st1" d="M69.4,498c0.3,0.1,0.6,0.3,0.9,0.4c0.2,0.1,0.5,0.3,0.7,0.4L69.4,498z"/>
							<path class="st1" d="M463.5,30.2c-1.6-2.3-0.5-1.5,1.3,0.2c1.8,1.9,4.3,4.6,5.8,6.2c-1.5-1.6-2.8-2.4-3.9-3.3
								C465.5,32.5,464.6,31.6,463.5,30.2z"/>
							<path class="st1" d="M483.9,57.4c-0.3-0.6-0.5-1.2-0.9-1.9c-0.4-0.7-0.8-1.4-1.2-2.2c-0.9-1.5-2-3.3-3.3-5
								c0.9,1.1,1.8,2.2,2.6,3.7C481.9,53.5,482.9,55.2,483.9,57.4z"/>
							<path class="st1" d="M466.9,35.8c1.3,1.1,2.4,2.2,3.5,3.3c0.5,0.5,1.1,1.1,1.6,1.6c0.5,0.5,1,1.1,1.5,1.6
								c0.9,1.1,1.8,2.1,2.7,3.1c0.8,1,1.5,2,2.2,2.9c-0.7-0.8-1.4-1.6-2.1-2.5c-0.7-0.8-1.6-1.6-2.4-2.6
								C472.1,41.4,469.9,39.1,466.9,35.8z"/>
							<path class="st1" d="M505.2,144.1c0.9-5.3,0.4-15.4,0.4-15.4c0.4,11.1,0.8,9.9,1.2,5.8c0.2-2.1,0.4-4.9,0.6-7.3
								c0.2-2.4,0.2-4.5,0.4-5c0,1.8,0,3.3,0,4.7c-0.1,1.3-0.1,2.5-0.2,3.5c-0.2,2.1-0.4,3.6-0.6,5
								C506.5,138.1,505.9,140.1,505.2,144.1z"/>
							<path class="st1" d="M504.8,173.4c0-2.3,0-4.4-0.2-6.1C504.8,169.4,504.8,171.4,504.8,173.4z"/>
							<path class="st1" d="M505.6,181.6c-0.2,7.7-1.2,10.4-2,13.9c-0.7-9.3,0.9-15.2,1.1-22.1C504.8,178.8,504.7,184.1,505.6,181.6
								z"/>
							<path class="st1" d="M504,418.8c0.2-0.4,0.4-1,0.6-1.6c0.2-0.6,0.4-1.3,0.7-2c0.5-1.3,0.9-2.3,1.2-2.3c0,0-0.2,0.8-0.6,2
								c-0.3,1.2-0.8,2.8-1.4,4.4c-0.5,1.6-1.1,3.2-1.5,4.4c-0.5,1.2-0.8,2-0.8,2c-1.2,2.5-0.9,1.4-0.2-0.6c0.2-0.5,0.4-1.1,0.6-1.6
								c0.2-0.6,0.4-1.2,0.5-1.8C503.5,420.5,503.8,419.5,504,418.8z"/>
							<path class="st1" d="M478.1,460.3c-3.5,3.9-4,5.1-4.3,5.8c-0.2,0.7,0,0.8-1.9,2.7l-1-1.8c0,0,0.5-0.4,1.1-1
								c0.7-0.6,1.6-1.4,2.5-2.3C476.3,462,478.1,460.3,478.1,460.3z"/>
							<path class="st1" d="M473.9,449.8c0,0,0.1-0.1,0.3-0.3c0.2-0.2,0.4-0.5,0.6-0.8c0.5-0.6,0.9-1.1,0.9-1.1
								c-0.7,0.9-1.2,1.7-2,2.6L473.9,449.8z"/>
							<path class="st1" d="M440.1,493.9c0,0,0.1,0,0.3-0.1c0.2,0,0.5-0.1,0.8-0.2c0.7-0.2,1.6-0.4,2.6-0.6c0.9-0.2,1.9-0.5,2.6-0.6
								c0.7-0.2,1.2-0.3,1.2-0.3C439.5,496.2,438.5,494.5,440.1,493.9z"/>
							<path class="st1" d="M402.1,508.7c0,0,0.4,0,1-0.1c0.6-0.1,1.4-0.1,2.2-0.2c1.6-0.2,3.2-0.4,3.2-0.4s-1.2,0.2-3.1,0.6
								c-1.8,0.3-4.3,0.6-6.8,1c-2.5,0.3-4.9,0.5-6.8,0.7c-1.9,0.1-3.1,0.2-3.1,0.2s0.8-0.1,2.1-0.2c1.3-0.1,2.9-0.4,4.6-0.6
								c0.8-0.1,1.7-0.2,2.5-0.3c0.8-0.1,1.5-0.3,2.1-0.4C401.3,508.9,402.1,508.7,402.1,508.7z"/>
							<polygon class="st1" points="353.9,509.9 352.2,510.4 339.3,509.8 							"/>
							<path class="st1" d="M-3.9,291.3c1.8-2,1.1,18.6,1.5,24.6C-4.7,311.7-1.6,299.4-3.9,291.3z"/>
							<path class="st1" d="M136.5-3.8c0,0-4.9-0.1-9.8-0.2c-2.5,0-5.1,0-7,0c-1.9,0.1-3.2,0.2-3.2,0.2c3.9-0.5,6.2-0.5,7.6-0.6
								c1.4-0.1,2,0,2.5,0C127.7-4.3,128.8-4,136.5-3.8z"/>
						</g>
					</g>
				</g>
			</g>
		</g>
	</g>
</g>
</svg>
